<?xml version="1.0" encoding="utf-8"?>
<!-- Generator: Adobe Illustrator 21.1.0, SVG Export Plug-In . SVG Version: 6.00 Build 0)  -->
<svg version="1.1" id="Layer_1" xmlns="http://www.w3.org/2000/svg" xmlns:xlink="http://www.w3.org/1999/xlink" x="0px" y="0px"
	 viewBox="0 0 550 900" style="enable-background:new 0 0 550 900;" xml:space="preserve">
<style type="text/css">
	.st0{fill:#FCFCFC;}
	.st1{fill:#F4CC90;}
	.st2{fill:#634738;}
	.st3{fill:#FFD997;}
	.st4{fill-rule:evenodd;clip-rule:evenodd;fill:#634738;}
	.st5{fill:#D1D3D4;}
	.st6{fill:#F1F1F2;}
	.st7{fill:#445963;}
	.st8{fill:#414141;}
	.st9{fill:#536D79;}
	.st10{fill:#E6E7E8;}
	.st11{fill:#AFBDC4;}
	.st12{fill:#EBEEF0;}
	.st13{fill:#FEB212;}
	.st14{fill:#FF897F;}
	.st15{fill:#EE5450;}
	.st16{fill:#16BB9D;}
	.st17{fill:#473128;}
	.st18{fill-rule:evenodd;clip-rule:evenodd;fill:#473128;}
	.st19{fill:#BABCBE;}
</style>
<rect class="st0" width="550" height="900"/>
<g id="user_male_and_female2">
	<g>
		<g id="female_user_7_">
			<g>
				<polygon class="st1" points="432.3,811.4 434.7,810.4 443.7,810.4 445.9,811.4 443.7,824.2 433.3,824.2 				"/>
			</g>
			<g>
				<path class="st2" d="M443.3,783.2c-6.2-4.4-14.9,0.7-15.7,12.5l0,0c-0.3,3.4,0.1,7,1,9.6c0,0,0,0.1,0,0.1c0.2,0.5,0.3,1,0.5,1.4
					c0.3,0.7,0.7,1.3,1.2,1.8c0.2,0.2,0.4,0.4,0.7,0.5c0.5,0.3,1.2,0.5,2,0.5H445c0.8,0,1.4-0.1,1.9-0.4c0.3-0.1,0.5-0.3,0.7-0.5
					c0.5-0.4,0.8-1,1.2-1.8c0.2-0.4,0.4-0.9,0.5-1.4c0,0,0-0.1,0-0.1c0.3-0.9,0.5-1.9,0.7-3C452,791.1,449.4,783.6,443.3,783.2z"/>
			</g>
			<g>
				<g>
					<path class="st1" d="M439.1,793.4c2.5,0,4.6,8.1,4.6,14c0,5.9-0.5,10.6-4.6,10.6c-3.5,0-4.6-4.1-4.6-10.6
						C434.5,801.5,436.5,793.4,439.1,793.4z"/>
				</g>
				<g>
					<g>
						<g>
							
								<ellipse transform="matrix(0.9803 -0.1976 0.1976 0.9803 -149.1257 100.9897)" class="st3" cx="431.5" cy="797.8" rx="1.7" ry="2.8"/>
						</g>
						<g>
							
								<ellipse transform="matrix(0.1975 -0.9803 0.9803 0.1975 -423.5901 1078.1375)" class="st3" cx="446.7" cy="797.8" rx="2.8" ry="1.7"/>
						</g>
					</g>
					<g>
						<path class="st3" d="M439.1,809.5c-4.1,0-8.5-5-8.5-11.1c0-1.1,0.1-2.1,0.4-3c0.3-1.1,1.8-2.5,2-3.6c0.8-4.7,3.5-9.9,10.4-1.8
							c0,0,1.6,0.8,2.8,2.8c0.8,1.6,1.3,3.6,1.3,5.6C447.5,804.5,443.1,809.5,439.1,809.5z"/>
					</g>
				</g>
				<g>
					<path class="st4" d="M446.5,794.9c2.2-7.2-4.2-11.3-8.1-11.3c-4.4,0-8,6.9-7.3,11.5c2.4-1.1,4.4-3.2,9.6-6.7
						c-0.7,1-2.2,2.9-7.2,6.2c2.7,0.3,7.6-2.2,10.3-4.9C444.5,791.6,445.4,793.7,446.5,794.9z"/>
				</g>
				<g>
					<g>
						<path class="st5" d="M439.1,816.1c-5.4,0.1-4.5-5.6-4.5-5.6s-11.5,2.9-13.5,7.6c-1.6,3.9-3.2,9.5-3.7,11.4h43.3
							c-0.5-1.9-2.1-7.5-3.7-11.4c-2-4.8-13.5-7.6-13.5-7.6S444.5,816,439.1,816.1z"/>
					</g>
					<g>
						<path class="st6" d="M434.6,809.3c0,0-0.3,4.5,4.5,6.8l-5.9,3.8C433.2,819.9,431.6,811.2,434.6,809.3z"/>
					</g>
					<g>
						<path class="st6" d="M443.6,809.3c0,0,0.3,4.5-4.5,6.8l5.9,3.8C445,819.9,446.7,811.2,443.6,809.3z"/>
					</g>
				</g>
			</g>
		</g>
	</g>
	<g>
		<g>
			<polygon class="st5" points="426.5,829.4 426.5,809.5 415.1,803.2 403.7,809.5 403.7,829.4 			"/>
		</g>
		<g>
			<polygon class="st7" points="418.2,813.5 412,813.5 413.2,817 417,817 			"/>
		</g>
		<g>
			<ellipse class="st1" cx="415.1" cy="806.1" rx="7.3" ry="7.4"/>
		</g>
		<g>
			
				<ellipse transform="matrix(0.9804 -0.1968 0.1968 0.9804 -148.5425 95.4632)" class="st3" cx="406" cy="795.1" rx="1.9" ry="3.1"/>
		</g>
		<g>
			
				<ellipse transform="matrix(0.1969 -0.9804 0.9804 0.1969 -438.8161 1054.4518)" class="st3" cx="424.3" cy="795.1" rx="3.1" ry="1.9"/>
		</g>
		<g>
			<path class="st3" d="M424.5,795.8c0,6.8-4.9,12.4-9.5,12.4c-4.6,0-9.5-5.5-9.5-12.4c0-6.8,4.9-12.4,9.5-12.4
				C419.6,783.4,424.5,789,424.5,795.8z"/>
		</g>
		<g>
			<path class="st8" d="M424.5,795.4c0.4-0.7,0.7-1.4,0.9-2.2c2.8-8-0.5-12.1-4.6-12.3l0,0c-1.5-2.4-4-3.8-7.2-3.6
				c-5.3,0.2-10.2,4.4-9.9,10.7c0.1,2.6,0.7,5.3,1.8,7.5c0,0-0.1-5.3,2.7-5.7c2.7-0.4,10,0.4,11.7-3.4
				C419.9,786.4,424.6,788.7,424.5,795.4z"/>
		</g>
		<g>
			<path class="st6" d="M408,804.5c0,0-0.9,5.1,7.1,9c0,0-6,0.5-7.7,6.1C407.3,819.8,404,807.5,408,804.5z"/>
		</g>
		<g>
			<path class="st6" d="M422.3,804.5c0,0,0.9,5.1-7.1,9c0,0,6,0.5,7.7,6.1C422.9,819.8,426.2,807.5,422.3,804.5z"/>
		</g>
		<g>
			<path class="st5" d="M409.4,829.4c-2.7-10.2-2.9-18.3-2.9-22.1l-14.4,7l-4.2,15.1H409.4z"/>
		</g>
		<g>
			<path class="st5" d="M442.4,829.4l-4.2-15.1l-14.4-7c0,3.8-0.2,11.9-2.9,22.1H442.4z"/>
		</g>
		<g>
			<polygon class="st9" points="418.4,829.4 417,817 413.2,817 411.8,829.4 			"/>
		</g>
	</g>
</g>
<g id="user_female_group2">
	<g>
		<g>
			<g id="female_user_9_">
				<g>
					<polygon class="st1" points="245,805.7 246.6,805.1 252.9,805.1 254.5,805.7 252.9,814.7 245.6,814.7 					"/>
				</g>
				<g>
					<path class="st2" d="M252.7,786.9c-4.3-3.4-10.4,0.5-11,9.7l0,0c-0.2,2.6,0.1,5.4,0.7,7.5c0,0,0,0.1,0,0.1
						c0.1,0.4,0.2,0.7,0.4,1.1c0.2,0.6,0.5,1,0.8,1.4c0.1,0.1,0.3,0.3,0.5,0.4c0.4,0.2,0.8,0.4,1.4,0.4h8.3c0.6,0,1-0.1,1.4-0.3
						c0.2-0.1,0.4-0.2,0.5-0.4c0.3-0.3,0.6-0.8,0.8-1.4c0.1-0.3,0.3-0.7,0.4-1.1c0,0,0-0.1,0-0.1c0.2-0.7,0.4-1.5,0.5-2.3
						C258.7,793.1,256.9,787.2,252.7,786.9z"/>
				</g>
				<g>
					<g>
						<path class="st1" d="M249.7,793.2c1.8,0,3.2,5.7,3.2,9.8c0,4.1-0.4,7.4-3.2,7.4c-2.5,0-3.2-2.8-3.2-7.4
							C246.5,798.9,247.9,793.2,249.7,793.2z"/>
					</g>
					<g>
						<g>
							<g>
								
									<ellipse transform="matrix(0.9804 -0.197 0.197 0.9804 -152.0608 63.7428)" class="st3" cx="244.4" cy="796.3" rx="1.2" ry="1.9"/>
							</g>
							<g>
								
									<ellipse transform="matrix(0.197 -0.9804 0.9804 0.197 -575.8781 889.4559)" class="st3" cx="255" cy="796.3" rx="1.9" ry="1.2"/>
							</g>
						</g>
						<g>
							<path class="st3" d="M249.7,804.4c-2.9,0-5.9-3.5-5.9-7.7c0-0.7,0.1-1.4,0.3-2.1c0.2-0.8,1.3-1.7,1.4-2.5
								c0.5-3.3,2.4-6.9,7.3-1.2c0,0,1.1,0.6,2,2c0.6,1.1,0.9,2.5,0.9,3.9C255.6,801,252.5,804.4,249.7,804.4z"/>
						</g>
					</g>
					<g>
						<path class="st4" d="M254.9,794.3c1.6-5-2.9-7.9-5.7-7.9c-3.1,0-5.6,4.8-5.1,8c1.6-0.8,3.1-2.2,6.7-4.7c-0.5,0.7-1.5,2-5,4.3
							c1.9,0.2,5.3-1.5,7.2-3.4C253.4,792,254.1,793.4,254.9,794.3z"/>
					</g>
					<g>
						<g>
							<path class="st5" d="M249.7,809.1c-3.7,0.1-3.1-3.9-3.1-3.9s-8,2-9.4,5.3c-1.1,2.7-2.2,6.6-2.6,7.9h30.3
								c-0.4-1.3-1.5-5.2-2.6-7.9c-1.4-3.3-9.4-5.3-9.4-5.3S253.5,809,249.7,809.1z"/>
						</g>
						<g>
							<path class="st6" d="M246.6,804.3c0,0-0.2,3.1,3.1,4.7l-4.1,2.7C245.6,811.7,244.4,805.6,246.6,804.3z"/>
						</g>
						<g>
							<path class="st6" d="M252.9,804.3c0,0,0.2,3.1-3.1,4.7l4.1,2.7C253.9,811.7,255,805.6,252.9,804.3z"/>
						</g>
					</g>
				</g>
			</g>
		</g>
		<g>
			<g id="female_user_12_">
				<g>
					<polygon class="st1" points="295.2,805.7 296.8,805.1 303.1,805.1 304.7,805.7 303.1,814.7 295.8,814.7 					"/>
				</g>
				<g>
					<path class="st2" d="M302.9,786.9c-4.3-3.4-10.4,0.5-11,9.7l0,0c-0.2,2.6,0.1,5.4,0.7,7.5c0,0,0,0.1,0,0.1
						c0.1,0.4,0.2,0.7,0.4,1.1c0.2,0.6,0.5,1,0.8,1.4c0.1,0.1,0.3,0.3,0.5,0.4c0.4,0.2,0.8,0.4,1.4,0.4h8.3c0.6,0,1-0.1,1.4-0.3
						c0.2-0.1,0.4-0.2,0.5-0.4c0.3-0.3,0.6-0.8,0.8-1.4c0.1-0.3,0.3-0.7,0.4-1.1c0,0,0-0.1,0-0.1c0.2-0.7,0.4-1.5,0.5-2.3
						C308.9,793.1,307.1,787.2,302.9,786.9z"/>
				</g>
				<g>
					<g>
						<path class="st1" d="M299.9,793.2c1.8,0,3.2,5.7,3.2,9.8c0,4.1-0.4,7.4-3.2,7.4c-2.5,0-3.2-2.8-3.2-7.4
							C296.7,798.9,298.1,793.2,299.9,793.2z"/>
					</g>
					<g>
						<g>
							<g>
								
									<ellipse transform="matrix(0.9804 -0.197 0.197 0.9804 -151.085 73.6344)" class="st3" cx="294.6" cy="796.3" rx="1.2" ry="1.9"/>
							</g>
							<g>
								
									<ellipse transform="matrix(0.1971 -0.9804 0.9804 0.1971 -535.5872 938.5784)" class="st3" cx="305.2" cy="796.3" rx="1.9" ry="1.2"/>
							</g>
						</g>
						<g>
							<path class="st3" d="M299.9,804.4c-2.9,0-5.9-3.5-5.9-7.7c0-0.7,0.1-1.4,0.3-2.1c0.2-0.8,1.3-1.7,1.4-2.5
								c0.5-3.3,2.4-6.9,7.3-1.2c0,0,1.1,0.6,2,2c0.6,1.1,0.9,2.5,0.9,3.9C305.8,801,302.7,804.4,299.9,804.4z"/>
						</g>
					</g>
					<g>
						<path class="st4" d="M305.1,794.3c1.6-5-2.9-7.9-5.7-7.9c-3.1,0-5.6,4.8-5.1,8c1.6-0.8,3.1-2.2,6.7-4.7c-0.5,0.7-1.5,2-5,4.3
							c1.9,0.2,5.3-1.5,7.2-3.4C303.6,792,304.3,793.4,305.1,794.3z"/>
					</g>
					<g>
						<g>
							<path class="st5" d="M299.9,809.1c-3.7,0.1-3.1-3.9-3.1-3.9s-8,2-9.4,5.3c-1.1,2.7-2.2,6.6-2.6,7.9h30.3
								c-0.4-1.3-1.5-5.2-2.6-7.9c-1.4-3.3-9.4-5.3-9.4-5.3S303.7,809,299.9,809.1z"/>
						</g>
						<g>
							<path class="st6" d="M296.8,804.3c0,0-0.2,3.1,3.1,4.7l-4.1,2.7C295.8,811.7,294.6,805.6,296.8,804.3z"/>
						</g>
						<g>
							<path class="st6" d="M303,804.3c0,0,0.2,3.1-3.1,4.7l4.1,2.7C304,811.7,305.2,805.6,303,804.3z"/>
						</g>
					</g>
				</g>
			</g>
		</g>
	</g>
	<g>
		<g id="female_user_8_">
			<g>
				<polygon class="st1" points="267.5,810.3 270,809.4 279.5,809.4 281.9,810.3 279.5,823.9 268.5,823.9 				"/>
			</g>
			<g>
				<path class="st2" d="M279.2,780.7c-6.5-5.1-15.8,0.8-16.6,14.7l0,0c-0.3,4,0.2,8.2,1,11.3c0,0.1,0,0.1,0,0.2
					c0.2,0.6,0.4,1.1,0.6,1.6c0.4,0.9,0.7,1.6,1.2,2.1c0.2,0.2,0.4,0.4,0.7,0.6c0.6,0.3,1.2,0.5,2.1,0.5h12.6c0.8,0,1.5-0.2,2.1-0.5
					c0.3-0.2,0.5-0.4,0.8-0.6c0.5-0.5,0.9-1.2,1.2-2.1c0.2-0.5,0.4-1,0.6-1.6c0-0.1,0-0.1,0-0.2c0.3-1.1,0.5-2.2,0.7-3.5
					C288.4,790.1,285.5,781.2,279.2,780.7z"/>
			</g>
			<g>
				<g>
					<path class="st1" d="M274.6,791.3c2.7,0,4.9,8.6,4.9,14.8c0,6.2-0.6,11.3-4.8,11.3c-3.7,0-4.8-4.3-4.8-11.3
						C269.9,799.9,272,791.3,274.6,791.3z"/>
				</g>
				<g>
					<g>
						<g>
							
								<ellipse transform="matrix(0.9804 -0.1972 0.1972 0.9804 -151.7228 68.2125)" class="st3" cx="266.7" cy="796" rx="1.8" ry="2.9"/>
						</g>
						<g>
							
								<ellipse transform="matrix(0.1972 -0.9804 0.9804 0.1972 -553.3787 916.2412)" class="st3" cx="282.7" cy="796" rx="2.9" ry="1.8"/>
						</g>
					</g>
					<g>
						<path class="st3" d="M274.6,808.4c-4.3,0-8.9-5.2-8.9-11.7c0-1.1,0.1-2.2,0.4-3.2c0.3-1.2,2-2.6,2.1-3.8
							c0.8-5,3.7-10.5,11-1.9c0,0,1.7,0.8,3,3c0.9,1.7,1.4,3.8,1.4,5.9C283.6,803.1,279,808.4,274.6,808.4z"/>
					</g>
				</g>
				<g>
					<path class="st4" d="M282.5,793c2.4-7.6-4.4-12-8.6-12c-4.7,0-8.5,7.3-7.7,12.1c2.5-1.1,4.7-3.4,10.1-7c-0.8,1.1-2.3,3-7.6,6.6
						c2.8,0.4,8.1-2.3,10.9-5.1C280.3,789.5,281.3,791.7,282.5,793z"/>
				</g>
				<g>
					<g>
						<path class="st5" d="M274.7,815.3c-5.7,0.1-4.7-6-4.7-6s-12.1,3-14.2,8.1c-1.7,4.1-3.4,10-3.9,12h45.8c-0.5-2-2.2-7.9-3.9-12
							c-2.1-5-14.2-8.1-14.2-8.1S280.4,815.2,274.7,815.3z"/>
					</g>
					<g>
						<path class="st6" d="M269.9,808.2c0,0-0.4,4.7,4.8,7.1l-6.3,4C268.4,819.3,266.7,810.1,269.9,808.2z"/>
					</g>
					<g>
						<path class="st6" d="M279.5,808.2c0,0,0.4,4.7-4.8,7.1l6.3,4C281,819.3,282.7,810.1,279.5,808.2z"/>
					</g>
				</g>
			</g>
		</g>
	</g>
</g>
<g id="user_male_group3">
	<g>
		<g>
			<g>
				<polygon class="st5" points="110.2,817.5 110.2,803.8 102.3,799.5 94.4,803.8 94.4,817.5 				"/>
			</g>
			<g>
				<polygon class="st7" points="104.5,806.6 100.2,806.6 101,809 103.6,809 				"/>
			</g>
			<g>
				<ellipse class="st1" cx="102.3" cy="801.4" rx="5" ry="5.1"/>
			</g>
			<g>
				<ellipse transform="matrix(0.9804 -0.197 0.197 0.9804 -154.5232 34.482)" class="st3" cx="96" cy="793.9" rx="1.3" ry="2.1"/>
			</g>
			<g>
				
					<ellipse transform="matrix(0.1972 -0.9804 0.9804 0.1972 -691.0976 743.7888)" class="st3" cx="108.6" cy="793.9" rx="2.1" ry="1.3"/>
			</g>
			<g>
				<path class="st3" d="M108.8,794.4c0,4.7-3.4,8.5-6.5,8.5c-3.2,0-6.5-3.8-6.5-8.5s3.4-8.5,6.5-8.5
					C105.4,785.8,108.8,789.7,108.8,794.4z"/>
			</g>
			<g>
				<path class="st8" d="M108.8,794.1c0.2-0.5,0.5-1,0.6-1.5c1.9-5.5-0.3-8.4-3.2-8.5l0,0c-1-1.7-2.8-2.6-4.9-2.5
					c-3.7,0.1-7,3-6.8,7.4c0.1,1.8,0.5,3.6,1.2,5.2c0,0,0-3.6,1.9-3.9c1.9-0.3,6.9,0.3,8-2.3C105.6,787.9,108.9,789.5,108.8,794.1z"
					/>
			</g>
			<g>
				<path class="st6" d="M97.4,800.4c0,0-0.6,3.5,4.9,6.2c0,0-4.1,0.3-5.3,4.2C96.9,810.9,94.7,802.4,97.4,800.4z"/>
			</g>
			<g>
				<path class="st6" d="M107.2,800.4c0,0,0.6,3.5-4.9,6.2c0,0,4.1,0.3,5.3,4.2C107.7,810.9,110,802.4,107.2,800.4z"/>
			</g>
			<g>
				<path class="st5" d="M98.4,817.5c-1.9-7-2-12.6-2-15.2l-9.9,4.8l-2.9,10.4H98.4z"/>
			</g>
			<g>
				<path class="st5" d="M121.1,817.5l-2.9-10.4l-9.9-4.8c0,2.6-0.2,8.2-2,15.2H121.1z"/>
			</g>
			<g>
				<polygon class="st9" points="104.6,817.5 103.6,809 101,809 100,817.5 				"/>
			</g>
		</g>
		<g>
			<g>
				<polygon class="st5" points="153.6,817.5 153.6,803.8 145.8,799.5 137.9,803.8 137.9,817.5 				"/>
			</g>
			<g>
				<polygon class="st7" points="147.9,806.6 143.6,806.6 144.5,809 147,809 				"/>
			</g>
			<g>
				<ellipse class="st1" cx="145.8" cy="801.4" rx="5" ry="5.1"/>
			</g>
			<g>
				
					<ellipse transform="matrix(0.9804 -0.1969 0.1969 0.9804 -153.5938 43.0122)" class="st3" cx="139.5" cy="793.9" rx="1.3" ry="2.1"/>
			</g>
			<g>
				
					<ellipse transform="matrix(0.1972 -0.9804 0.9804 0.1972 -656.215 786.3864)" class="st3" cx="152" cy="793.9" rx="2.1" ry="1.3"/>
			</g>
			<g>
				<path class="st3" d="M152.2,794.4c0,4.7-3.4,8.5-6.5,8.5s-6.5-3.8-6.5-8.5s3.4-8.5,6.5-8.5S152.2,789.7,152.2,794.4z"/>
			</g>
			<g>
				<path class="st8" d="M152.2,794.1c0.2-0.5,0.5-1,0.6-1.5c1.9-5.5-0.3-8.4-3.2-8.5l0,0c-1-1.7-2.8-2.6-4.9-2.5
					c-3.7,0.1-7,3-6.8,7.4c0.1,1.8,0.5,3.6,1.2,5.2c0,0,0-3.6,1.9-3.9c1.9-0.3,6.9,0.3,8-2.3C149.1,787.9,152.3,789.5,152.2,794.1z"
					/>
			</g>
			<g>
				<path class="st6" d="M140.9,800.4c0,0-0.6,3.5,4.9,6.2c0,0-4.1,0.3-5.3,4.2C140.4,810.9,138.1,802.4,140.9,800.4z"/>
			</g>
			<g>
				<path class="st6" d="M150.7,800.4c0,0,0.6,3.5-4.9,6.2c0,0,4.1,0.3,5.3,4.2C151.1,810.9,153.4,802.4,150.7,800.4z"/>
			</g>
			<g>
				<path class="st5" d="M141.8,817.5c-1.9-7-2-12.6-2-15.2l-9.9,4.8l-2.9,10.4H141.8z"/>
			</g>
			<g>
				<path class="st5" d="M164.5,817.5l-2.9-10.4l-9.9-4.8c0,2.6-0.2,8.2-2,15.2H164.5z"/>
			</g>
			<g>
				<polygon class="st9" points="148,817.5 147,809 144.4,809 143.5,817.5 				"/>
			</g>
		</g>
	</g>
	<g>
		<g>
			<polygon class="st5" points="135.3,829.4 135.3,809.7 124,803.6 112.8,809.8 112.8,829.4 			"/>
		</g>
		<g>
			<polygon class="st7" points="127.1,813.7 120.9,813.7 122.2,817.2 125.9,817.2 			"/>
		</g>
		<g>
			<ellipse class="st1" cx="124" cy="806.4" rx="7.2" ry="7.3"/>
		</g>
		<g>
			
				<ellipse transform="matrix(0.9804 -0.197 0.197 0.9804 -154.4605 38.2533)" class="st3" cx="115.1" cy="795.6" rx="1.9" ry="3.1"/>
		</g>
		<g>
			
				<ellipse transform="matrix(0.1972 -0.9804 0.9804 0.1972 -673.1594 769.1274)" class="st3" cx="133" cy="795.6" rx="3.1" ry="1.9"/>
		</g>
		<g>
			<path class="st3" d="M133.3,796.3c0,6.7-4.8,12.2-9.3,12.2c-4.5,0-9.3-5.5-9.3-12.2c0-6.7,4.8-12.2,9.3-12.2
				C128.5,784.1,133.3,789.5,133.3,796.3z"/>
		</g>
		<g>
			<path class="st8" d="M133.3,795.9c0.3-0.7,0.7-1.4,0.9-2.2c2.8-7.9-0.5-12-4.5-12.1l0,0c-1.5-2.4-4-3.7-7.1-3.6
				c-5.3,0.2-10,4.3-9.7,10.5c0.1,2.6,0.7,5.2,1.8,7.4c0,0-0.1-5.2,2.6-5.6c2.7-0.4,9.9,0.4,11.5-3.4
				C128.8,787,133.4,789.3,133.3,795.9z"/>
		</g>
		<g>
			<path class="st6" d="M117,804.9c0,0-0.9,5,7,8.9c0,0-5.9,0.5-7.6,6C116.3,819.9,113.1,807.8,117,804.9z"/>
		</g>
		<g>
			<path class="st6" d="M131.1,804.9c0,0,0.9,5-7,8.9c0,0,5.9,0.5,7.6,6C131.7,819.9,135,807.8,131.1,804.9z"/>
		</g>
		<g>
			<path class="st5" d="M118.4,829.4c-2.7-10-2.9-18-2.9-21.8l-14.2,6.9l-4.1,14.9H118.4z"/>
		</g>
		<g>
			<path class="st5" d="M150.9,829.4l-4.1-14.9l-14.2-6.9c0,3.7-0.2,11.7-2.9,21.8H150.9z"/>
		</g>
		<g>
			<polygon class="st9" points="127.3,829.4 125.9,817.2 122.1,817.2 120.7,829.4 			"/>
		</g>
	</g>
</g>
<g id="user_male_and_female1">
	<g>
		<g>
			<g>
				<path class="st2" d="M443.6,666.9c-6.1-4.7-14.9,0.7-15.7,13.5l0,0c-0.3,3.7,0.1,7.5,1,10.4c0,0,0,0.1,0,0.2
					c0.2,0.5,0.3,1,0.5,1.5c0.3,0.8,0.7,1.4,1.2,1.9c0.2,0.2,0.4,0.4,0.7,0.5c0.5,0.3,1.2,0.5,2,0.5h11.9c0.8,0,1.4-0.2,1.9-0.5
					c0.3-0.2,0.5-0.3,0.7-0.6c0.5-0.5,0.8-1.1,1.2-1.9c0.2-0.5,0.4-1,0.5-1.5c0-0.1,0-0.1,0-0.2c0.3-1,0.5-2.1,0.7-3.2
					C452.2,675.5,449.6,667.4,443.6,666.9z"/>
			</g>
			<g>
				<g>
					<path class="st1" d="M439.3,677c2.5,0,4.6,8.1,4.6,13.9c0,5.9-2,10.6-4.6,10.6c-2.5,0-4.6-4.8-4.6-10.6
						C434.8,685.1,436.8,677,439.3,677z"/>
				</g>
				<g>
					<polygon class="st1" points="432.5,693.9 434.9,692.9 443.8,692.9 446.1,693.9 443.8,707.4 433.4,707.4 					"/>
				</g>
				<g>
					<g>
						<g>
							
								<ellipse transform="matrix(0.9805 -0.1966 0.1966 0.9805 -125.5289 98.1779)" class="st3" cx="431.8" cy="681.4" rx="1.7" ry="2.8"/>
						</g>
						<g>
							
								<ellipse transform="matrix(0.1968 -0.9805 0.9805 0.1968 -309.0777 985.5403)" class="st3" cx="446.9" cy="681.4" rx="2.8" ry="1.7"/>
						</g>
					</g>
					<g>
						<path class="st3" d="M439.3,693.1c-4.1,0-8.4-4.9-8.4-11c0-1.1,0.1-2.1,0.4-3c0.3-1.1,1.8-2.5,2-3.6c0.8-4.7,3.5-9.9,10.4-1.8
							c0,0,1.6,0.8,2.8,2.8c0.8,1.6,1.3,3.5,1.3,5.6C447.7,688.1,443.4,693.1,439.3,693.1z"/>
					</g>
				</g>
				<g>
					<path class="st2" d="M446.8,678.7c0,0-0.7-0.1-1.7-0.2l0,0l-0.4-1.7l-0.4,1.6c-0.4-0.1-0.9-0.1-1.3-0.2l-0.7-4.2l-0.5,4
						c-0.8-0.1-1.9-0.1-2.4-0.1c0,0,0,0,0,0l-0.3-2.4l-0.5,2.4c-1,0.1-2.5,0.2-3.7,0.4l-0.3-4.1l-0.5,4.2c-1.2,0.1-2.1,0.3-2.1,0.3
						s-1.2-10.8,7.4-9.3C439.4,669.4,448.2,668.4,446.8,678.7z"/>
				</g>
				<g>
					<path class="st10" d="M445.9,696.3c-0.4,0.6-0.9,1.1-1.5,1.5c-0.4,1.2-2.5,2.2-5,2.2c-2.4,0-4.4-0.8-5-2
						c-0.6-0.4-1.2-0.9-1.6-1.4c0,1.1,0.7,4.6,4.2,15.9h4.8C445.9,699.2,446.1,696.7,445.9,696.3z"/>
				</g>
			</g>
		</g>
		<g>
			<g>
				<path class="st9" d="M461,713c-0.5-2-2.1-7.9-3.7-12c-2-5-13.4-8.1-13.4-8.1s1.4,9-4.5,17.9l0,0c-5.6-8.7-4.5-17.9-4.5-17.9
					s-11.4,3-13.4,8.1c-1.6,4.1-3.2,10-3.7,12H461z"/>
			</g>
			<g>
				<path class="st6" d="M434.9,692.5c0,0-0.7,8.3,4.5,18.3c0,0-7.2-4.3-10.3-12.4l2.9-1.3l-0.8-1.6L434.9,692.5z"/>
			</g>
			<g>
				<path class="st6" d="M443.9,692.5c0,0,0.7,8.3-4.5,18.3c0,0,7.1-4.3,10.3-12.4l-2.9-1.3l0.8-1.6L443.9,692.5z"/>
			</g>
		</g>
	</g>
	<g>
		<g>
			<polygon class="st11" points="426.5,713 426.5,692.9 415.1,686.7 403.6,693 403.6,713 			"/>
		</g>
		<g>
			<polygon class="st7" points="418.2,697 411.9,697 413.2,700.5 416.9,700.5 			"/>
		</g>
		<g>
			<ellipse class="st1" cx="415.1" cy="689.5" rx="7.3" ry="7.5"/>
		</g>
		<g>
			
				<ellipse transform="matrix(0.9805 -0.1967 0.1967 0.9805 -125.534 93.0977)" class="st3" cx="405.9" cy="678.5" rx="1.9" ry="3.1"/>
		</g>
		<g>
			
				<ellipse transform="matrix(0.1969 -0.9804 0.9804 0.1969 -324.5509 960.8608)" class="st3" cx="424.2" cy="678.5" rx="3.1" ry="1.9"/>
		</g>
		<g>
			<path class="st3" d="M424.5,679.2c0,6.9-4.9,12.4-9.5,12.4c-4.6,0-9.5-5.6-9.5-12.4c0-6.9,4.9-12.4,9.5-12.4
				C419.6,666.8,424.5,672.4,424.5,679.2z"/>
		</g>
		<g>
			<path class="st8" d="M424.5,678.8c0.4-0.7,0.7-1.4,0.9-2.2c2.8-8.1-0.5-12.2-4.6-12.3l0,0c-1.5-2.4-4-3.8-7.2-3.6
				c-5.4,0.2-10.2,4.4-9.9,10.7c0.1,2.6,0.7,5.3,1.8,7.5c0,0-0.1-5.3,2.7-5.7c2.8-0.4,10.1,0.4,11.7-3.4
				C419.9,669.8,424.6,672.1,424.5,678.8z"/>
		</g>
		<g>
			<path class="st9" d="M409.3,713c-2.7-10.2-3-18.4-3-22.1l-14.5,7l-4.2,15.2H409.3z"/>
		</g>
		<g>
			<path class="st9" d="M442.4,713l-4.2-15.2l-14.5-7c0,3.8-0.2,12-3,22.1H442.4z"/>
		</g>
		<g>
			<polygon class="st9" points="418.4,713 416.9,700.5 413.1,700.5 411.7,713 			"/>
		</g>
		<g>
			<path class="st12" d="M407.9,688c0,0-0.9,5.1,7.2,9c0,0-6,0.5-7.8,6.1C407.2,703.3,403.9,691,407.9,688z"/>
		</g>
		<g>
			<path class="st12" d="M422.2,688c0,0,0.9,5.1-7.2,9c0,0,6,0.5,7.8,6.1C422.9,703.3,426.2,691,422.2,688z"/>
		</g>
	</g>
</g>
<g id="user_female_group1">
	<g>
		<g>
			<g>
				<path class="st2" d="M279.3,663.9c-6.5-5-15.8,0.8-16.7,14.3l0,0c-0.3,3.9,0.2,8,1,11c0,0.1,0,0.1,0,0.2
					c0.2,0.6,0.4,1.1,0.6,1.6c0.4,0.8,0.7,1.5,1.2,2c0.2,0.2,0.4,0.4,0.7,0.6c0.6,0.3,1.2,0.5,2.1,0.5H281c0.8,0,1.5-0.2,2.1-0.5
					c0.3-0.2,0.5-0.4,0.8-0.6c0.5-0.5,0.9-1.2,1.2-2c0.2-0.5,0.4-1,0.6-1.6c0-0.1,0-0.1,0-0.2c0.3-1,0.5-2.2,0.7-3.4
					C288.5,673,285.7,664.3,279.3,663.9z"/>
			</g>
			<g>
				<g>
					<path class="st1" d="M274.7,674.6c2.7,0,4.9,8.6,4.9,14.8c0,6.2-2.2,11.3-4.9,11.3c-2.7,0-4.9-5.1-4.9-11.3
						C270,683.2,272.1,674.6,274.7,674.6z"/>
				</g>
				<g>
					<polygon class="st1" points="267.5,692.5 270,691.5 279.6,691.5 282,692.5 279.6,706.9 268.5,706.9 					"/>
				</g>
				<g>
					<g>
						<g>
							
								<ellipse transform="matrix(0.9805 -0.1965 0.1965 0.9805 -128.2678 65.657)" class="st3" cx="266.8" cy="679.3" rx="1.8" ry="2.9"/>
						</g>
						<g>
							
								<ellipse transform="matrix(0.1966 -0.9805 0.9805 0.1966 -438.7372 823.0582)" class="st3" cx="282.9" cy="679.3" rx="2.9" ry="1.8"/>
						</g>
					</g>
					<g>
						<path class="st3" d="M274.7,691.7c-4.3,0-9-5.2-9-11.7c0-1.1,0.1-2.2,0.4-3.2c0.3-1.2,2-2.6,2.1-3.8c0.8-5,3.7-10.5,11-1.9
							c0,0,1.7,0.8,3,3c0.9,1.7,1.4,3.8,1.4,5.9C283.7,686.4,279.1,691.7,274.7,691.7z"/>
					</g>
				</g>
				<g>
					<path class="st2" d="M282.7,676.4c0,0-0.7-0.1-1.8-0.2l0,0l-0.4-1.8l-0.4,1.7c-0.5-0.1-0.9-0.1-1.4-0.2l-0.8-4.5l-0.5,4.3
						c-0.8-0.1-2.1-0.2-2.5-0.2c0,0,0,0,0,0l-0.3-2.6l-0.5,2.6c-1.1,0.1-2.6,0.2-4,0.4l-0.3-4.3l-0.5,4.4c-1.3,0.2-2.3,0.3-2.3,0.3
						s-1.3-11.4,7.9-9.9C274.8,666.4,284.2,665.4,282.7,676.4z"/>
				</g>
				<g>
					<path class="st5" d="M281.8,695.1c-0.4,0.6-0.9,1.2-1.6,1.6c-0.4,1.3-2.6,2.3-5.3,2.3c-2.6,0-4.7-0.9-5.3-2.1
						c-0.7-0.4-1.3-0.9-1.7-1.5c0,1.1,0.8,4.9,4.4,16.9h5.1C281.8,698.2,282,695.5,281.8,695.1z"/>
				</g>
			</g>
		</g>
		<g>
			<g>
				<path class="st9" d="M297.8,712.8c-0.5-2.1-2.2-8.4-3.9-12.8c-2.1-5.4-14.3-8.6-14.3-8.6s1.5,9.5-4.7,19l0,0
					c-5.9-9.2-4.8-19-4.8-19s-12.2,3.2-14.3,8.6c-1.7,4.4-3.4,10.7-3.9,12.8H297.8z"/>
			</g>
			<g>
				<path class="st6" d="M270,691c0,0-0.7,8.8,4.8,19.5c0,0-7.6-4.5-11-13.2l3.1-1.4l-0.9-1.7L270,691z"/>
			</g>
			<g>
				<path class="st6" d="M279.6,691c0,0,0.8,8.8-4.7,19.5c0,0,7.6-4.5,10.9-13.2l-3.1-1.4l0.9-1.7L279.6,691z"/>
			</g>
		</g>
	</g>
	<g>
		<g>
			<g>
				<g>
					<path class="st2" d="M252.7,669.4c-4.3-3.3-10.5,0.5-11,9.5l0,0c-0.2,2.6,0.1,5.3,0.7,7.3c0,0,0,0.1,0,0.1
						c0.1,0.4,0.2,0.7,0.4,1c0.2,0.5,0.5,1,0.8,1.3c0.1,0.1,0.3,0.3,0.5,0.4c0.4,0.2,0.8,0.3,1.4,0.3h8.4c0.6,0,1-0.1,1.4-0.3
						c0.2-0.1,0.4-0.2,0.5-0.4c0.3-0.3,0.6-0.8,0.8-1.3c0.1-0.3,0.3-0.7,0.4-1c0,0,0-0.1,0-0.1c0.2-0.7,0.4-1.4,0.5-2.3
						C258.8,675.5,256.9,669.7,252.7,669.4z"/>
				</g>
				<g>
					<g>
						<path class="st1" d="M249.7,676.5c1.8,0,3.3,5.7,3.3,9.8c0,4.1-1.4,7.5-3.2,7.5c-1.8,0-3.2-3.4-3.2-7.5
							C246.5,682.2,247.9,676.5,249.7,676.5z"/>
					</g>
					<g>
						<polygon class="st1" points="244.9,688.4 246.6,687.7 252.9,687.7 254.5,688.4 252.9,697.9 245.6,697.9 						"/>
					</g>
					<g>
						<g>
							<g>
								
									<ellipse transform="matrix(0.9804 -0.197 0.197 0.9804 -129.0988 61.4644)" class="st3" cx="244.4" cy="679.6" rx="1.2" ry="1.9"/>
							</g>
							<g>
								
									<ellipse transform="matrix(0.1971 -0.9804 0.9804 0.1971 -461.4889 795.7297)" class="st3" cx="255.1" cy="679.6" rx="1.9" ry="1.2"/>
							</g>
						</g>
						<g>
							<path class="st3" d="M249.7,687.8c-2.9,0-5.9-3.5-5.9-7.8c0-0.7,0.1-1.5,0.3-2.1c0.2-0.8,1.3-1.8,1.4-2.5
								c0.5-3.3,2.4-7,7.3-1.2c0,0,1.1,0.6,2,2c0.6,1.2,0.9,2.5,0.9,3.9C255.6,684.4,252.6,687.8,249.7,687.8z"/>
						</g>
					</g>
					<g>
						<path class="st2" d="M254.9,677.7c0,0-0.5-0.1-1.2-0.2l0,0l-0.3-1.2l-0.3,1.2c-0.3,0-0.6-0.1-0.9-0.1l-0.5-3l-0.4,2.9
							c-0.5,0-1.4-0.1-1.7-0.1c0,0,0,0,0,0l-0.2-1.7l-0.3,1.7c-0.7,0-1.7,0.1-2.6,0.3l-0.2-2.9l-0.3,2.9c-0.9,0.1-1.5,0.2-1.5,0.2
							s-0.8-7.6,5.2-6.6C249.7,671.1,256,670.5,254.9,677.7z"/>
					</g>
					<g>
						<path class="st5" d="M254.4,690.1c-0.3,0.4-0.6,0.8-1.1,1.1c-0.3,0.9-1.8,1.5-3.5,1.5c-1.7,0-3.1-0.6-3.5-1.4
							c-0.5-0.3-0.8-0.6-1.1-1c0,0.8,0.5,3.3,2.9,11.2h3.4C254.3,692.2,254.5,690.4,254.4,690.1z"/>
					</g>
				</g>
			</g>
			<g>
				<g>
					<path class="st9" d="M264.9,701.8c-0.4-1.4-1.5-5.5-2.6-8.5c-1.4-3.5-9.5-5.7-9.5-5.7s1,6.3-3.1,12.6l0,0
						c-3.9-6.1-3.2-12.6-3.2-12.6s-8.1,2.1-9.5,5.7c-1.1,2.9-2.3,7.1-2.6,8.5H264.9z"/>
				</g>
				<g>
					<path class="st6" d="M246.6,687.4c0,0-0.5,5.8,3.2,12.9c0,0-5.1-3-7.3-8.7l2-0.9l-0.6-1.1L246.6,687.4z"/>
				</g>
				<g>
					<path class="st6" d="M252.9,687.4c0,0,0.5,5.8-3.1,12.9c0,0,5-3,7.2-8.7l-2-0.9l0.6-1.1L252.9,687.4z"/>
				</g>
			</g>
		</g>
		<g>
			<g>
				<g>
					<path class="st2" d="M302.9,669.4c-4.3-3.3-10.5,0.5-11,9.5l0,0c-0.2,2.6,0.1,5.3,0.7,7.3c0,0,0,0.1,0,0.1
						c0.1,0.4,0.2,0.7,0.4,1c0.2,0.5,0.5,1,0.8,1.3c0.1,0.1,0.3,0.3,0.5,0.4c0.4,0.2,0.8,0.3,1.4,0.3h8.4c0.6,0,1-0.1,1.4-0.3
						c0.2-0.1,0.4-0.2,0.5-0.4c0.3-0.3,0.6-0.8,0.8-1.3c0.1-0.3,0.3-0.7,0.4-1c0,0,0-0.1,0-0.1c0.2-0.7,0.4-1.4,0.5-2.3
						C309,675.5,307.1,669.7,302.9,669.4z"/>
				</g>
				<g>
					<g>
						<path class="st1" d="M299.9,676.5c1.8,0,3.3,5.7,3.3,9.8c0,4.1-1.4,7.5-3.2,7.5c-1.8,0-3.2-3.4-3.2-7.5
							C296.7,682.2,298.1,676.5,299.9,676.5z"/>
					</g>
					<g>
						<polygon class="st1" points="295.1,688.4 296.7,687.7 303.1,687.7 304.6,688.4 303.1,697.9 295.7,697.9 						"/>
					</g>
					<g>
						<g>
							<g>
								
									<ellipse transform="matrix(0.9804 -0.197 0.197 0.9804 -128.1157 71.3499)" class="st3" cx="294.6" cy="679.6" rx="1.2" ry="1.9"/>
							</g>
							<g>
								
									<ellipse transform="matrix(0.197 -0.9804 0.9804 0.197 -421.184 844.9989)" class="st3" cx="305.3" cy="679.6" rx="1.9" ry="1.2"/>
							</g>
						</g>
						<g>
							<path class="st3" d="M299.9,687.8c-2.9,0-5.9-3.5-5.9-7.8c0-0.7,0.1-1.5,0.3-2.1c0.2-0.8,1.3-1.8,1.4-2.5
								c0.5-3.3,2.4-7,7.3-1.2c0,0,1.1,0.6,2,2c0.6,1.2,0.9,2.5,0.9,3.9C305.8,684.4,302.7,687.8,299.9,687.8z"/>
						</g>
					</g>
					<g>
						<path class="st2" d="M305.1,677.7c0,0-0.5-0.1-1.2-0.2l0,0l-0.3-1.2l-0.3,1.2c-0.3,0-0.6-0.1-0.9-0.1l-0.5-3l-0.4,2.9
							c-0.5,0-1.4-0.1-1.7-0.1c0,0,0,0,0,0l-0.2-1.7l-0.3,1.7c-0.7,0-1.7,0.1-2.6,0.3l-0.2-2.9l-0.3,2.9c-0.9,0.1-1.5,0.2-1.5,0.2
							s-0.8-7.6,5.2-6.6C299.9,671.1,306.1,670.5,305.1,677.7z"/>
					</g>
					<g>
						<path class="st5" d="M304.5,690.1c-0.3,0.4-0.6,0.8-1.1,1.1c-0.3,0.9-1.8,1.5-3.5,1.5c-1.7,0-3.1-0.6-3.5-1.4
							c-0.5-0.3-0.8-0.6-1.1-1c0,0.8,0.5,3.3,2.9,11.2h3.4C304.5,692.2,304.6,690.4,304.5,690.1z"/>
					</g>
				</g>
			</g>
			<g>
				<g>
					<path class="st9" d="M315.1,701.8c-0.4-1.4-1.5-5.5-2.6-8.5c-1.4-3.5-9.5-5.7-9.5-5.7s1,6.3-3.1,12.6l0,0
						c-3.9-6.1-3.2-12.6-3.2-12.6s-8.1,2.1-9.5,5.7c-1.1,2.9-2.3,7.1-2.6,8.5H315.1z"/>
				</g>
				<g>
					<path class="st6" d="M296.7,687.4c0,0-0.5,5.8,3.2,12.9c0,0-5.1-3-7.3-8.7l2-0.9l-0.6-1.1L296.7,687.4z"/>
				</g>
				<g>
					<path class="st6" d="M303.1,687.4c0,0,0.5,5.8-3.1,12.9c0,0,5-3,7.2-8.7l-2-0.9l0.6-1.1L303.1,687.4z"/>
				</g>
			</g>
		</g>
	</g>
</g>
<g id="user_male_group2">
	<g>
		<g>
			<g>
				<polygon class="st11" points="110.1,700.8 110.1,687.1 102.3,682.8 94.5,687.1 94.5,700.8 				"/>
			</g>
			<g>
				<polygon class="st7" points="104.4,689.9 100.2,689.9 101,692.3 103.6,692.3 				"/>
			</g>
			<g>
				<ellipse class="st1" cx="102.3" cy="684.7" rx="5" ry="5.1"/>
			</g>
			<g>
				
					<ellipse transform="matrix(0.9805 -0.1965 0.1965 0.9805 -131.1918 32.0777)" class="st3" cx="96.1" cy="677.2" rx="1.3" ry="2.1"/>
			</g>
			<g>
				
					<ellipse transform="matrix(0.1966 -0.9805 0.9805 0.1966 -576.7815 650.5477)" class="st3" cx="108.6" cy="677.2" rx="2.1" ry="1.3"/>
			</g>
			<g>
				<path class="st3" d="M108.8,677.7c0,4.7-3.4,8.5-6.5,8.5s-6.5-3.8-6.5-8.5c0-4.7,3.4-8.5,6.5-8.5S108.8,673,108.8,677.7z"/>
			</g>
			<g>
				<path class="st8" d="M108.8,677.4c0.2-0.5,0.5-1,0.6-1.5c1.9-5.5-0.3-8.3-3.2-8.4l0,0c-1-1.6-2.8-2.6-4.9-2.5
					c-3.7,0.2-7,3-6.8,7.3c0.1,1.8,0.5,3.6,1.2,5.1c0,0,0-3.6,1.8-3.9c1.9-0.3,6.9,0.3,8-2.3C105.6,671.2,108.8,672.8,108.8,677.4z"
					/>
			</g>
			<g>
				<path class="st9" d="M98.4,700.8c-1.9-7-2-12.5-2-15.1l-9.9,4.8l-2.9,10.4H98.4z"/>
			</g>
			<g>
				<path class="st9" d="M121,700.8l-2.9-10.4l-9.9-4.8c0,2.6-0.2,8.2-2,15.1H121z"/>
			</g>
			<g>
				<polygon class="st9" points="104.6,700.8 103.6,692.3 101,692.3 100,700.8 				"/>
			</g>
			<g>
				<path class="st12" d="M97.4,683.7c0,0-0.6,3.5,4.9,6.2c0,0-4.1,0.3-5.3,4.2C96.9,694.2,94.7,685.7,97.4,683.7z"/>
			</g>
			<g>
				<path class="st12" d="M107.2,683.7c0,0,0.6,3.5-4.9,6.2c0,0,4.1,0.3,5.3,4.2C107.7,694.2,109.9,685.7,107.2,683.7z"/>
			</g>
		</g>
		<g>
			<g>
				<polygon class="st11" points="153.6,700.8 153.6,687.1 145.8,682.8 137.9,687.1 137.9,700.8 				"/>
			</g>
			<g>
				<polygon class="st7" points="147.9,689.9 143.6,689.9 144.5,692.3 147,692.3 				"/>
			</g>
			<g>
				<ellipse class="st1" cx="145.8" cy="684.7" rx="5" ry="5.1"/>
			</g>
			<g>
				
					<ellipse transform="matrix(0.9805 -0.1964 0.1964 0.9805 -130.2908 40.5921)" class="st3" cx="139.5" cy="677.2" rx="1.3" ry="2.1"/>
			</g>
			<g>
				
					<ellipse transform="matrix(0.1966 -0.9805 0.9805 0.1966 -541.8726 693.1501)" class="st3" cx="152" cy="677.2" rx="2.1" ry="1.3"/>
			</g>
			<g>
				<path class="st3" d="M152.2,677.7c0,4.7-3.4,8.5-6.5,8.5c-3.1,0-6.5-3.8-6.5-8.5c0-4.7,3.4-8.5,6.5-8.5
					C148.9,669.2,152.2,673,152.2,677.7z"/>
			</g>
			<g>
				<path class="st8" d="M152.2,677.4c0.2-0.5,0.5-1,0.6-1.5c1.9-5.5-0.3-8.3-3.2-8.4l0,0c-1-1.6-2.8-2.6-4.9-2.5
					c-3.7,0.2-7,3-6.8,7.3c0.1,1.8,0.5,3.6,1.2,5.1c0,0,0-3.6,1.8-3.9c1.9-0.3,6.9,0.3,8-2.3C149.1,671.2,152.3,672.8,152.2,677.4z"
					/>
			</g>
			<g>
				<path class="st9" d="M141.9,700.8c-1.9-7-2-12.5-2-15.1l-9.9,4.8l-2.9,10.4H141.9z"/>
			</g>
			<g>
				<path class="st9" d="M164.5,700.8l-2.9-10.4l-9.9-4.8c0,2.6-0.2,8.2-2,15.1H164.5z"/>
			</g>
			<g>
				<polygon class="st9" points="148,700.8 147,692.3 144.4,692.3 143.5,700.8 				"/>
			</g>
			<g>
				<path class="st12" d="M140.9,683.7c0,0-0.6,3.5,4.9,6.2c0,0-4.1,0.3-5.3,4.2C140.4,694.2,138.1,685.7,140.9,683.7z"/>
			</g>
			<g>
				<path class="st12" d="M150.7,683.7c0,0,0.6,3.5-4.9,6.2c0,0,4.1,0.3,5.3,4.2C151.1,694.2,153.4,685.7,150.7,683.7z"/>
			</g>
		</g>
	</g>
	<g>
		<g>
			<polygon class="st11" points="135.2,712.8 135.2,693.1 124.1,687 112.8,693.2 112.8,712.8 			"/>
		</g>
		<g>
			<polygon class="st7" points="127.1,697.1 120.9,697.1 122.2,700.6 125.9,700.6 			"/>
		</g>
		<g>
			<ellipse class="st1" cx="124" cy="689.8" rx="7.2" ry="7.3"/>
		</g>
		<g>
			
				<ellipse transform="matrix(0.9805 -0.1965 0.1965 0.9805 -131.2117 35.8641)" class="st3" cx="115.1" cy="679" rx="1.9" ry="3.1"/>
		</g>
		<g>
			
				<ellipse transform="matrix(0.1967 -0.9805 0.9805 0.1967 -558.8936 675.8638)" class="st3" cx="133" cy="679" rx="3.1" ry="1.9"/>
		</g>
		<g>
			<path class="st3" d="M133.3,679.7c0,6.7-4.8,12.2-9.3,12.2c-4.5,0-9.3-5.5-9.3-12.2c0-6.7,4.8-12.2,9.3-12.2
				C128.5,667.5,133.3,673,133.3,679.7z"/>
		</g>
		<g>
			<path class="st8" d="M133.3,679.3c0.3-0.7,0.7-1.4,0.9-2.2c2.7-7.9-0.5-11.9-4.5-12.1l0,0c-1.4-2.4-4-3.7-7.1-3.6
				c-5.3,0.2-10,4.3-9.7,10.5c0.1,2.6,0.7,5.2,1.8,7.4c0,0-0.1-5.2,2.6-5.6c2.7-0.4,9.9,0.4,11.5-3.4
				C128.8,670.4,133.4,672.7,133.3,679.3z"/>
		</g>
		<g>
			<path class="st9" d="M118.4,712.8c-2.7-10-2.9-18-2.9-21.7l-14.2,6.9l-4.1,14.8H118.4z"/>
		</g>
		<g>
			<path class="st9" d="M150.8,712.8l-4.1-14.8l-14.2-6.9c0,3.7-0.2,11.7-2.9,21.7H150.8z"/>
		</g>
		<g>
			<polygon class="st9" points="127.3,712.8 125.9,700.6 122.1,700.6 120.8,712.8 			"/>
		</g>
		<g>
			<path class="st12" d="M117,688.3c0,0-0.9,5,7,8.8c0,0-5.9,0.5-7.6,6C116.3,703.3,113.1,691.2,117,688.3z"/>
		</g>
		<g>
			<path class="st12" d="M131.1,688.3c0,0,0.9,5-7,8.8c0,0,5.9,0.5,7.6,6C131.7,703.3,134.9,691.2,131.1,688.3z"/>
		</g>
	</g>
</g>
<g id="user_group1">
	<g id="female_user_17_">
		<g>
			<g>
				<path class="st2" d="M451.8,548c-5.2-3.6-12.5,0.6-13.2,10.2l0,0c-0.2,2.8,0.1,5.7,0.8,7.8c0,0,0,0.1,0,0.1
					c0.1,0.4,0.3,0.8,0.5,1.1c0.3,0.6,0.6,1.1,1,1.4c0.2,0.2,0.3,0.3,0.6,0.4c0.4,0.2,1,0.4,1.7,0.4h10c0.7,0,1.2-0.1,1.6-0.3
					c0.2-0.1,0.4-0.3,0.6-0.4c0.4-0.4,0.7-0.9,1-1.4c0.2-0.3,0.3-0.7,0.5-1.1c0,0,0-0.1,0-0.1c0.2-0.7,0.4-1.5,0.6-2.4
					C459.1,554.5,456.9,548.3,451.8,548z"/>
			</g>
			<g>
				<g>
					<path class="st1" d="M448.3,556.7c2,0,3.7,6.4,3.7,11.1s-1.6,8.4-3.6,8.4c-2,0-3.6-3.8-3.6-8.4S446.3,556.7,448.3,556.7z"/>
				</g>
				<g>
					<polygon class="st1" points="443,570.1 444.8,569.3 451.9,569.3 453.7,570.1 451.9,580.8 443.7,580.8 					"/>
				</g>
				<g>
					<g>
						<g>
							
								<ellipse transform="matrix(0.9804 -0.197 0.197 0.9804 -101.6942 98.1295)" class="st3" cx="442.4" cy="560.2" rx="1.4" ry="2.2"/>
						</g>
						<g>
							
								<ellipse transform="matrix(0.197 -0.9804 0.9804 0.197 -184.3483 895.3381)" class="st3" cx="454.4" cy="560.2" rx="2.2" ry="1.4"/>
						</g>
					</g>
					<g>
						<path class="st3" d="M448.3,569.5c-3.2,0-6.7-3.9-6.7-8.7c0-0.8,0.1-1.6,0.3-2.4c0.3-0.9,1.5-2,1.6-2.9
							c0.6-3.7,2.8-7.8,8.2-1.4c0,0,1.3,0.6,2.2,2.2c0.6,1.3,1,2.8,1,4.4C455,565.5,451.6,569.5,448.3,569.5z"/>
					</g>
				</g>
				<g>
					<path class="st2" d="M454.2,558c0,0-0.6-0.1-1.3-0.2h0l-0.3-1.4l-0.3,1.3c-0.3,0-0.7-0.1-1.1-0.1l-0.6-3.3l-0.4,3.2
						c-0.6-0.1-1.5-0.1-1.9-0.1c0,0,0,0,0,0l-0.2-1.9l-0.4,1.9c-0.8,0-2,0.2-3,0.3l-0.2-3.2l-0.4,3.3c-1,0.1-1.7,0.2-1.7,0.2
						s-0.9-8.5,5.9-7.4C448.3,550.7,455.3,549.9,454.2,558z"/>
				</g>
				<g>
					<path class="st13" d="M462.3,575.7c-1.6-4-9.3-5.9-9.3-5.9h0c-0.2,2.7-2.2,4.8-4.6,4.8c-2.4,0-4.4-2.1-4.6-4.8h0
						c0,0-7.9,2-9.4,6c-1.3,3.3-2.5,7.9-2.9,9.5h33.8C464.8,583.7,463.6,579,462.3,575.7z"/>
				</g>
			</g>
		</g>
		<g>
			<g>
				<path class="st2" d="M403.8,548.1c-4.9-3.8-11.8,0.6-12.4,11l0,0c-0.2,3,0.1,6.1,0.7,8.5c0,0,0,0.1,0,0.1
					c0.1,0.4,0.3,0.8,0.4,1.2c0.3,0.6,0.6,1.2,0.9,1.6c0.2,0.2,0.3,0.3,0.5,0.4c0.4,0.3,0.9,0.4,1.6,0.4h9.4c0.6,0,1.1-0.1,1.5-0.4
					c0.2-0.1,0.4-0.3,0.6-0.5c0.4-0.4,0.7-0.9,0.9-1.6c0.2-0.4,0.3-0.8,0.4-1.2c0,0,0-0.1,0-0.1c0.2-0.8,0.4-1.7,0.5-2.6
					C410.6,555.1,408.5,548.5,403.8,548.1z"/>
			</g>
			<g>
				<path class="st1" d="M400.5,556.8c2,0,3.7,6.4,3.7,11c0,4.6-1.6,8.4-3.6,8.4c-2,0-3.6-3.8-3.6-8.4
					C396.9,563.2,398.5,556.8,400.5,556.8z"/>
			</g>
			<g>
				<polygon class="st1" points="395.1,570.1 397,569.3 404.1,569.3 405.9,570.1 404.1,580.8 395.9,580.8 				"/>
			</g>
			<g>
				<g>
					<g>
						
							<ellipse transform="matrix(0.9805 -0.1964 0.1964 0.9805 -102.3582 88.4115)" class="st3" cx="394.5" cy="560.2" rx="1.4" ry="2.2"/>
					</g>
					<g>
						
							<ellipse transform="matrix(0.1962 -0.9806 0.9806 0.1962 -222.5754 848.9534)" class="st3" cx="406.6" cy="560.2" rx="2.2" ry="1.4"/>
					</g>
				</g>
				<g>
					<path class="st3" d="M400.5,569.5c-3.2,0-6.7-3.9-6.7-8.7c0-0.8,0.1-1.6,0.3-2.4c0.3-0.9,1.5-2,1.6-2.9
						c0.6-3.7,2.7-7.8,8.2-1.4c0,0,1.3,0.6,2.2,2.2c0.6,1.3,1,2.8,1,4.4C407.2,565.6,403.7,569.5,400.5,569.5z"/>
				</g>
			</g>
			<g>
				<g>
					<g>
						<path class="st14" d="M400.5,574c-2.5,0-4.7-1.2-5.9-3h-1v12.5h12.9V571h-0.2C405.2,572.8,403,574,400.5,574z"/>
					</g>
				</g>
				<g>
					<path class="st15" d="M417.5,585.2c-0.4-1.6-1.6-6.2-2.9-9.5c-1.6-4-8.7-5.6-8.7-5.6s-1.3,6.4-5.4,11.8
						c-4.1-5.4-5.4-11.8-5.4-11.8s-7.2,1.6-8.7,5.6c-1.3,3.3-2.5,8-2.9,9.5H417.5z"/>
				</g>
			</g>
			<g>
				<path class="st4" d="M406.5,559.8c1.9-6.2-3.6-9.8-7-9.8c-3.8,0-7,5.9-6.3,9.9c2-0.9,3.8-2.8,8.3-5.8c-0.6,0.9-1.9,2.5-6.2,5.4
					c2.3,0.3,6.6-1.9,8.9-4.2C404.7,556.9,405.5,558.7,406.5,559.8z"/>
			</g>
		</g>
	</g>
	<g>
		<g>
			<path class="st16" d="M448.4,583.2c-0.8-6.6-5.6-8-5.6-8l-11.4-4c-2.6,2.4-7.1,1.9-7.1,1.9s-4.5,0.5-7.1-1.9l-11.4,4
				c0,0-4.8,1.3-5.5,8l-2.9,13.3h27h27L448.4,583.2z"/>
		</g>
		<g>
			<g>
				<ellipse class="st1" cx="424.3" cy="572.7" rx="7.3" ry="7.4"/>
			</g>
			<g>
				<g>
					<g>
						
							<ellipse transform="matrix(0.9804 -0.197 0.197 0.9804 -102.5212 92.8054)" class="st3" cx="415.3" cy="561.8" rx="1.9" ry="3.1"/>
					</g>
					<g>
						
							<ellipse transform="matrix(0.1969 -0.9804 0.9804 0.1969 -202.7698 876.0369)" class="st3" cx="433.3" cy="561.8" rx="3.1" ry="1.9"/>
					</g>
				</g>
				<g>
					<g>
						<path class="st3" d="M433.6,562.5c0,6.8-4.9,12.3-9.4,12.3c-4.5,0-9.4-5.5-9.4-12.3c0-6.8,4.9-12.3,9.4-12.3
							C428.8,550.2,433.6,555.7,433.6,562.5z"/>
					</g>
					<g>
						<path class="st8" d="M433.6,562.1c0.4-0.7,0.7-1.4,0.9-2.2c2.8-8-0.5-12-4.6-12.2l0,0c-1.5-2.4-4-3.7-7.1-3.6
							c-5.3,0.2-10.1,4.3-9.8,10.6c0.1,2.6,0.7,5.2,1.8,7.4c0,0-0.1-5.3,2.7-5.6c2.7-0.4,10,0.4,11.6-3.4
							C429.1,553.2,433.7,555.4,433.6,562.1z"/>
					</g>
				</g>
			</g>
		</g>
	</g>
</g>
<g id="user_group_1_">
	<g>
		<g id="user_male_29_">
			<g>
				<path class="st9" d="M271.4,575.4c-0.6-4.9-4.1-5.8-4.1-5.8l-8.4-2.9c-1.9,1.8-5.3,1.4-5.3,1.4s-3.3,0.4-5.3-1.4l-8.4,2.9
					c0,0-3.5,1-4.1,5.8l-2.1,9.7h19.8h19.9L271.4,575.4z"/>
			</g>
			<g>
				<ellipse class="st1" cx="253.7" cy="567.8" rx="5.4" ry="5.4"/>
			</g>
			<g>
				<path class="st14" d="M248.5,566.7c0,0-0.7,3.7,5.2,6.6c0,0-4.4,0.3-5.7,4.4C248,577.9,245.6,568.9,248.5,566.7z"/>
			</g>
			<g>
				<path class="st14" d="M258.9,566.7c0,0,0.7,3.7-5.2,6.6c0,0,4.4,0.3,5.7,4.4C259.4,577.9,261.8,568.9,258.9,566.7z"/>
			</g>
			<g>
				<g>
					<g>
						
							<ellipse transform="matrix(0.9804 -0.1971 0.1971 0.9804 -105.4817 59.6675)" class="st3" cx="247" cy="559.8" rx="1.4" ry="2.3"/>
					</g>
					<g>
						
							<ellipse transform="matrix(0.1971 -0.9804 0.9804 0.1971 -339.771 704.6908)" class="st3" cx="260.4" cy="559.8" rx="2.3" ry="1.4"/>
					</g>
				</g>
				<g>
					<g>
						<path class="st3" d="M260.6,560.3c0,5-3.6,9.1-6.9,9.1c-3.4,0-6.9-4.1-6.9-9.1s3.6-9.1,6.9-9.1
							C257,551.3,260.6,555.3,260.6,560.3z"/>
					</g>
					<g>
						<path class="st8" d="M260.6,560c0.3-0.5,0.5-1,0.7-1.6c2-5.9-0.4-8.9-3.4-9l0,0c-1.1-1.8-2.9-2.7-5.3-2.6
							c-3.9,0.2-7.4,3.2-7.2,7.8c0.1,1.9,0.5,3.8,1.3,5.5c0,0,0-3.9,2-4.2c2-0.3,7.3,0.3,8.5-2.5C257.2,553.4,260.6,555.1,260.6,560
							z"/>
					</g>
				</g>
			</g>
		</g>
		<g>
			<g>
				<path class="st17" d="M302.2,548.4c-4.8-3.8-11.7,0.6-12.3,10.9l0,0c-0.2,3,0.1,6.1,0.7,8.4c0,0,0,0.1,0,0.1
					c0.1,0.4,0.3,0.8,0.4,1.2c0.3,0.6,0.6,1.2,0.9,1.5c0.2,0.2,0.3,0.3,0.5,0.4c0.4,0.3,0.9,0.4,1.6,0.4h9.3c0.6,0,1.1-0.1,1.5-0.4
					c0.2-0.1,0.4-0.3,0.6-0.5c0.4-0.4,0.6-0.9,0.9-1.5c0.2-0.4,0.3-0.8,0.4-1.2c0,0,0-0.1,0-0.1c0.2-0.8,0.4-1.7,0.5-2.6
					C309,555.4,306.9,548.8,302.2,548.4z"/>
			</g>
			<g>
				<path class="st1" d="M298.9,557c2,0,3.6,6.3,3.6,10.9c0,4.6-1.6,8.3-3.6,8.3c-2,0-3.6-3.7-3.6-8.3
					C295.4,563.3,297,557,298.9,557z"/>
			</g>
			<g>
				<polygon class="st1" points="293.6,570.2 295.5,569.5 302.5,569.5 304.2,570.2 302.5,580.8 294.3,580.8 				"/>
			</g>
			<g>
				<g>
					<g>
						
							<ellipse transform="matrix(0.9805 -0.1966 0.1966 0.9805 -104.4831 68.565)" class="st3" cx="293" cy="560.5" rx="1.4" ry="2.2"/>
					</g>
					<g>
						
							<ellipse transform="matrix(0.1965 -0.9805 0.9805 0.1965 -304.506 749.3393)" class="st3" cx="304.9" cy="560.5" rx="2.2" ry="1.4"/>
					</g>
				</g>
				<g>
					<path class="st3" d="M298.9,569.6c-3.2,0-6.6-3.9-6.6-8.6c0-0.8,0.1-1.6,0.3-2.4c0.3-0.9,1.4-2,1.6-2.8
						c0.6-3.7,2.7-7.8,8.1-1.4c0,0,1.2,0.6,2.2,2.2c0.6,1.3,1,2.8,1,4.4C305.5,565.7,302.1,569.6,298.9,569.6z"/>
				</g>
			</g>
			<g>
				<g>
					<g>
						<path class="st14" d="M298.9,574c-2.5,0-4.6-1.2-5.8-2.9h-1v12.3H305v-12.3h-0.2C303.5,572.8,301.4,574,298.9,574z"/>
					</g>
				</g>
				<g>
					<path class="st9" d="M315.8,585.2c-0.4-1.5-1.6-6.2-2.9-9.4c-1.6-3.9-8.6-5.5-8.6-5.5s-1.3,6.3-5.3,11.7
						c-4-5.4-5.3-11.7-5.3-11.7s-7.1,1.6-8.6,5.5c-1.3,3.2-2.5,7.9-2.9,9.4H315.8z"/>
				</g>
			</g>
			<g>
				<path class="st18" d="M304.8,560c1.9-6.2-3.6-9.7-6.9-9.7c-3.8,0-6.9,5.9-6.2,9.8c2-0.9,3.8-2.7,8.2-5.7
					c-0.6,0.9-1.9,2.4-6.1,5.3c2.3,0.3,6.5-1.9,8.8-4.2C303.1,557.2,303.8,558.9,304.8,560z"/>
			</g>
		</g>
	</g>
	<g id="female_user_13_">
		<g>
			<g>
				<path class="st2" d="M279.5,546.9c-6.8-4.7-16.6,0.7-17.5,13.5l0,0c-0.3,3.7,0.2,7.6,1.1,10.4c0,0.1,0,0.1,0,0.2
					c0.2,0.5,0.4,1,0.6,1.5c0.4,0.8,0.8,1.4,1.3,1.9c0.2,0.2,0.5,0.4,0.7,0.5c0.6,0.3,1.3,0.5,2.2,0.5h13.3c0.9,0,1.6-0.2,2.2-0.5
					c0.3-0.2,0.6-0.3,0.8-0.6c0.5-0.5,0.9-1.1,1.3-1.9c0.2-0.5,0.4-1,0.6-1.5c0-0.1,0-0.1,0-0.2c0.3-1,0.6-2.1,0.8-3.2
					C289.2,555.5,286.2,547.3,279.5,546.9z"/>
			</g>
			<g>
				<g>
					<path class="st1" d="M274.9,558.5c2.6,0,4.9,8.5,4.9,14.6c0,6.2-2.1,11.2-4.8,11.2c-2.6,0-4.8-5-4.8-11.2
						C270.1,567,272.2,558.5,274.9,558.5z"/>
				</g>
				<g>
					<polygon class="st1" points="267.7,576.2 270.2,575.2 279.6,575.2 282,576.2 279.6,590.4 268.7,590.4 					"/>
				</g>
				<g>
					<g>
						<g>
							
								<ellipse transform="matrix(0.9803 -0.1976 0.1976 0.9803 -106.0035 63.8526)" class="st3" cx="267" cy="563.1" rx="1.8" ry="2.9"/>
						</g>
						<g>
							
								<ellipse transform="matrix(0.1975 -0.9803 0.9803 0.1975 -324.9828 729.252)" class="st3" cx="282.9" cy="563.1" rx="2.9" ry="1.8"/>
						</g>
					</g>
					<g>
						<path class="st3" d="M274.9,575.4c-4.3,0-8.9-5.2-8.9-11.6c0-1.1,0.1-2.2,0.4-3.2c0.3-1.2,1.9-2.6,2.1-3.8
							c0.8-4.9,3.6-10.4,10.9-1.8c0,0,1.7,0.8,2.9,2.9c0.8,1.7,1.4,3.7,1.4,5.9C283.7,570.2,279.1,575.4,274.9,575.4z"/>
					</g>
				</g>
				<g>
					<path class="st2" d="M282.6,560.2c0,0-0.7-0.1-1.8-0.2h0l-0.4-1.8l-0.4,1.7c-0.5-0.1-0.9-0.1-1.4-0.2l-0.8-4.4l-0.5,4.3
						c-0.8-0.1-2-0.2-2.5-0.2c0,0,0,0,0,0l-0.3-2.5l-0.5,2.5c-1.1,0.1-2.6,0.2-3.9,0.4l-0.3-4.3l-0.5,4.4c-1.3,0.2-2.2,0.3-2.2,0.3
						s-1.2-11.3,7.8-9.8C274.9,550.4,284.1,549.5,282.6,560.2z"/>
				</g>
				<g>
					<path class="st16" d="M293.4,583.7c-2.1-5.3-12.3-7.9-12.3-7.9h0c-0.3,3.5-2.9,6.3-6.2,6.3c-3.2,0-5.9-2.8-6.2-6.3h0
						c0,0-10.4,2.6-12.5,7.9c-1.7,4.3-3.3,10.5-3.9,12.6h44.8C296.7,594.2,295.1,588,293.4,583.7z"/>
				</g>
			</g>
		</g>
	</g>
</g>
<g id="user_male_group1">
	<g>
		<g id="user_male_25_">
			<g>
				<path class="st16" d="M119.1,575.8c-0.6-4.6-3.9-5.6-3.9-5.6l-7.9-2.8c-1.8,1.7-5,1.3-5,1.3s-3.1,0.4-5-1.3l-7.9,2.8
					c0,0-3.3,0.9-3.9,5.6l-2,9.3h18.8h18.8L119.1,575.8z"/>
			</g>
			<g>
				<g>
					<ellipse class="st1" cx="102.3" cy="568.4" rx="5.1" ry="5.2"/>
				</g>
				<g>
					<g>
						<g>
							
								<ellipse transform="matrix(0.9804 -0.1971 0.1971 0.9804 -108.6659 29.9288)" class="st3" cx="96" cy="560.8" rx="1.3" ry="2.1"/>
						</g>
						<g>
							
								<ellipse transform="matrix(0.197 -0.9804 0.9804 0.197 -462.6213 556.8627)" class="st3" cx="108.6" cy="560.8" rx="2.1" ry="1.3"/>
						</g>
					</g>
					<g>
						<g>
							<path class="st3" d="M108.8,561.3c0,4.7-3.4,8.6-6.6,8.6c-3.2,0-6.6-3.8-6.6-8.6c0-4.7,3.4-8.6,6.6-8.6
								C105.4,552.8,108.8,556.6,108.8,561.3z"/>
						</g>
						<g>
							<path class="st8" d="M108.8,561.1c0.2-0.5,0.5-1,0.6-1.5c1.9-5.6-0.3-8.4-3.2-8.5l0,0c-1-1.7-2.8-2.6-5-2.5
								c-3.7,0.2-7.1,3-6.8,7.4c0.1,1.8,0.5,3.6,1.2,5.2c0,0,0-3.7,1.9-3.9c1.9-0.3,7,0.3,8.1-2.4
								C105.6,554.8,108.9,556.4,108.8,561.1z"/>
						</g>
					</g>
				</g>
			</g>
		</g>
		<g id="user_male_26_">
			<g>
				<path class="st16" d="M162.6,575.8c-0.6-4.6-3.9-5.6-3.9-5.6l-7.9-2.8c-1.8,1.7-5,1.3-5,1.3s-3.1,0.4-5-1.3l-7.9,2.8
					c0,0-3.3,0.9-3.9,5.6l-2,9.3h18.8h18.8L162.6,575.8z"/>
			</g>
			<g>
				<g>
					<ellipse class="st1" cx="145.8" cy="568.4" rx="5.1" ry="5.2"/>
				</g>
				<g>
					<g>
						<g>
							
								<ellipse transform="matrix(0.9804 -0.1971 0.1971 0.9804 -107.8132 38.4934)" class="st3" cx="139.5" cy="560.8" rx="1.3" ry="2.1"/>
						</g>
						<g>
							
								<ellipse transform="matrix(0.197 -0.9804 0.9804 0.197 -427.7321 599.4343)" class="st3" cx="152.1" cy="560.8" rx="2.1" ry="1.3"/>
						</g>
					</g>
					<g>
						<g>
							<path class="st3" d="M152.3,561.3c0,4.7-3.4,8.6-6.6,8.6c-3.2,0-6.6-3.8-6.6-8.6c0-4.7,3.4-8.6,6.6-8.6
								C148.9,552.8,152.3,556.6,152.3,561.3z"/>
						</g>
						<g>
							<path class="st8" d="M152.3,561.1c0.2-0.5,0.5-1,0.6-1.5c1.9-5.6-0.3-8.4-3.2-8.5l0,0c-1-1.7-2.8-2.6-5-2.5
								c-3.7,0.2-7.1,3-6.8,7.4c0.1,1.8,0.5,3.6,1.2,5.2c0,0,0-3.7,1.9-3.9c1.9-0.3,7,0.3,8.1-2.4
								C149.1,554.8,152.3,556.4,152.3,561.1z"/>
						</g>
					</g>
				</g>
			</g>
		</g>
	</g>
	<g>
		<g>
			<path class="st16" d="M148.1,583.4c-0.8-6.6-5.6-8-5.6-8l-11.4-4c-2.6,2.4-7.1,1.9-7.1,1.9s-4.5,0.5-7.1-1.9l-11.4,4
				c0,0-4.8,1.3-5.5,8l-2.9,13.3h27h27L148.1,583.4z"/>
		</g>
		<g>
			<g>
				<ellipse class="st1" cx="124" cy="572.9" rx="7.3" ry="7.4"/>
			</g>
			<g>
				<g>
					<g>
						
							<ellipse transform="matrix(0.9804 -0.1972 0.1972 0.9804 -108.5906 33.7166)" class="st3" cx="115" cy="562" rx="1.9" ry="3.1"/>
					</g>
					<g>
						
							<ellipse transform="matrix(0.1972 -0.9804 0.9804 0.1972 -444.1937 581.6216)" class="st3" cx="133" cy="562" rx="3.1" ry="1.9"/>
					</g>
				</g>
				<g>
					<g>
						<path class="st3" d="M133.3,562.8c0,6.8-4.9,12.3-9.4,12.3c-4.5,0-9.4-5.5-9.4-12.3c0-6.8,4.9-12.3,9.4-12.3
							C128.5,550.5,133.3,556,133.3,562.8z"/>
					</g>
					<g>
						<path class="st8" d="M133.3,562.3c0.4-0.7,0.7-1.4,0.9-2.2c2.8-8-0.5-12-4.6-12.2l0,0c-1.5-2.4-4-3.7-7.1-3.6
							c-5.3,0.2-10.1,4.3-9.8,10.6c0.1,2.6,0.7,5.2,1.8,7.4c0,0-0.1-5.3,2.7-5.6c2.7-0.4,10,0.4,11.6-3.4
							C128.8,553.4,133.4,555.7,133.3,562.3z"/>
					</g>
				</g>
			</g>
		</g>
	</g>
</g>
<g id="user_male_and_female">
	<g>
		<g>
			<path class="st2" d="M443.4,434.4c-6-4.7-14.5,0.7-15.3,13.5l0.1,0c-0.3,3.7,0.1,7.5,0.9,10.4c0,0.1,0,0.1,0,0.2
				c0.2,0.5,0.3,1,0.5,1.5c0.3,0.8,0.7,1.4,1.1,1.9c0.2,0.2,0.4,0.4,0.6,0.5c0.5,0.3,1.1,0.5,2,0.5H445c0.8,0,1.4-0.2,1.9-0.5
				c0.3-0.2,0.5-0.3,0.7-0.6c0.5-0.5,0.8-1.1,1.1-1.9c0.2-0.5,0.4-1,0.5-1.5c0-0.1,0-0.1,0-0.2c0.3-1,0.5-2.1,0.7-3.2
				C451.9,443,449.3,434.8,443.4,434.4z"/>
		</g>
		<g>
			<path class="st1" d="M439.4,445c2.5,0,4.5,7.9,4.5,13.6c0,5.7-2,10.3-4.4,10.3c-2.5,0-4.4-4.6-4.4-10.3
				C435,452.9,436.9,445,439.4,445z"/>
		</g>
		<g>
			<polygon class="st1" points="432.8,461.4 435.1,460.5 443.8,460.5 446,461.4 443.8,474.6 433.7,474.6 			"/>
		</g>
		<g>
			<g>
				<g>
					
						<ellipse transform="matrix(0.9804 -0.1972 0.1972 0.9804 -80.1024 94.0138)" class="st3" cx="432.1" cy="449.3" rx="1.7" ry="2.7"/>
				</g>
				<g>
					
						<ellipse transform="matrix(0.1971 -0.9804 0.9804 0.1971 -81.686 798.8217)" class="st3" cx="446.9" cy="449.3" rx="2.7" ry="1.7"/>
				</g>
			</g>
			<g>
				<path class="st3" d="M439.4,460.6c-4,0-8.2-4.8-8.2-10.7c0-1,0.1-2,0.4-3c0.3-1.1,1.8-2.4,2-3.5c0.7-4.6,3.4-9.6,10.1-1.7
					c0,0,1.6,0.8,2.7,2.7c0.8,1.6,1.3,3.5,1.3,5.4C447.6,455.8,443.4,460.6,439.4,460.6z"/>
			</g>
		</g>
		<g>
			<g>
				<g>
					<path class="st14" d="M439.4,466.1c-3.1,0-5.7-1.5-7.2-3.6H431v15.3h15.9v-15.3h-0.3C445.1,464.7,442.5,466.1,439.4,466.1z"/>
				</g>
			</g>
			<g>
				<path class="st15" d="M460.3,480c-0.5-1.9-2-7.7-3.6-11.7c-1.9-4.9-10.7-6.9-10.7-6.9s-1.6,7.8-6.6,14.5
					c-5-6.7-6.6-14.5-6.6-14.5s-8.8,2-10.7,6.9c-1.6,4-3.1,9.8-3.6,11.7H460.3z"/>
			</g>
		</g>
		<g>
			<path class="st4" d="M446.7,448.7c2.4-7.7-4.5-12.1-8.6-12.1c-4.7,0-8.6,7.3-7.8,12.2c2.5-1.1,4.7-3.4,10.2-7.1
				c-0.8,1.1-2.3,3-7.6,6.6c2.8,0.4,8.1-2.3,11-5.2C444.5,445.2,445.5,447.4,446.7,448.7z"/>
		</g>
	</g>
	<g id="user_male_27_">
		<g>
			<g>
				<path class="st15" d="M439.7,466.6c-0.8-6.7-5.6-8-5.6-8l-11.5-4c-2.7,2.4-7.2,1.9-7.2,1.9s-4.3,0.5-6.9-1.9l-11.5,4
					c0,0-4.8,1.3-5.6,8l-2.9,13.4h27h27.3L439.7,466.6z"/>
			</g>
			<g>
				<g>
					<path class="st14" d="M408.4,454.6c0,0-0.9,5,7.1,8.9c0,0-6,0.5-7.7,6C407.7,469.8,404.4,457.6,408.4,454.6z"/>
				</g>
				<g>
					<path class="st14" d="M422.6,454.6c0,0,0.9,5-7.1,8.9c0,0,6,0.5,7.7,6C423.3,469.8,426.5,457.6,422.6,454.6z"/>
				</g>
			</g>
		</g>
		<g>
			<g>
				<ellipse class="st1" cx="415.5" cy="456.1" rx="7.3" ry="7.4"/>
			</g>
			<g>
				<g>
					<g>
						
							<ellipse transform="matrix(0.9804 -0.1971 0.1971 0.9804 -79.7852 88.844)" class="st3" cx="406.4" cy="445.2" rx="1.9" ry="3.1"/>
					</g>
					<g>
						
							<ellipse transform="matrix(0.1971 -0.9804 0.9804 0.1971 -95.6537 773.675)" class="st3" cx="424.5" cy="445.2" rx="3.1" ry="1.9"/>
					</g>
				</g>
				<g>
					<g>
						<path class="st3" d="M424.8,446c0,6.8-4.9,12.3-9.4,12.3c-4.6,0-9.4-5.5-9.4-12.3c0-6.8,4.9-12.3,9.4-12.3
							C420,433.6,424.8,439.2,424.8,446z"/>
					</g>
					<g>
						<path class="st8" d="M424.8,445.6c0.4-0.7,0.7-1.4,0.9-2.2c2.8-8-0.5-12.1-4.6-12.2l0,0c-1.5-2.4-4-3.7-7.1-3.6
							c-5.3,0.2-10.1,4.3-9.8,10.6c0.1,2.6,0.7,5.2,1.8,7.5c0,0-0.1-5.3,2.7-5.7c2.7-0.4,10,0.4,11.6-3.4
							C420.3,436.6,424.9,438.9,424.8,445.6z"/>
					</g>
				</g>
			</g>
		</g>
	</g>
</g>
<g id="user_female_group">
	<g>
		<g>
			<g>
				<path class="st2" d="M252.9,436.3c-4.2-3.4-10.3,0.5-10.8,9.6l0,0c-0.2,2.6,0.1,5.4,0.6,7.4c0,0,0,0.1,0,0.1
					c0.1,0.4,0.2,0.7,0.4,1.1c0.2,0.6,0.5,1,0.8,1.4c0.1,0.1,0.3,0.3,0.5,0.4c0.4,0.2,0.8,0.4,1.4,0.4h8.2c0.6,0,1-0.1,1.3-0.3
					c0.2-0.1,0.4-0.2,0.5-0.4c0.3-0.3,0.6-0.8,0.8-1.4c0.1-0.3,0.3-0.7,0.4-1.1c0,0,0-0.1,0-0.1c0.2-0.7,0.4-1.5,0.5-2.3
					C259,442.4,257.1,436.6,252.9,436.3z"/>
			</g>
			<g>
				<path class="st1" d="M250.1,443.9c1.7,0,3.2,5.6,3.2,9.6c0,4.1-1.4,7.3-3.2,7.3c-1.7,0-3.2-3.3-3.2-7.3
					C247,449.5,248.4,443.9,250.1,443.9z"/>
			</g>
			<g>
				<polygon class="st1" points="245.4,455.5 247,454.9 253.2,454.9 254.8,455.5 253.2,464.9 246,464.9 				"/>
			</g>
			<g>
				<g>
					<g>
						
							<ellipse transform="matrix(0.9805 -0.1965 0.1965 0.9805 -83.0515 56.8415)" class="st3" cx="244.9" cy="446.9" rx="1.2" ry="1.9"/>
					</g>
					<g>
						
							<ellipse transform="matrix(0.1964 -0.9805 0.9805 0.1964 -232.9859 609.5449)" class="st3" cx="255.4" cy="446.9" rx="1.9" ry="1.2"/>
					</g>
				</g>
				<g>
					<path class="st3" d="M250.1,455c-2.8,0-5.8-3.4-5.8-7.6c0-0.7,0.1-1.4,0.3-2.1c0.2-0.8,1.3-1.7,1.4-2.5
						c0.5-3.3,2.4-6.8,7.2-1.2c0,0,1.1,0.5,1.9,1.9c0.6,1.1,0.9,2.5,0.9,3.9C255.9,451.6,252.9,455,250.1,455z"/>
				</g>
			</g>
			<g>
				<g>
					<g>
						<path class="st14" d="M250.1,458.9c-2.2,0-4.1-1-5.1-2.6h-0.9v10.9h11.3v-10.9h-0.2C254.2,457.9,252.3,458.9,250.1,458.9z"/>
					</g>
				</g>
				<g>
					<path class="st15" d="M265,468.7c-0.4-1.4-1.4-5.4-2.6-8.3c-1.4-3.5-7.6-4.9-7.6-4.9s-1.1,5.6-4.7,10.3
						c-3.5-4.7-4.7-10.3-4.7-10.3s-6.2,1.4-7.6,4.9c-1.1,2.9-2.2,6.9-2.6,8.3H265z"/>
				</g>
			</g>
			<g>
				<path class="st4" d="M255.3,446.5c1.7-5.4-3.2-8.6-6.1-8.6c-3.3,0-6.1,5.2-5.5,8.7c1.8-0.8,3.3-2.4,7.2-5
					c-0.6,0.8-1.7,2.2-5.4,4.7c2,0.3,5.8-1.7,7.8-3.7C253.7,444,254.4,445.6,255.3,446.5z"/>
			</g>
		</g>
		<g>
			<g>
				<path class="st2" d="M302.4,436.3c-4.2-3.4-10.3,0.5-10.8,9.6l0,0c-0.2,2.6,0.1,5.4,0.6,7.4c0,0,0,0.1,0,0.1
					c0.1,0.4,0.2,0.7,0.4,1.1c0.2,0.6,0.5,1,0.8,1.4c0.1,0.1,0.3,0.3,0.5,0.4c0.4,0.2,0.8,0.4,1.4,0.4h8.2c0.6,0,1-0.1,1.3-0.3
					c0.2-0.1,0.4-0.2,0.5-0.4c0.3-0.3,0.6-0.8,0.8-1.4c0.1-0.3,0.3-0.7,0.4-1.1c0,0,0-0.1,0-0.1c0.2-0.7,0.4-1.5,0.5-2.3
					C308.4,442.4,306.6,436.6,302.4,436.3z"/>
			</g>
			<g>
				<path class="st1" d="M299.5,443.9c1.7,0,3.2,5.6,3.2,9.6c0,4.1-1.4,7.3-3.2,7.3c-1.7,0-3.2-3.3-3.2-7.3
					C296.4,449.5,297.8,443.9,299.5,443.9z"/>
			</g>
			<g>
				<polygon class="st1" points="294.9,455.5 296.5,454.9 302.7,454.9 304.2,455.5 302.7,464.9 295.5,464.9 				"/>
			</g>
			<g>
				<g>
					<g>
						
							<ellipse transform="matrix(0.9805 -0.1965 0.1965 0.9805 -82.0914 66.5619)" class="st3" cx="294.3" cy="446.9" rx="1.2" ry="1.9"/>
					</g>
					<g>
						
							<ellipse transform="matrix(0.1965 -0.9805 0.9805 0.1965 -193.2764 657.973)" class="st3" cx="304.8" cy="446.9" rx="1.9" ry="1.2"/>
					</g>
				</g>
				<g>
					<path class="st3" d="M299.5,455c-2.8,0-5.8-3.4-5.8-7.6c0-0.7,0.1-1.4,0.3-2.1c0.2-0.8,1.3-1.7,1.4-2.5
						c0.5-3.3,2.4-6.8,7.2-1.2c0,0,1.1,0.5,1.9,1.9c0.6,1.1,0.9,2.5,0.9,3.9C305.4,451.6,302.4,455,299.5,455z"/>
				</g>
			</g>
			<g>
				<g>
					<g>
						<path class="st14" d="M299.5,458.9c-2.2,0-4.1-1-5.1-2.6h-0.9v10.9h11.3v-10.9h-0.2C303.6,457.9,301.7,458.9,299.5,458.9z"/>
					</g>
				</g>
				<g>
					<path class="st15" d="M314.4,468.7c-0.3-1.4-1.4-5.4-2.6-8.3c-1.4-3.5-7.6-4.9-7.6-4.9s-1.1,5.6-4.7,10.3
						c-3.5-4.7-4.7-10.3-4.7-10.3s-6.2,1.4-7.6,4.9c-1.1,2.9-2.2,6.9-2.6,8.3H314.4z"/>
				</g>
			</g>
			<g>
				<path class="st4" d="M304.7,446.5c1.7-5.4-3.2-8.6-6.1-8.6c-3.3,0-6.1,5.2-5.5,8.7c1.8-0.8,3.3-2.4,7.2-5
					c-0.6,0.8-1.7,2.2-5.4,4.7c2,0.3,5.8-1.7,7.8-3.7C303.2,444,303.9,445.6,304.7,446.5z"/>
			</g>
		</g>
	</g>
	<g>
		<g>
			<path class="st2" d="M279.2,430.2c-6.5-5.1-15.7,0.8-16.5,14.7l0.1,0c-0.3,4,0.1,8.2,1,11.3c0,0.1,0,0.1,0,0.2
				c0.2,0.6,0.4,1.1,0.6,1.6c0.4,0.8,0.7,1.6,1.2,2.1c0.2,0.2,0.4,0.4,0.7,0.6c0.6,0.3,1.2,0.5,2.1,0.5h12.6c0.8,0,1.5-0.2,2-0.5
				c0.3-0.2,0.5-0.4,0.8-0.6c0.5-0.5,0.9-1.2,1.2-2.1c0.2-0.5,0.4-1,0.6-1.6c0-0.1,0-0.1,0-0.2c0.3-1.1,0.5-2.2,0.7-3.5
				C288.3,439.5,285.5,430.7,279.2,430.2z"/>
		</g>
		<g>
			<path class="st1" d="M274.8,441.7c2.7,0,4.9,8.5,4.9,14.7c0,6.2-2.2,11.2-4.8,11.2c-2.7,0-4.8-5-4.8-11.2
				C270.1,450.3,272.2,441.7,274.8,441.7z"/>
		</g>
		<g>
			<polygon class="st1" points="267.7,459.5 270.1,458.5 279.6,458.5 282,459.5 279.6,473.8 268.6,473.8 			"/>
		</g>
		<g>
			<g>
				<g>
					
						<ellipse transform="matrix(0.9804 -0.1969 0.1969 0.9804 -82.6654 61.287)" class="st3" cx="266.9" cy="446.4" rx="1.8" ry="2.9"/>
				</g>
				<g>
					
						<ellipse transform="matrix(0.1968 -0.9804 0.9804 0.1968 -210.4288 635.8692)" class="st3" cx="282.9" cy="446.4" rx="2.9" ry="1.8"/>
				</g>
			</g>
			<g>
				<path class="st3" d="M274.8,458.7c-4.3,0-8.9-5.2-8.9-11.6c0-1.1,0.1-2.2,0.4-3.2c0.3-1.2,1.9-2.6,2.1-3.8
					c0.8-5,3.7-10.5,11-1.9c0,0,1.7,0.8,2.9,3c0.9,1.7,1.4,3.7,1.4,5.9C283.7,453.5,279.1,458.7,274.8,458.7z"/>
			</g>
		</g>
		<g>
			<g>
				<g>
					<path class="st14" d="M274.8,464.6c-3.3,0-6.2-1.6-7.8-4h-1.3v16.6h17.2v-16.6h-0.3C281,463.1,278.1,464.6,274.8,464.6z"/>
				</g>
			</g>
			<g>
				<path class="st15" d="M297.5,479.7c-0.5-2.1-2.2-8.3-3.9-12.7c-2.1-5.3-11.6-7.5-11.6-7.5s-1.8,8.5-7.2,15.7
					c-5.4-7.2-7.2-15.7-7.2-15.7s-9.5,2.1-11.6,7.5c-1.7,4.4-3.4,10.6-3.9,12.7H297.5z"/>
			</g>
		</g>
		<g>
			<path class="st4" d="M282.8,445.7c2.6-8.3-4.8-13.1-9.4-13.1c-5.1,0-9.3,7.9-8.4,13.2c2.7-1.2,5.1-3.7,11-7.7
				c-0.9,1.2-2.5,3.3-8.3,7.2c3.1,0.4,8.8-2.5,11.9-5.6C280.4,442,281.4,444.3,282.8,445.7z"/>
		</g>
	</g>
</g>
<g id="user_male_group">
	<g>
		<g id="user_male_28_">
			<g>
				<g>
					<path class="st15" d="M119.1,458.7c-0.6-4.6-3.9-5.6-3.9-5.6l-8-2.8c-1.9,1.7-5,1.3-5,1.3s-3,0.4-4.8-1.3l-8,2.8
						c0,0-3.3,0.9-3.9,5.6l-2,9.3h18.7h18.9L119.1,458.7z"/>
				</g>
				<g>
					<g>
						<path class="st14" d="M97.4,450.4c0,0-0.6,3.5,4.9,6.2c0,0-4.1,0.3-5.3,4.2C96.9,460.9,94.7,452.4,97.4,450.4z"/>
					</g>
					<g>
						<path class="st14" d="M107.3,450.4c0,0,0.6,3.5-4.9,6.2c0,0,4.1,0.3,5.3,4.2C107.7,460.9,110,452.4,107.3,450.4z"/>
					</g>
				</g>
			</g>
			<g>
				<g>
					<ellipse class="st1" cx="102.3" cy="451.5" rx="5" ry="5.1"/>
				</g>
				<g>
					<g>
						<g>
							
								<ellipse transform="matrix(0.9803 -0.1974 0.1974 0.9803 -85.7258 27.688)" class="st3" cx="96" cy="443.9" rx="1.3" ry="2.1"/>
						</g>
						<g>
							
								<ellipse transform="matrix(0.1974 -0.9803 0.9803 0.1974 -348.0037 462.7518)" class="st3" cx="108.6" cy="443.9" rx="2.1" ry="1.3"/>
						</g>
					</g>
					<g>
						<g>
							<path class="st3" d="M108.8,444.4c0,4.7-3.4,8.5-6.5,8.5c-3.2,0-6.5-3.8-6.5-8.5c0-4.7,3.4-8.5,6.5-8.5
								C105.4,435.9,108.8,439.7,108.8,444.4z"/>
						</g>
						<g>
							<path class="st8" d="M108.8,444.1c0.2-0.5,0.5-1,0.6-1.5c1.9-5.5-0.3-8.4-3.2-8.5l0,0c-1-1.7-2.8-2.6-5-2.5
								c-3.7,0.2-7,3-6.8,7.4c0.1,1.8,0.5,3.6,1.2,5.2c0,0,0-3.7,1.9-3.9c1.9-0.3,6.9,0.3,8-2.3
								C105.6,437.9,108.9,439.5,108.8,444.1z"/>
						</g>
					</g>
				</g>
			</g>
		</g>
		<g id="user_male_23_">
			<g>
				<g>
					<path class="st15" d="M162.5,458.7c-0.6-4.6-3.9-5.6-3.9-5.6l-8-2.8c-1.9,1.7-5,1.3-5,1.3s-3,0.4-4.8-1.3l-8,2.8
						c0,0-3.3,0.9-3.9,5.6l-2,9.3h18.7h18.9L162.5,458.7z"/>
				</g>
				<g>
					<g>
						<path class="st14" d="M140.9,450.4c0,0-0.6,3.5,4.9,6.2c0,0-4.1,0.3-5.3,4.2C140.4,460.9,138.1,452.4,140.9,450.4z"/>
					</g>
					<g>
						<path class="st14" d="M150.7,450.4c0,0,0.6,3.5-4.9,6.2c0,0,4.1,0.3,5.3,4.2C151.2,460.9,153.4,452.4,150.7,450.4z"/>
					</g>
				</g>
			</g>
			<g>
				<g>
					<ellipse class="st1" cx="145.8" cy="451.5" rx="5" ry="5.1"/>
				</g>
				<g>
					<g>
						<g>
							
								<ellipse transform="matrix(0.9803 -0.1973 0.1973 0.9803 -84.8326 36.2429)" class="st3" cx="139.5" cy="443.9" rx="1.3" ry="2.1"/>
						</g>
						<g>
							
								<ellipse transform="matrix(0.1973 -0.9803 0.9803 0.1973 -313.1245 505.3864)" class="st3" cx="152.1" cy="443.9" rx="2.1" ry="1.3"/>
						</g>
					</g>
					<g>
						<g>
							<path class="st3" d="M152.3,444.4c0,4.7-3.4,8.5-6.5,8.5c-3.2,0-6.5-3.8-6.5-8.5c0-4.7,3.4-8.5,6.5-8.5
								C148.9,435.9,152.3,439.7,152.3,444.4z"/>
						</g>
						<g>
							<path class="st8" d="M152.2,444.1c0.2-0.5,0.5-1,0.6-1.5c1.9-5.5-0.3-8.4-3.2-8.5l0,0c-1-1.7-2.8-2.6-5-2.5
								c-3.7,0.2-7,3-6.8,7.4c0.1,1.8,0.5,3.6,1.2,5.2c0,0,0-3.7,1.9-3.9c1.9-0.3,6.9,0.3,8-2.3
								C149.1,437.9,152.3,439.5,152.2,444.1z"/>
						</g>
					</g>
				</g>
			</g>
		</g>
	</g>
	<g id="user_male_15_">
		<g>
			<g>
				<path class="st15" d="M148.2,466.8c-0.8-6.7-5.6-8-5.6-8l-11.5-4c-2.7,2.4-7.2,1.9-7.2,1.9s-4.3,0.5-6.9-1.9l-11.5,4
					c0,0-4.8,1.3-5.6,8l-2.9,13.4h27h27.3L148.2,466.8z"/>
			</g>
			<g>
				<g>
					<path class="st14" d="M117,454.8c0,0-0.9,5,7.1,8.9c0,0-6,0.5-7.7,6C116.3,470,113,457.7,117,454.8z"/>
				</g>
				<g>
					<path class="st14" d="M131.2,454.8c0,0,0.9,5-7.1,8.9c0,0,6,0.5,7.7,6C131.8,470,135.1,457.7,131.2,454.8z"/>
				</g>
			</g>
		</g>
		<g>
			<g>
				<ellipse class="st1" cx="124.1" cy="456.3" rx="7.3" ry="7.4"/>
			</g>
			<g>
				<g>
					<g>
						
							<ellipse transform="matrix(0.9804 -0.1968 0.1968 0.9804 -85.4317 31.3513)" class="st3" cx="115" cy="445.4" rx="1.9" ry="3.1"/>
					</g>
					<g>
						
							<ellipse transform="matrix(0.1968 -0.9804 0.9804 0.1968 -329.8092 488.2681)" class="st3" cx="133.1" cy="445.4" rx="3.1" ry="1.9"/>
					</g>
				</g>
				<g>
					<g>
						<path class="st3" d="M133.4,446.1c0,6.8-4.9,12.3-9.4,12.3c-4.6,0-9.4-5.5-9.4-12.3c0-6.8,4.9-12.3,9.4-12.3
							C128.5,433.8,133.4,439.3,133.4,446.1z"/>
					</g>
					<g>
						<path class="st8" d="M133.4,445.7c0.4-0.7,0.7-1.4,0.9-2.2c2.8-8-0.5-12.1-4.6-12.2l0,0c-1.5-2.4-4-3.7-7.1-3.6
							c-5.3,0.2-10.1,4.3-9.8,10.6c0.1,2.6,0.7,5.2,1.8,7.5c0,0-0.1-5.3,2.7-5.7c2.7-0.4,10,0.4,11.6-3.4
							C128.8,436.8,133.5,439.1,133.4,445.7z"/>
					</g>
				</g>
			</g>
		</g>
	</g>
</g>
<g id="user_family">
	<g id="user_male_14_">
		<g>
			<path class="st9" d="M428.2,343.4c-0.7-5.6-4.7-6.7-4.7-6.7l-9.6-3.3c-2.2,2-6,1.6-6,1.6s-3.8,0.4-6-1.6l-9.6,3.3
				c0,0-4,1.1-4.7,6.7l-2.5,11.2h22.8h22.8L428.2,343.4z"/>
		</g>
		<g>
			<ellipse class="st1" cx="407.9" cy="334.7" rx="6.1" ry="6.2"/>
		</g>
		<g>
			<path class="st14" d="M401.9,333.4c0,0-0.7,4.2,6,7.5c0,0-5,0.4-6.5,5.1C401.3,346.2,398.6,335.9,401.9,333.4z"/>
		</g>
		<g>
			<path class="st14" d="M413.9,333.4c0,0,0.8,4.2-6,7.5c0,0,5,0.4,6.5,5.1C414.4,346.2,417.2,335.9,413.9,333.4z"/>
		</g>
		<g>
			<g>
				<g>
					
						<ellipse transform="matrix(0.9804 -0.1968 0.1968 0.9804 -56.2329 85.1464)" class="st3" cx="400.2" cy="325.5" rx="1.6" ry="2.6"/>
				</g>
				<g>
					
						<ellipse transform="matrix(0.1969 -0.9804 0.9804 0.1969 14.6167 668.7972)" class="st3" cx="415.5" cy="325.5" rx="2.6" ry="1.6"/>
				</g>
			</g>
			<g>
				<g>
					<path class="st3" d="M415.8,326.1c0,5.7-4.1,10.4-7.9,10.4c-3.8,0-7.9-4.7-7.9-10.4c0-5.7,4.1-10.4,7.9-10.4
						C411.7,315.7,415.8,320.3,415.8,326.1z"/>
				</g>
				<g>
					<path class="st8" d="M415.8,325.7c0.3-0.6,0.6-1.2,0.8-1.8c2.3-6.7-0.4-10.2-3.9-10.3l0,0c-1.2-2-3.4-3.2-6-3
						c-4.5,0.2-8.5,3.7-8.3,9c0.1,2.2,0.6,4.4,1.5,6.3c0,0,0-4.4,2.3-4.8c2.3-0.3,8.4,0.3,9.8-2.9
						C411.9,318.2,415.8,320.1,415.8,325.7z"/>
				</g>
			</g>
		</g>
	</g>
	<g>
		<g>
			<path class="st2" d="M404.3,343.6v3v0.5c0,1.7,1.4,3.2,3.2,3.2h4.2h4.3c1.7,0,3.2-1.4,3.2-3.2v-0.5v-3c0.2-5.7-2.4-6.7-4.2-6.7
				l0,0c-0.8-1.4-2.3-2.1-4.1-2.1C407.8,335,404.2,336.8,404.3,343.6L404.3,343.6z"/>
		</g>
		<g>
			<g id="female_user_1_">
				<g>
					<polygon class="st19" points="406.8,352 408.6,351.4 414.7,351.4 416.9,352.1 416.3,355.2 410,356.2 406.5,354.8 					"/>
				</g>
				<g>
					<path class="st1" d="M411.6,341.8c1.9,0,3.5,6.3,3.5,10c0,3.7-1.5,6.8-3.4,6.8c-1.9,0-3.4-3-3.4-6.8
						C408.2,348.1,409.7,341.8,411.6,341.8z"/>
				</g>
				<g>
					<g>
						<g>
							
								<ellipse transform="matrix(0.9804 -0.1971 0.1971 0.9804 -60.0197 86.9635)" class="st3" cx="406.8" cy="345" rx="1.1" ry="1.8"/>
						</g>
						<g>
							
								<ellipse transform="matrix(0.197 -0.9804 0.9804 0.197 -3.7854 685.3256)" class="st3" cx="416.5" cy="345" rx="1.8" ry="1.1"/>
						</g>
					</g>
					<g>
						<path class="st3" d="M411.6,351.5c-2.6,0-5.4-2.9-5.4-6.5c0-0.6,0.1-1.2,0.2-1.8c0.2-0.7,0.6-1.3,1.3-1.4
							c1.6-0.2,5.7,0.2,6.6-1.8c0,0,1,0.5,1.8,1.7c0.5,1,0.8,2.1,0.8,3.3C417,348.6,414.2,351.5,411.6,351.5z"/>
					</g>
				</g>
				<g>
					<path class="st9" d="M423.7,356.2c-1.1-2.4-5.3-3.7-6.9-4.1l-1.8-0.6c0,0,0,0,0,0c-0.1,0.1-1,1.6-3.4,2
						c-2.2-0.3-3.2-1.6-3.4-1.9c0,0,0-0.1,0-0.1l-1.4,0.5l0,0c-1,0.2-6.1,1.5-7.3,4.2c-1.3,3-2.6,7.7-2.6,7.7h29.5
						C426.3,363.9,425,359.3,423.7,356.2z"/>
				</g>
			</g>
			<g>
				<g>
					<path class="st14" d="M408.3,351.6c0,0,0.9,1.6,3.4,2c0,0-0.9,2.2-2.7,1.2c-1.8-1-1.4-2.9-1.4-2.9L408.3,351.6z"/>
				</g>
				<g>
					<path class="st14" d="M415,351.6c0,0-0.9,1.6-3.4,2c0,0,0.9,2.2,2.7,1.2c1.8-1,1.4-2.9,1.4-2.9L415,351.6z"/>
				</g>
			</g>
		</g>
	</g>
	<g>
		<g>
			<path class="st2" d="M448.5,313.9c-5.3-4.2-12.9,0.7-13.6,12l0.1,0c-0.2,3.3,0.1,6.7,0.8,9.3c0,0,0,0.1,0,0.1
				c0.1,0.5,0.3,0.9,0.5,1.3c0.3,0.7,0.6,1.3,1,1.7c0.2,0.2,0.4,0.3,0.6,0.5c0.5,0.3,1,0.4,1.7,0.4h10.3c0.7,0,1.2-0.1,1.7-0.4
				c0.2-0.1,0.4-0.3,0.6-0.5c0.4-0.4,0.7-1,1-1.7c0.2-0.4,0.3-0.8,0.5-1.3c0,0,0-0.1,0-0.1c0.2-0.9,0.4-1.8,0.6-2.9
				C456,321.6,453.7,314.3,448.5,313.9z"/>
		</g>
		<g>
			<path class="st1" d="M444.9,323.4c2.2,0,4,7,4,12.1c0,5.1-1.8,9.2-4,9.2c-2.2,0-4-4.1-4-9.2C441,330.4,442.7,323.4,444.9,323.4z"
				/>
		</g>
		<g>
			<polygon class="st1" points="439,338 441.1,337.2 448.9,337.2 450.8,338 448.9,349.8 439.8,349.8 			"/>
		</g>
		<g>
			<g>
				<g>
					
						<ellipse transform="matrix(0.9804 -0.1972 0.1972 0.9804 -55.9081 92.8545)" class="st3" cx="438.4" cy="327.2" rx="1.5" ry="2.4"/>
				</g>
				<g>
					
						<ellipse transform="matrix(0.197 -0.9804 0.9804 0.197 41.7984 705.4826)" class="st3" cx="451.6" cy="327.2" rx="2.4" ry="1.5"/>
				</g>
			</g>
			<g>
				<path class="st3" d="M444.9,337.3c-3.5,0-7.3-4.3-7.3-9.6c0-0.9,0.1-1.8,0.3-2.6c0.3-1,1.6-2.2,1.8-3.1c0.7-4.1,3-8.6,9-1.5
					c0,0,1.4,0.7,2.4,2.4c0.7,1.4,1.1,3.1,1.1,4.9C452.2,333.1,448.5,337.3,444.9,337.3z"/>
			</g>
		</g>
		<g>
			<g>
				<g>
					<path class="st14" d="M444.9,342.2c-2.7,0-5.1-1.3-6.4-3.2h-1.1v13.7h14.2V339h-0.2C450,340.9,447.7,342.2,444.9,342.2z"/>
				</g>
			</g>
			<g>
				<path class="st9" d="M463.6,354.6c-0.4-1.7-1.8-6.8-3.2-10.4c-1.7-4.4-9.5-6.1-9.5-6.1s-1.4,7-5.9,12.9
					C440.5,345,439,338,439,338s-7.8,1.8-9.5,6.1c-1.4,3.6-2.8,8.7-3.2,10.4H463.6z"/>
			</g>
		</g>
		<g>
			<path class="st4" d="M451.5,326.7c2.1-6.8-4-10.7-7.7-10.7c-4.2,0-7.6,6.5-6.9,10.9c2.2-1,4.2-3,9.1-6.3c-0.7,1-2.1,2.7-6.8,5.9
				c2.5,0.3,7.2-2.1,9.8-4.6C449.5,323.6,450.4,325.6,451.5,326.7z"/>
		</g>
	</g>
	<g id="user_male_13_">
		<g>
			<path class="st9" d="M453.1,356.4c-0.4-3.7-3.1-4.5-3.1-4.5l-6.4-2.2c-1.5,1.3-4,1-4,1s-2.5,0.3-4-1l-6.4,2.2
				c0,0-2.7,0.7-3.1,4.5l-1.6,7.5h15.2h15.2L453.1,356.4z"/>
		</g>
		<g>
			<ellipse class="st1" cx="439.6" cy="350.6" rx="4.1" ry="4.1"/>
		</g>
		<g>
			<g>
				<g>
					
						<ellipse transform="matrix(0.9805 -0.1967 0.1967 0.9805 -59.2719 92.1974)" class="st3" cx="434.5" cy="344.5" rx="1.1" ry="1.7"/>
				</g>
				<g>
					
						<ellipse transform="matrix(0.1968 -0.9804 0.9804 0.1968 19.3735 712.5962)" class="st3" cx="444.6" cy="344.5" rx="1.7" ry="1.1"/>
				</g>
			</g>
			<g>
				<g>
					<path class="st3" d="M444.8,344.7c0,3.7-2.7,6.8-5.3,6.8s-5.3-3-5.3-6.8s2.7-6.8,5.3-6.8S444.8,340.9,444.8,344.7z"/>
				</g>
				<g>
					<path class="st2" d="M444.8,344.4c0.2-0.4,0.4-0.8,0.5-1.2c1.6-4.4-0.3-6.6-2.6-6.7l0,0c-0.8-1.3-2.2-2-4-2
						c-3,0.1-5.7,2.4-5.5,5.8c0.1,1.4,0.4,2.9,1,4.1c0,0,0-2.9,1.5-3.1c1.5-0.2,5.6,0.2,6.5-1.9
						C442.2,339.5,444.8,340.8,444.8,344.4z"/>
				</g>
			</g>
		</g>
		<g>
			<path class="st14" d="M445.2,350.6c0-0.1,0-0.2,0-0.3l-1.6-0.6c0,0,0,0,0,0c0.1,0.3,0.1,0.6,0.1,0.8c0,2.3-1.8,4.1-4.1,4.1
				c-2.2,0-4.1-1.9-4.1-4.1c0-0.3,0-0.6,0.1-0.8c0,0,0,0,0,0l-1.6,0.6c0,0.1,0,0.2,0,0.3c0,3.2,2.5,5.7,5.7,5.7
				C442.7,356.3,445.2,353.7,445.2,350.6z"/>
		</g>
	</g>
</g>
<g id="user_female3">
	<g id="female_user_4_">
		<g>
			<polygon class="st1" points="266.9,344.1 269.6,343.1 280.1,343.1 282.8,344.1 280.2,359.1 267.9,359.1 			"/>
		</g>
		<g>
			<path class="st2" d="M279.7,311.4c-7.2-5.7-17.5,0.9-18.4,16.4l0,0c-0.3,4.5,0.2,9.2,1.2,12.7c0,0.1,0,0.1,0.1,0.2
				c0.2,0.6,0.4,1.3,0.6,1.8c0.4,0.9,0.8,1.7,1.4,2.3c0.2,0.3,0.5,0.5,0.8,0.6c0.6,0.4,1.4,0.6,2.4,0.6h14c0.9,0,1.7-0.2,2.3-0.6
				c0.3-0.2,0.6-0.4,0.8-0.7c0.5-0.6,1-1.4,1.4-2.3c0.2-0.6,0.4-1.2,0.6-1.8c0-0.1,0-0.1,0.1-0.2c0.3-1.2,0.6-2.5,0.8-3.9
				C289.9,321.8,286.8,311.9,279.7,311.4z"/>
		</g>
		<g>
			<g>
				<path class="st1" d="M274.7,323.1c3,0,5.4,9.5,5.4,16.4c0,6.9-0.6,12.5-5.4,12.5c-4.1,0-5.4-4.8-5.4-12.5
					C269.4,332.6,271.8,323.1,274.7,323.1z"/>
			</g>
			<g>
				<g>
					<g>
						
							<ellipse transform="matrix(0.9804 -0.1972 0.1972 0.9804 -59.5084 58.8777)" class="st3" cx="265.9" cy="328.3" rx="2" ry="3.2"/>
					</g>
					<g>
						
							<ellipse transform="matrix(0.1972 -0.9804 0.9804 0.1972 -94.0529 541.6851)" class="st3" cx="283.7" cy="328.3" rx="3.2" ry="2"/>
					</g>
				</g>
				<g>
					<path class="st3" d="M274.7,342c-4.8,0-9.9-5.8-9.9-12.9c0-1.2,0.2-2.4,0.4-3.6c0.4-1.3,2.2-2.9,2.4-4.2
						c0.9-5.5,4.1-11.6,12.2-2.1c0,0,1.9,0.9,3.3,3.3c0.9,1.9,1.5,4.2,1.5,6.6C284.6,336.2,279.5,342,274.7,342z"/>
				</g>
			</g>
			<g>
				<path class="st4" d="M283.5,324.9c2.6-8.4-4.9-13.3-9.5-13.3c-5.2,0-9.4,8-8.5,13.4c2.8-1.3,5.2-3.7,11.2-7.8
					c-0.9,1.2-2.6,3.4-8.4,7.3c3.1,0.4,9-2.6,12.1-5.7C281,321.1,282.1,323.5,283.5,324.9z"/>
			</g>
			<g>
				<g>
					<path class="st5" d="M274.8,349.7c-6.3,0.1-5.2-6.6-5.2-6.6s-13.4,3.3-15.7,8.9c-1.9,4.6-3.7,11.1-4.3,13.3h50.7
						c-0.6-2.2-2.4-8.7-4.3-13.3c-2.3-5.6-15.7-8.9-15.7-8.9S281.1,349.6,274.8,349.7z"/>
				</g>
				<g>
					<path class="st6" d="M269.5,341.8c0,0-0.4,5.2,5.3,7.9l-6.9,4.4C267.9,354.1,266,343.9,269.5,341.8z"/>
				</g>
				<g>
					<path class="st6" d="M280.1,341.8c0,0,0.4,5.2-5.3,7.9l6.9,4.4C281.7,354.1,283.6,343.9,280.1,341.8z"/>
				</g>
			</g>
		</g>
	</g>
</g>
<g id="user_male3">
	<g>
		<polygon class="st5" points="136.3,365.4 136.3,343.9 124.1,337.2 111.8,344 111.8,365.4 		"/>
	</g>
	<g>
		<polygon class="st7" points="127.4,348.3 120.7,348.3 122,352 126,352 		"/>
	</g>
	<g>
		<ellipse class="st1" cx="124.1" cy="340.3" rx="7.9" ry="8"/>
	</g>
	<g>
		
			<ellipse transform="matrix(0.9805 -0.1966 0.1966 0.9805 -62.3575 28.8787)" class="st3" cx="114.3" cy="328.5" rx="2.1" ry="3.3"/>
	</g>
	<g>
		
			<ellipse transform="matrix(0.1968 -0.9804 0.9804 0.1968 -214.56 395.037)" class="st3" cx="133.8" cy="328.5" rx="3.3" ry="2.1"/>
	</g>
	<g>
		<path class="st3" d="M134.1,329.3c0,7.4-5.3,13.3-10.2,13.3c-4.9,0-10.2-6-10.2-13.3c0-7.4,5.3-13.3,10.2-13.3
			C128.9,315.9,134.1,321.9,134.1,329.3z"/>
	</g>
	<g>
		<path class="st8" d="M134.1,328.8c0.4-0.7,0.7-1.5,1-2.4c3-8.6-0.5-13.1-5-13.2l0,0c-1.6-2.6-4.3-4-7.7-3.9
			c-5.7,0.2-10.9,4.7-10.6,11.5c0.1,2.8,0.8,5.7,1.9,8.1c0,0-0.1-5.7,2.9-6.1c2.9-0.4,10.8,0.4,12.5-3.7
			C129.2,319.1,134.2,321.6,134.1,328.8z"/>
	</g>
	<g>
		<path class="st6" d="M116.4,338.6c0,0-1,5.4,7.7,9.7c0,0-6.5,0.5-8.3,6.5C115.6,355,112.1,341.8,116.4,338.6z"/>
	</g>
	<g>
		<path class="st6" d="M131.7,338.6c0,0,1,5.4-7.7,9.7c0,0,6.5,0.5,8.3,6.5C132.4,355,135.9,341.8,131.7,338.6z"/>
	</g>
	<g>
		<path class="st5" d="M117.9,365.4c-2.9-10.9-3.2-19.6-3.2-23.7l-15.5,7.5l-4.5,16.2H117.9z"/>
	</g>
	<g>
		<path class="st5" d="M153.3,365.4l-4.5-16.2l-15.5-7.5c0,4.1-0.2,12.8-3.2,23.7H153.3z"/>
	</g>
	<g>
		<polygon class="st9" points="127.6,365.4 126,352 121.9,352 120.5,365.4 		"/>
	</g>
</g>
<g id="user_female2">
	<g>
		<g>
			<path class="st2" d="M429.3,194.7c-7.2-5.5-17.5,0.9-18.4,15.8l0,0c-0.3,4.3,0.2,8.8,1.2,12.2c0,0.1,0,0.1,0.1,0.2
				c0.2,0.6,0.4,1.2,0.6,1.7c0.4,0.9,0.8,1.7,1.4,2.2c0.2,0.2,0.5,0.5,0.8,0.6c0.6,0.4,1.4,0.6,2.4,0.6h14c0.9,0,1.7-0.2,2.3-0.5
				c0.3-0.2,0.6-0.4,0.8-0.7c0.5-0.6,1-1.3,1.4-2.2c0.2-0.5,0.4-1.1,0.6-1.7c0-0.1,0-0.1,0.1-0.2c0.3-1.1,0.6-2.4,0.8-3.7
				C439.4,204.8,436.3,195.2,429.3,194.7z"/>
		</g>
		<g>
			<g>
				<path class="st1" d="M424.3,206.5c3,0,5.4,9.5,5.4,16.3c0,6.9-2.4,12.4-5.3,12.4c-3,0-5.3-5.6-5.3-12.4
					C419,216,421.3,206.5,424.3,206.5z"/>
			</g>
			<g>
				<polygon class="st1" points="416.3,226.3 419.1,225.1 429.6,225.1 432.2,226.3 429.6,242.2 417.4,242.2 				"/>
			</g>
			<g>
				<g>
					<g>
						
							<ellipse transform="matrix(0.9804 -0.1968 0.1968 0.9804 -33.5354 85.9097)" class="st3" cx="415.5" cy="211.7" rx="2" ry="3.2"/>
					</g>
					<g>
						
							<ellipse transform="matrix(0.1968 -0.9805 0.9805 0.1968 140.4559 594.8002)" class="st3" cx="433.2" cy="211.7" rx="3.2" ry="2"/>
					</g>
				</g>
				<g>
					<path class="st3" d="M424.3,225.4c-4.8,0-9.9-5.8-9.9-12.9c0-1.2,0.2-2.4,0.4-3.6c0.4-1.3,2.2-2.9,2.4-4.2
						c0.9-5.5,4.1-11.6,12.2-2.1c0,0,1.9,0.9,3.3,3.3c0.9,1.9,1.5,4.2,1.5,6.6C434.2,219.6,429.1,225.4,424.3,225.4z"/>
				</g>
			</g>
			<g>
				<path class="st2" d="M433,208.5c0,0-0.8-0.1-2-0.3h0l-0.4-2l-0.4,1.9c-0.5-0.1-1-0.1-1.6-0.2l-0.9-4.9l-0.6,4.7
					c-0.9-0.1-2.3-0.2-2.8-0.2c0,0,0,0,0,0l-0.3-2.8l-0.5,2.8c-1.2,0.1-2.9,0.2-4.4,0.4l-0.3-4.8l-0.6,4.9c-1.4,0.2-2.5,0.3-2.5,0.3
					s-1.4-12.6,8.7-10.9C424.4,197.6,434.7,196.5,433,208.5z"/>
			</g>
			<g>
				<path class="st5" d="M432,229.2c-0.4,0.7-1,1.3-1.8,1.8c-0.4,1.4-2.9,2.5-5.9,2.5c-2.8,0-5.2-1-5.8-2.3c-0.8-0.5-1.4-1-1.9-1.6
					c0,1.3,0.8,5.4,4.9,18.7h5.6C432,232.5,432.2,229.6,432,229.2z"/>
			</g>
		</g>
	</g>
	<g>
		<g>
			<path class="st9" d="M449.7,248.7c-0.6-2.3-2.4-9.2-4.3-14.1c-2.3-5.9-15.7-9.4-15.7-9.4s1.6,10.5-5.2,21l0,0
				c-6.6-10.2-5.3-21-5.3-21s-13.4,3.5-15.7,9.4c-1.9,4.8-3.7,11.8-4.3,14.1H449.7z"/>
		</g>
		<g>
			<path class="st6" d="M419.1,224.7c0,0-0.8,9.7,5.3,21.5c0,0-8.4-5-12.1-14.5l3.4-1.6l-1-1.9L419.1,224.7z"/>
		</g>
		<g>
			<path class="st6" d="M429.6,224.7c0,0,0.9,9.7-5.2,21.5c0,0,8.3-5,12-14.5l-3.4-1.6l1-1.9L429.6,224.7z"/>
		</g>
	</g>
</g>
<g id="user_male2">
	<g>
		<polygon class="st11" points="287,248.6 287,227.1 274.8,220.4 262.5,227.2 262.5,248.6 		"/>
	</g>
	<g>
		<polygon class="st7" points="278.2,231.5 271.4,231.5 272.8,235.3 276.8,235.3 		"/>
	</g>
	<g>
		<ellipse class="st1" cx="274.8" cy="223.5" rx="7.9" ry="8"/>
	</g>
	<g>
		<ellipse transform="matrix(0.9805 -0.1967 0.1967 0.9805 -36.464 56.2655)" class="st3" cx="265" cy="211.7" rx="2.1" ry="3.3"/>
	</g>
	<g>
		
			<ellipse transform="matrix(0.1967 -0.9805 0.9805 0.1967 21.0433 449.0994)" class="st3" cx="284.6" cy="211.7" rx="3.3" ry="2.1"/>
	</g>
	<g>
		<path class="st3" d="M284.9,212.5c0,7.4-5.3,13.3-10.2,13.3c-4.9,0-10.2-6-10.2-13.3c0-7.4,5.3-13.3,10.2-13.3
			C279.7,199.2,284.9,205.1,284.9,212.5z"/>
	</g>
	<g>
		<path class="st8" d="M284.9,212c0.4-0.7,0.7-1.5,1-2.4c3-8.6-0.5-13.1-5-13.2l0,0c-1.6-2.6-4.3-4-7.7-3.9
			c-5.7,0.2-10.9,4.7-10.6,11.5c0.1,2.8,0.8,5.7,1.9,8.1c0,0-0.1-5.7,2.9-6.1c2.9-0.4,10.8,0.4,12.5-3.7
			C280,202.3,285,204.8,284.9,212z"/>
	</g>
	<g>
		<path class="st9" d="M268.7,248.6c-2.9-10.9-3.2-19.6-3.2-23.7l-15.5,7.5l-4.5,16.2H268.7z"/>
	</g>
	<g>
		<path class="st9" d="M304.1,248.6l-4.5-16.2l-15.5-7.5c0,4.1-0.2,12.8-3.2,23.7H304.1z"/>
	</g>
	<g>
		<polygon class="st9" points="278.4,248.6 276.8,235.3 272.7,235.3 271.2,248.6 		"/>
	</g>
	<g>
		<path class="st12" d="M267.1,221.8c0,0-1,5.4,7.7,9.7c0,0-6.5,0.5-8.3,6.5C266.4,238.3,262.9,225,267.1,221.8z"/>
	</g>
	<g>
		<path class="st12" d="M282.5,221.8c0,0,1,5.4-7.7,9.7c0,0,6.5,0.5,8.3,6.5C283.2,238.3,286.7,225,282.5,221.8z"/>
	</g>
</g>
<g id="user_female1">
	<g>
		<g>
			<path class="st2" d="M129.1,194.8c-7.4-5.1-18.1,0.8-19,14.7l0,0c-0.3,4,0.2,8.2,1.2,11.3c0,0.1,0,0.1,0.1,0.2
				c0.2,0.6,0.4,1.1,0.7,1.6c0.4,0.9,0.9,1.6,1.4,2.1c0.2,0.2,0.5,0.4,0.8,0.6c0.6,0.3,1.4,0.5,2.4,0.5h14.4c1,0,1.7-0.2,2.3-0.5
				c0.3-0.2,0.6-0.4,0.9-0.6c0.6-0.5,1-1.2,1.4-2.1c0.2-0.5,0.5-1,0.7-1.6c0-0.1,0-0.1,0.1-0.2c0.3-1.1,0.6-2.2,0.8-3.5
				C139.7,204.2,136.4,195.3,129.1,194.8z"/>
		</g>
		<g>
			<g>
				<path class="st1" d="M124.1,207.4c2.9,0,5.3,9.2,5.3,15.9c0,6.7-2.3,12.1-5.2,12.1c-2.9,0-5.2-5.4-5.2-12.1
					C118.9,216.7,121.2,207.4,124.1,207.4z"/>
			</g>
			<g>
				<polygon class="st1" points="116.3,226.7 119,225.6 129.3,225.6 131.8,226.7 129.3,242.2 117.4,242.2 				"/>
			</g>
			<g>
				<g>
					<g>
						
							<ellipse transform="matrix(0.9804 -0.1971 0.1971 0.9804 -39.6166 26.9356)" class="st3" cx="115.5" cy="212.5" rx="2" ry="3.2"/>
					</g>
					<g>
						
							<ellipse transform="matrix(0.1971 -0.9804 0.9804 0.1971 -101.6436 300.8426)" class="st3" cx="132.8" cy="212.5" rx="3.2" ry="2"/>
					</g>
				</g>
				<g>
					<path class="st3" d="M124.1,225.8c-4.7,0-9.6-5.6-9.6-12.6c0-1.2,0.2-2.4,0.4-3.5c0.4-1.3,2.1-2.9,2.3-4.1
						c0.9-5.4,4-11.3,11.9-2c0,0,1.8,0.9,3.2,3.2c0.9,1.9,1.5,4.1,1.5,6.4C133.7,220.2,128.8,225.8,124.1,225.8z"/>
				</g>
			</g>
			<g>
				<path class="st2" d="M132.6,209.4c0,0-0.8-0.1-1.9-0.2l0,0l-0.4-2l-0.4,1.9c-0.5-0.1-1-0.1-1.5-0.2l-0.8-4.8l-0.6,4.6
					c-0.9-0.1-2.2-0.2-2.7-0.2c0,0,0,0,0,0l-0.3-2.7l-0.5,2.8c-1.2,0.1-2.8,0.2-4.3,0.4l-0.3-4.6l-0.6,4.7c-1.4,0.2-2.4,0.3-2.4,0.3
					s-1.3-12.3,8.5-10.7C124.1,198.7,134.2,197.6,132.6,209.4z"/>
			</g>
			<g>
				<path class="st16" d="M144.2,234.9c-2.2-5.7-13.4-8.6-13.4-8.6h0c-0.3,3.9-3.2,6.9-6.7,6.9c-3.5,0-6.4-3-6.7-6.9h0
					c0,0-11.4,2.9-13.6,8.6c-1.8,4.7-3.6,11.4-4.2,13.7h48.8C147.9,246.3,146.1,239.6,144.2,234.9z"/>
			</g>
		</g>
	</g>
</g>
<g id="user_male1">
	<g>
		<path class="st16" d="M450.1,118c-0.9-7.1-5.9-8.5-5.9-8.5l-12.2-4.3c-2.8,2.6-7.6,2-7.6,2s-4.8,0.6-7.6-2l-12.2,4.3
			c0,0-5.1,1.4-5.9,8.5l-3.1,14.2h28.9h28.9L450.1,118z"/>
	</g>
	<g>
		<g>
			<ellipse class="st1" cx="424.4" cy="106.7" rx="7.8" ry="7.9"/>
		</g>
		<g>
			<g>
				<g>
					
						<ellipse transform="matrix(0.9804 -0.1972 0.1972 0.9804 -10.6035 83.6316)" class="st3" cx="414.7" cy="95.1" rx="2.1" ry="3.3"/>
				</g>
				<g>
					
						<ellipse transform="matrix(0.1971 -0.9804 0.9804 0.1971 255.2792 501.8356)" class="st3" cx="434" cy="95.1" rx="3.3" ry="2.1"/>
				</g>
			</g>
			<g>
				<g>
					<path class="st3" d="M434.3,95.8c0,7.3-5.2,13.2-10.1,13.2c-4.9,0-10.1-5.9-10.1-13.2c0-7.3,5.2-13.2,10.1-13.2
						C429.1,82.7,434.3,88.6,434.3,95.8z"/>
				</g>
				<g>
					<path class="st8" d="M434.3,95.4c0.4-0.7,0.7-1.5,1-2.3c3-8.5-0.5-12.9-4.9-13.1l0,0c-1.6-2.6-4.3-4-7.6-3.9
						c-5.7,0.2-10.8,4.6-10.5,11.3c0.1,2.8,0.8,5.6,1.9,8c0,0-0.1-5.6,2.9-6c2.9-0.4,10.7,0.4,12.4-3.6
						C429.4,85.8,434.4,88.3,434.3,95.4z"/>
				</g>
			</g>
		</g>
	</g>
</g>
<g id="user_female">
	<g>
		<path class="st2" d="M279.6,77.6c-7.2-5.7-17.4,0.9-18.3,16.2l0.1,0c-0.3,4.4,0.1,9,1.1,12.4c0,0.1,0,0.1,0.1,0.2
			c0.2,0.6,0.4,1.2,0.6,1.8c0.4,0.9,0.8,1.7,1.4,2.3c0.2,0.2,0.5,0.5,0.8,0.6c0.6,0.4,1.4,0.6,2.3,0.6h13.9c0.9,0,1.7-0.2,2.3-0.5
			c0.3-0.2,0.6-0.4,0.8-0.7c0.5-0.6,1-1.4,1.4-2.3c0.2-0.5,0.4-1.1,0.6-1.8c0-0.1,0-0.1,0.1-0.2c0.3-1.2,0.6-2.5,0.8-3.8
			C289.7,87.9,286.6,78.1,279.6,77.6z"/>
	</g>
	<g>
		<path class="st1" d="M274.8,90.3c2.9,0,5.4,9.4,5.4,16.3c0,6.8-2.4,12.4-5.3,12.4c-2.9,0-5.3-5.5-5.3-12.4
			C269.6,99.7,271.9,90.3,274.8,90.3z"/>
	</g>
	<g>
		<polygon class="st1" points="266.9,110 269.7,108.8 280.1,108.8 282.7,110 280.1,125.7 268,125.7 		"/>
	</g>
	<g>
		<g>
			<g>
				
					<ellipse transform="matrix(0.9805 -0.1968 0.1968 0.9805 -13.5768 54.2161)" class="st3" cx="266.1" cy="95.4" rx="2" ry="3.2"/>
			</g>
			<g>
				
					<ellipse transform="matrix(0.1968 -0.9804 0.9804 0.1968 134.3307 354.8413)" class="st3" cx="283.7" cy="95.4" rx="3.2" ry="2"/>
			</g>
		</g>
		<g>
			<path class="st3" d="M274.8,109c-4.8,0-9.8-5.8-9.8-12.9c0-1.2,0.2-2.4,0.4-3.5c0.4-1.3,2.1-2.9,2.4-4.2c0.9-5.5,4-11.5,12.1-2.1
				c0,0,1.9,0.9,3.3,3.3c0.9,1.9,1.5,4.1,1.5,6.5C284.6,103.3,279.6,109,274.8,109z"/>
		</g>
	</g>
	<g>
		<g>
			<g>
				<path class="st14" d="M274.8,115.6c-3.7,0-6.9-1.8-8.6-4.4h-1.5v18.3h19v-18.3h-0.3C281.7,113.9,278.5,115.6,274.8,115.6z"/>
			</g>
		</g>
		<g>
			<path class="st15" d="M299.9,132.2c-0.6-2.3-2.4-9.2-4.3-14c-2.3-5.9-12.8-8.2-12.8-8.2s-1.9,9.4-7.9,17.3
				c-6-8-7.9-17.3-7.9-17.3s-10.5,2.4-12.8,8.2c-1.9,4.8-3.7,11.7-4.3,14H299.9z"/>
		</g>
	</g>
	<g>
		<path class="st4" d="M283.6,94.7c2.8-9.2-5.3-14.4-10.3-14.4c-5.6,0-10.2,8.7-9.3,14.6c3-1.4,5.6-4.1,12.2-8.5
			c-1,1.3-2.8,3.6-9.1,7.9c3.4,0.4,9.7-2.8,13.1-6.2C280.9,90.6,282.1,93.2,283.6,94.7z"/>
	</g>
</g>
<g id="user_male_24_">
	<g>
		<g>
			<path class="st15" d="M149.9,117.9c-0.9-7.1-6-8.6-6-8.6l-12.3-4.3c-2.9,2.6-7.7,2-7.7,2s-4.5,0.6-7.4-2l-12.3,4.3
				c0,0-5.1,1.4-6,8.6l-3.1,14.3h28.8H153L149.9,117.9z"/>
		</g>
		<g>
			<g>
				<path class="st14" d="M116.5,105.1c0,0-0.9,5.4,7.6,9.5c0,0-6.4,0.5-8.2,6.4C115.7,121.3,112.3,108.2,116.5,105.1z"/>
			</g>
			<g>
				<path class="st14" d="M131.7,105.1c0,0,0.9,5.4-7.6,9.5c0,0,6.4,0.5,8.2,6.4C132.3,121.3,135.8,108.2,131.7,105.1z"/>
			</g>
		</g>
	</g>
	<g>
		<g>
			<ellipse class="st1" cx="124.1" cy="106.7" rx="7.8" ry="7.9"/>
		</g>
		<g>
			<g>
				<g>
					
						<ellipse transform="matrix(0.9804 -0.1969 0.1969 0.9804 -16.4763 24.3746)" class="st3" cx="114.4" cy="95.1" rx="2.1" ry="3.3"/>
				</g>
				<g>
					
						<ellipse transform="matrix(0.1969 -0.9804 0.9804 0.1969 14.1871 207.4551)" class="st3" cx="133.7" cy="95.1" rx="3.3" ry="2.1"/>
				</g>
			</g>
			<g>
				<g>
					<path class="st3" d="M134,95.8c0,7.3-5.2,13.2-10.1,13.2c-4.9,0-10.1-5.9-10.1-13.2c0-7.3,5.2-13.2,10.1-13.2
						C128.8,82.7,134,88.6,134,95.8z"/>
				</g>
				<g>
					<path class="st8" d="M134,95.4c0.4-0.7,0.7-1.5,1-2.3c3-8.5-0.5-12.9-4.9-13.1l0,0c-1.6-2.6-4.3-4-7.6-3.9
						c-5.7,0.2-10.8,4.6-10.5,11.3c0.1,2.8,0.8,5.6,1.9,8c0,0-0.1-5.6,2.9-6c2.9-0.4,10.7,0.4,12.4-3.6
						C129.1,85.8,134.1,88.3,134,95.4z"/>
				</g>
			</g>
		</g>
	</g>
</g>
</svg>
