<svg id="Layer_1" data-name="Layer 1" xmlns="http://www.w3.org/2000/svg" width="96" height="96" viewBox="0 0 96 96"><title>Artboard 18_users</title><g id="user_female_group1" data-name="user female group1"><path d="M52.459,24.421c-6.525-5-15.831.783-16.663,14.342h0A32.827,32.827,0,0,0,36.845,49.8c.013.055.03.107.048.162a14.564,14.564,0,0,0,.576,1.577,6.915,6.915,0,0,0,1.241,2.03,3.379,3.379,0,0,0,.7.569,4,4,0,0,0,2.133.521H54.2a4.039,4.039,0,0,0,2.063-.481,3.232,3.232,0,0,0,.766-.609,6.876,6.876,0,0,0,1.243-2.03,14.776,14.776,0,0,0,.577-1.577c.017-.055.033-.107.048-.167a24.611,24.611,0,0,0,.725-3.4C61.686,33.567,58.865,24.9,52.459,24.421Z" fill="#634738"/><path d="M47.926,35.138c2.68,0,4.919,8.587,4.919,14.823S50.672,61.255,48,61.255,43.144,56.2,43.144,49.961,45.247,35.138,47.926,35.138Z" fill="#f4cc90"/><polygon points="40.723 53.06 43.224 52.03 52.764 52.03 55.135 53.06 52.768 67.457 41.702 67.457 40.723 53.06" fill="#f4cc90"/><path d="M41.737,39.451c.318,1.587-.228,3.039-1.222,3.239s-2.057-.929-2.376-2.518.228-3.038,1.222-3.235S41.417,37.862,41.737,39.451Z" fill="#ffd997"/><path d="M54.266,39.451c-.32,1.587.227,3.039,1.221,3.239s2.057-.929,2.374-2.518-.227-3.038-1.22-3.235S54.584,37.862,54.266,39.451Z" fill="#ffd997"/><path d="M47.928,52.217c-4.339,0-8.968-5.249-8.968-11.725a13.553,13.553,0,0,1,.4-3.223c.338-1.178,1.961-2.65,2.15-3.827.8-5.012,3.692-10.528,11.029-1.871a8.062,8.062,0,0,1,2.97,2.976,13.479,13.479,0,0,1,1.387,5.945C56.894,46.968,52.265,52.217,47.928,52.217Z" fill="#ffd997"/><path d="M55.866,36.912s-.741-.1-1.784-.227h0l-.4-1.846-.388,1.749c-.455-.053-.939-.11-1.431-.165l-.774-4.453-.545,4.3c-.81-.07-2.067-.157-2.549-.157h-.011l-.307-2.552-.489,2.582c-1.087.062-2.614.222-3.975.382L42.9,32.209l-.512,4.416c-1.288.157-2.265.287-2.265.287S38.866,25.486,48,27C48,27,57.392,26,55.866,36.912Z" fill="#634738"/><path d="M54.98,55.672a5.564,5.564,0,0,1-1.623,1.646c-.4,1.3-2.64,2.3-5.345,2.3-2.551,0-4.685-.89-5.26-2.085a6.115,6.115,0,0,1-1.68-1.462c.036,1.145.767,4.919,4.42,16.941h5.1C54.936,58.73,55.15,56.091,54.98,55.672Z" fill="#d1d3d4"/><path d="M70.968,73.359a126.432,126.432,0,0,0-3.932-12.765c-2.1-5.351-14.265-8.564-14.265-8.564a29.456,29.456,0,0,1-4.739,19.034h0a31.74,31.74,0,0,1-4.8-19.034s-12.164,3.213-14.265,8.564a126.751,126.751,0,0,0-3.933,12.765Z" fill="#536d79"/><path d="M43.23,51.58s-.72,8.8,4.8,19.484A29.133,29.133,0,0,1,37.04,57.912L40.1,56.488l-.9-1.714Z" fill="#f1f1f2"/><path d="M52.771,51.58s.784,8.8-4.739,19.484a29.2,29.2,0,0,0,10.93-13.152L55.9,56.488l.9-1.714Z" fill="#f1f1f2"/><path d="M25.866,29.974c-4.325-3.318-10.491.519-11.043,9.5h0a21.736,21.736,0,0,0,.7,7.317c.009.038.02.07.032.107a9.4,9.4,0,0,0,.382,1.046,4.565,4.565,0,0,0,.822,1.344,2.126,2.126,0,0,0,.461.377,2.658,2.658,0,0,0,1.415.347H27.02a2.676,2.676,0,0,0,1.367-.32,2.226,2.226,0,0,0,.509-.4,4.545,4.545,0,0,0,.823-1.344A9.4,9.4,0,0,0,30.1,46.9c.011-.037.023-.069.032-.109a16.344,16.344,0,0,0,.481-2.255C31.98,36.034,30.111,30.291,25.866,29.974Z" fill="#634738"/><path d="M22.863,37.076c1.774,0,3.258,5.691,3.258,9.822s-1.439,7.484-3.214,7.484-3.214-3.35-3.214-7.484S21.087,37.076,22.863,37.076Z" fill="#f4cc90"/><polygon points="18.09 48.951 19.746 48.27 26.067 48.27 27.64 48.951 26.069 58.491 18.738 58.491 18.09 48.951" fill="#f4cc90"/><path d="M18.761,39.933c.211,1.053-.152,2.013-.809,2.148s-1.364-.616-1.574-1.669.151-2.013.807-2.146S18.549,38.88,18.761,39.933Z" fill="#ffd997"/><path d="M27.063,39.933c-.212,1.053.151,2.013.809,2.148s1.362-.616,1.573-1.669-.149-2.013-.807-2.146S27.274,38.88,27.063,39.933Z" fill="#ffd997"/><path d="M22.863,48.392c-2.874,0-5.943-3.477-5.943-7.768a9.041,9.041,0,0,1,.264-2.136c.224-.783,1.3-1.758,1.423-2.537.535-3.32,2.448-6.975,7.31-1.239a5.341,5.341,0,0,1,1.968,1.973,8.922,8.922,0,0,1,.92,3.939C28.805,44.915,25.738,48.392,22.863,48.392Z" fill="#ffd997"/><path d="M28.124,38.252s-.492-.068-1.182-.153h0l-.266-1.222-.257,1.16-.948-.11-.514-2.951L24.6,37.827c-.537-.047-1.369-.1-1.69-.1h0L22.7,36.034l-.321,1.709c-.721.04-1.734.147-2.635.254l-.208-2.864-.34,2.929c-.853.1-1.5.19-1.5.19s-.831-7.572,5.222-6.569C22.912,31.683,29.133,31.022,28.124,38.252Z" fill="#634738"/><path d="M27.537,50.682a3.737,3.737,0,0,1-1.075,1.091c-.27.865-1.752,1.526-3.543,1.526-1.691,0-3.1-.588-3.485-1.379a4.126,4.126,0,0,1-1.115-.968c.025.756.51,3.258,2.929,11.223h3.383C27.508,52.708,27.65,50.959,27.537,50.682Z" fill="#d1d3d4"/><path d="M38.13,62.4a83.391,83.391,0,0,0-2.605-8.459c-1.392-3.545-9.452-5.673-9.452-5.673a19.514,19.514,0,0,1-3.141,12.613h0A21.047,21.047,0,0,1,19.75,48.27S11.689,50.4,10.3,53.943A83.5,83.5,0,0,0,7.691,62.4Z" fill="#536d79"/><path d="M19.75,47.971a26.141,26.141,0,0,0,3.182,12.912,19.315,19.315,0,0,1-7.283-8.716l2.031-.943-.6-1.135Z" fill="#f1f1f2"/><path d="M26.073,47.971a25.807,25.807,0,0,1-3.141,12.912,19.36,19.36,0,0,0,7.242-8.716l-2.031-.943.6-1.135Z" fill="#f1f1f2"/><path d="M76.044,29.974c-4.324-3.318-10.491.519-11.042,9.5h0a21.737,21.737,0,0,0,.7,7.317c.009.038.02.07.032.107a9.6,9.6,0,0,0,.383,1.046,4.585,4.585,0,0,0,.821,1.344,2.181,2.181,0,0,0,.462.377,2.649,2.649,0,0,0,1.414.347H77.2a2.681,2.681,0,0,0,1.367-.32,2.237,2.237,0,0,0,.507-.4,4.588,4.588,0,0,0,.824-1.344A9.6,9.6,0,0,0,80.28,46.9c.01-.037.022-.069.032-.109a17.109,17.109,0,0,0,.482-2.255C82.159,36.034,80.288,30.291,76.044,29.974Z" fill="#634738"/><path d="M73.04,37.076c1.775,0,3.26,5.691,3.26,9.822s-1.44,7.484-3.214,7.484-3.215-3.35-3.215-7.484S71.265,37.076,73.04,37.076Z" fill="#f4cc90"/><polygon points="68.267 48.951 69.925 48.27 76.246 48.27 77.818 48.951 76.249 58.491 68.917 58.491 68.267 48.951" fill="#f4cc90"/><path d="M68.939,39.933c.211,1.053-.151,2.013-.81,2.148s-1.363-.616-1.574-1.669.151-2.013.809-2.146S68.728,38.88,68.939,39.933Z" fill="#ffd997"/><path d="M77.241,39.933c-.212,1.053.152,2.013.81,2.148s1.362-.616,1.573-1.669-.151-2.013-.809-2.146S77.451,38.88,77.241,39.933Z" fill="#ffd997"/><path d="M73.041,48.392c-2.873,0-5.941-3.477-5.941-7.768a8.938,8.938,0,0,1,.263-2.136c.224-.783,1.3-1.758,1.424-2.537.532-3.32,2.448-6.975,7.308-1.239a5.347,5.347,0,0,1,1.969,1.973,8.936,8.936,0,0,1,.92,3.939C78.984,44.915,75.915,48.392,73.041,48.392Z" fill="#ffd997"/><path d="M78.3,38.252s-.49-.068-1.181-.153h0l-.265-1.222-.258,1.16-.948-.11-.514-2.951-.361,2.851c-.536-.047-1.368-.1-1.688-.1h-.008l-.2-1.689-.324,1.709c-.721.04-1.732.147-2.635.254l-.206-2.864-.341,2.929c-.852.1-1.5.19-1.5.19s-.831-7.572,5.222-6.569C73.091,31.683,79.312,31.022,78.3,38.252Z" fill="#634738"/><path d="M77.715,50.682a3.692,3.692,0,0,1-1.076,1.091c-.267.865-1.75,1.526-3.542,1.526-1.691,0-3.1-.588-3.485-1.379a4.087,4.087,0,0,1-1.113-.968c.025.756.507,3.258,2.928,11.223h3.384C77.686,52.708,77.827,50.959,77.715,50.682Z" fill="#d1d3d4"/><path d="M88.309,62.4A83.914,83.914,0,0,0,85.7,53.943c-1.393-3.545-9.453-5.673-9.453-5.673A19.514,19.514,0,0,1,73.11,60.883h0A21.042,21.042,0,0,1,69.929,48.27s-8.06,2.128-9.453,5.673A83.97,83.97,0,0,0,57.87,62.4Z" fill="#536d79"/><path d="M69.929,47.971A26.159,26.159,0,0,0,73.11,60.883a19.315,19.315,0,0,1-7.283-8.716l2.031-.943-.6-1.135Z" fill="#f1f1f2"/><path d="M76.251,47.971A25.794,25.794,0,0,1,73.11,60.883a19.359,19.359,0,0,0,7.243-8.716l-2.032-.943.6-1.135Z" fill="#f1f1f2"/></g></svg>