<svg id="Layer_1" data-name="Layer 1" xmlns="http://www.w3.org/2000/svg" width="96" height="96" viewBox="0 0 96 96"><title>Artboard 12_users</title><g id="user_female_group" data-name="user female group"><path d="M26.131,30.3c-4.245-3.355-10.3.523-10.841,9.607l.04.014a22.6,22.6,0,0,0,.642,7.384c.01.036.021.071.031.107a9.76,9.76,0,0,0,.375,1.057,4.642,4.642,0,0,0,.81,1.36,2.151,2.151,0,0,0,.451.381,2.54,2.54,0,0,0,1.389.35h8.238a2.558,2.558,0,0,0,1.342-.323,2.115,2.115,0,0,0,.5-.408,4.64,4.64,0,0,0,.808-1.36,10.207,10.207,0,0,0,.375-1.057c.011-.036.022-.071.032-.111a16.984,16.984,0,0,0,.472-2.279C32.136,36.427,30.3,30.619,26.131,30.3Z" fill="#634738"/><path d="M23.276,37.858c1.744,0,3.2,5.586,3.2,9.645S25.063,54.85,23.32,54.85s-3.155-3.289-3.155-7.347S21.533,37.858,23.276,37.858Z" fill="#f4cc90"/><polygon points="18.59 49.519 20.218 48.849 26.424 48.849 27.966 49.519 26.427 58.885 19.226 58.885 18.59 49.519" fill="#f4cc90"/><path d="M19.25,40.665c.2,1.032-.149,1.976-.8,2.107s-1.34-.6-1.545-1.638.148-1.977.794-2.107S19.041,39.63,19.25,40.665Z" fill="#ffd997"/><path d="M27.4,40.665c-.207,1.032.148,1.976.8,2.107s1.339-.6,1.546-1.638-.149-1.977-.795-2.107S27.608,39.63,27.4,40.665Z" fill="#ffd997"/><path d="M23.277,48.97c-2.823,0-5.835-3.415-5.835-7.628a8.757,8.757,0,0,1,.26-2.1c.219-.768,1.276-1.725,1.4-2.493.523-3.259,2.4-6.847,7.176-1.216a5.238,5.238,0,0,1,1.932,1.936,8.771,8.771,0,0,1,.9,3.869C29.111,45.555,26.1,48.97,23.277,48.97Z" fill="#ffd997"/><path d="M23.279,52.874a6.156,6.156,0,0,1-5.121-2.589h-.867V61.172h11.3V50.285H28.4A6.156,6.156,0,0,1,23.279,52.874Z" fill="#ff897f"/><path d="M38.139,62.71A82.988,82.988,0,0,0,35.581,54.4c-1.37-3.481-7.615-4.885-7.615-4.885A29.193,29.193,0,0,1,23.279,59.8,29.2,29.2,0,0,1,18.59,49.519s-6.246,1.4-7.613,4.885A82.25,82.25,0,0,0,8.418,62.71Z" fill="#ee5450"/><path d="M28.482,40.49c1.683-5.448-3.172-8.572-6.133-8.572-3.335,0-6.073,5.19-5.512,8.672,1.78-.809,3.349-2.411,7.24-5.024-.568.768-1.67,2.163-5.42,4.69,2.017.252,5.777-1.67,7.78-3.68A11.11,11.11,0,0,0,28.482,40.49Z" fill="#634738" fill-rule="evenodd"/><path d="M75.574,30.3c-4.244-3.355-10.3.523-10.84,9.607l.04.014a22.6,22.6,0,0,0,.642,7.384c.009.036.02.071.03.107a9.548,9.548,0,0,0,.376,1.057,4.62,4.62,0,0,0,.809,1.36,2.151,2.151,0,0,0,.451.381,2.545,2.545,0,0,0,1.389.35h8.238a2.558,2.558,0,0,0,1.342-.323,2.115,2.115,0,0,0,.5-.408,4.663,4.663,0,0,0,.809-1.36,9.763,9.763,0,0,0,.374-1.057c.012-.036.022-.071.032-.111a16.984,16.984,0,0,0,.472-2.279C81.579,36.427,79.743,30.619,75.574,30.3Z" fill="#634738"/><path d="M72.719,37.858c1.744,0,3.2,5.586,3.2,9.645s-1.414,7.347-3.157,7.347-3.155-3.289-3.155-7.347S70.976,37.858,72.719,37.858Z" fill="#f4cc90"/><polygon points="68.033 49.519 69.661 48.849 75.867 48.849 77.409 49.519 75.87 58.885 68.669 58.885 68.033 49.519" fill="#f4cc90"/><path d="M68.693,40.665c.2,1.032-.149,1.976-.8,2.107s-1.34-.6-1.545-1.638.148-1.977.794-2.107S68.486,39.63,68.693,40.665Z" fill="#ffd997"/><path d="M76.844,40.665c-.208,1.032.148,1.976.8,2.107s1.337-.6,1.544-1.638-.148-1.977-.8-2.107S77.051,39.63,76.844,40.665Z" fill="#ffd997"/><path d="M72.72,48.97c-2.822,0-5.835-3.415-5.835-7.628a8.757,8.757,0,0,1,.26-2.1c.221-.768,1.277-1.725,1.4-2.493.523-3.259,2.4-6.847,7.177-1.216a5.238,5.238,0,0,1,1.932,1.936,8.784,8.784,0,0,1,.9,3.869C78.554,45.555,75.543,48.97,72.72,48.97Z" fill="#ffd997"/><path d="M72.723,52.874A6.154,6.154,0,0,1,67.6,50.285h-.866V61.172H78.03V50.285h-.188A6.153,6.153,0,0,1,72.723,52.874Z" fill="#ff897f"/><path d="M87.582,62.71A82.722,82.722,0,0,0,85.024,54.4c-1.368-3.481-7.615-4.885-7.615-4.885A29.2,29.2,0,0,1,72.723,59.8a29.189,29.189,0,0,1-4.69-10.284s-6.246,1.4-7.613,4.885a82.25,82.25,0,0,0-2.559,8.306Z" fill="#ee5450"/><path d="M77.927,40.49c1.681-5.448-3.174-8.572-6.135-8.572-3.335,0-6.073,5.19-5.512,8.672,1.78-.809,3.349-2.411,7.24-5.024-.568.768-1.67,2.163-5.419,4.69,2.016.252,5.776-1.67,7.78-3.68A11.062,11.062,0,0,0,77.927,40.49Z" fill="#634738" fill-rule="evenodd"/><path d="M52.354,24.179c-6.48-5.119-15.72.8-16.546,14.662l.061.022a34.493,34.493,0,0,0,.981,11.269c.012.055.029.109.046.164a15.063,15.063,0,0,0,.573,1.611A7.108,7.108,0,0,0,38.7,53.984a3.256,3.256,0,0,0,.691.58,3.878,3.878,0,0,0,2.119.536H54.085a3.909,3.909,0,0,0,2.048-.492,3.3,3.3,0,0,0,.761-.624,7.087,7.087,0,0,0,1.234-2.077A14.851,14.851,0,0,0,58.7,50.3c.018-.055.033-.109.049-.169a25.8,25.8,0,0,0,.72-3.478C61.517,33.529,58.715,24.665,52.354,24.179Z" fill="#634738"/><path d="M48,35.714c2.659,0,4.883,8.526,4.883,14.718s-2.156,11.213-4.817,11.213-4.816-5.02-4.816-11.213S45.336,35.714,48,35.714Z" fill="#f4cc90"/><polygon points="40.845 53.51 43.327 52.487 52.8 52.487 55.154 53.51 52.804 67.803 41.816 67.803 40.845 53.51" fill="#f4cc90"/><path d="M41.85,40c.316,1.576-.227,3.016-1.212,3.214s-2.043-.921-2.359-2.5.227-3.018,1.212-3.216S41.533,38.417,41.85,40Z" fill="#ffd997"/><path d="M54.29,40c-.317,1.576.227,3.016,1.213,3.214s2.042-.921,2.359-2.5S57.635,37.7,56.65,37.5,54.606,38.417,54.29,40Z" fill="#ffd997"/><path d="M48,52.672c-4.308,0-8.9-5.213-8.9-11.642a13.385,13.385,0,0,1,.395-3.2c.336-1.171,1.948-2.633,2.135-3.8.8-4.974,3.666-10.451,10.952-1.857a8.006,8.006,0,0,1,2.948,2.955,13.391,13.391,0,0,1,1.379,5.9C56.9,47.459,52.3,52.672,48,52.672Z" fill="#ffd997"/><path d="M48,58.629a9.388,9.388,0,0,1-7.813-3.951H38.863V71.3H56.1V54.678h-.289A9.389,9.389,0,0,1,48,58.629Z" fill="#ff897f"/><path d="M70.68,73.642a126.608,126.608,0,0,0-3.906-12.675c-2.089-5.313-11.62-7.457-11.62-7.457A44.552,44.552,0,0,1,48,69.205,44.54,44.54,0,0,1,40.845,53.51s-9.532,2.144-11.619,7.457a125.605,125.605,0,0,0-3.907,12.675Z" fill="#ee5450"/><path d="M55.942,39.731c2.567-8.316-4.84-13.085-9.361-13.085-5.09,0-9.27,7.921-8.412,13.238,2.717-1.236,5.11-3.681,11.048-7.667-.865,1.17-2.547,3.3-8.27,7.156,3.078.384,8.815-2.548,11.872-5.617A16.985,16.985,0,0,0,55.942,39.731Z" fill="#634738" fill-rule="evenodd"/></g></svg>