<svg id="Layer_1" data-name="Layer 1" xmlns="http://www.w3.org/2000/svg" width="96" height="96" viewBox="0 0 96 96"><title>Artboard 11_users</title><g id="user_male_group" data-name="user male group"><g id="user_male" data-name="user male"><path d="M43.047,52.786c-.557-4.634-3.9-5.561-3.9-5.561L31.18,44.444c-1.854,1.67-5,1.3-5,1.3s-2.955.372-4.807-1.3L13.4,47.225s-3.337.927-3.894,5.561L7.464,62.057H45.087Z" fill="#ee5450"/><path d="M21.364,44.444s-.615,3.49,4.925,6.2c0,0-4.146.331-5.334,4.186C20.87,54.992,18.615,46.5,21.364,44.444Z" fill="#ff897f"/><path d="M31.215,44.444s.616,3.49-4.926,6.2c0,0,4.147.331,5.337,4.186C31.667,54.992,33.923,46.5,31.215,44.444Z" fill="#ff897f"/><path d="M26.278,40.381A5.13,5.13,0,1,1,21.23,45.51,5.09,5.09,0,0,1,26.278,40.381Z" fill="#f4cc90"/><path d="M21.3,37.687c.232,1.159-.166,2.214-.891,2.36s-1.5-.676-1.73-1.833.166-2.215.89-2.36S21.072,36.529,21.3,37.687Z" fill="#ffd997"/><path d="M31.245,37.687c-.233,1.159.167,2.214.89,2.36s1.5-.676,1.731-1.833S33.7,36,32.977,35.854,31.476,36.529,31.245,37.687Z" fill="#ffd997"/><path d="M32.756,38.446c0,4.718-3.373,8.546-6.535,8.546s-6.536-3.828-6.536-8.546S23.06,29.9,26.221,29.9,32.756,33.728,32.756,38.446Z" fill="#ffd997"/><path d="M32.751,38.168a12.353,12.353,0,0,0,.646-1.51c1.924-5.541-.339-8.377-3.177-8.481l-.011,0a5.314,5.314,0,0,0-4.952-2.5,6.934,6.934,0,0,0-6.809,7.363,13.928,13.928,0,0,0,1.239,5.171s-.037-3.652,1.854-3.921,6.924.267,8.038-2.349C29.579,31.944,32.817,33.534,32.751,38.168Z" fill="#414141"/></g><g id="user_male-2" data-name="user male"><path d="M86.5,52.786c-.558-4.634-3.9-5.561-3.9-5.561L74.63,44.444c-1.854,1.67-5,1.3-5,1.3s-2.955.372-4.808-1.3l-7.973,2.781s-3.336.927-3.893,5.561l-2.039,9.271H88.536Z" fill="#ee5450"/><path d="M64.815,44.444s-.615,3.49,4.924,6.2c0,0-4.146.331-5.335,4.186C64.321,54.992,62.064,46.5,64.815,44.444Z" fill="#ff897f"/><path d="M74.665,44.444s.616,3.49-4.926,6.2c0,0,4.146.331,5.336,4.186C75.116,54.992,77.374,46.5,74.665,44.444Z" fill="#ff897f"/><path d="M69.728,40.381A5.13,5.13,0,1,1,64.68,45.51,5.09,5.09,0,0,1,69.728,40.381Z" fill="#f4cc90"/><path d="M64.755,37.687c.232,1.159-.166,2.214-.892,2.36s-1.5-.676-1.73-1.833.166-2.215.89-2.36S64.523,36.529,64.755,37.687Z" fill="#ffd997"/><path d="M74.695,37.687c-.232,1.159.168,2.214.889,2.36s1.5-.676,1.733-1.833-.165-2.215-.891-2.36S74.927,36.529,74.695,37.687Z" fill="#ffd997"/><path d="M76.205,38.446c0,4.718-3.372,8.546-6.533,8.546s-6.538-3.828-6.538-8.546S66.51,29.9,69.672,29.9,76.205,33.728,76.205,38.446Z" fill="#ffd997"/><path d="M76.2,38.168a11.9,11.9,0,0,0,.646-1.51c1.925-5.541-.338-8.377-3.177-8.481l-.01,0a5.313,5.313,0,0,0-4.951-2.5A6.935,6.935,0,0,0,61.9,33.043a13.948,13.948,0,0,0,1.24,5.171s-.036-3.652,1.855-3.921,6.924.267,8.038-2.349C73.03,31.944,76.266,33.534,76.2,38.168Z" fill="#414141"/></g><g id="user_male-3" data-name="user male"><path d="M72.175,60.857c-.8-6.678-5.615-8.014-5.615-8.014l-11.49-4.01c-2.672,2.406-7.214,1.872-7.214,1.872s-4.257.534-6.927-1.872l-11.491,4.01s-4.81,1.336-5.612,8.014L20.886,74.22H75.114Z" fill="#ee5450"/><path d="M40.922,48.833s-.887,5.029,7.1,8.932c0,0-5.976.474-7.69,6.033C40.211,64.037,36.958,51.792,40.922,48.833Z" fill="#ff897f"/><path d="M55.12,48.833s.888,5.029-7.1,8.932c0,0,5.976.474,7.691,6.033C55.77,64.037,59.024,51.792,55.12,48.833Z" fill="#ff897f"/><path d="M48,42.977a7.395,7.395,0,1,1-7.275,7.393A7.336,7.336,0,0,1,48,42.977Z" fill="#f4cc90"/><path d="M40.835,39.1c.335,1.669-.239,3.191-1.284,3.4s-2.16-.973-2.493-2.642.238-3.19,1.282-3.4S40.5,37.426,40.835,39.1Z" fill="#ffd997"/><path d="M55.164,39.1c-.335,1.669.241,3.191,1.282,3.4s2.162-.973,2.5-2.642-.238-3.19-1.283-3.4S55.5,37.426,55.164,39.1Z" fill="#ffd997"/><path d="M57.342,40.189c0,6.8-4.862,12.316-9.42,12.316S38.5,46.989,38.5,40.189s4.864-12.315,9.42-12.315S57.342,33.387,57.342,40.189Z" fill="#ffd997"/><path d="M57.334,39.787a17.1,17.1,0,0,0,.93-2.178c2.775-7.983-.487-12.071-4.578-12.222l-.015.009a7.658,7.658,0,0,0-7.138-3.608A9.994,9.994,0,0,0,36.719,32.4a20.052,20.052,0,0,0,1.787,7.454s-.054-5.262,2.67-5.651,9.982.385,11.587-3.386C52.763,30.816,57.428,33.109,57.334,39.787Z" fill="#414141"/></g></g></svg>