<svg id="Layer_1" data-name="Layer 1" xmlns="http://www.w3.org/2000/svg" width="96" height="96" viewBox="0 0 96 96"><title>Artboard 13_users</title><g id="user_male_and_female" data-name="user male and female"><path d="M67.072,28.6c-5.975-4.722-14.5.738-15.26,13.524l.056.02a31.791,31.791,0,0,0,.905,10.394c.011.051.026.1.042.151a13.613,13.613,0,0,0,.53,1.488,6.522,6.522,0,0,0,1.137,1.915,3.022,3.022,0,0,0,.636.534,3.584,3.584,0,0,0,1.955.5h11.6a3.624,3.624,0,0,0,1.889-.454,3.023,3.023,0,0,0,.7-.575A6.544,6.544,0,0,0,72.4,54.174a13.411,13.411,0,0,0,.528-1.488c.017-.051.031-.1.044-.155a23.682,23.682,0,0,0,.666-3.209C75.525,37.221,72.941,29.046,67.072,28.6Z" fill="#634738"/><path d="M63.054,39.237c2.454,0,4.5,7.863,4.5,13.575S65.57,63.155,63.116,63.155s-4.442-4.63-4.442-10.343S60.6,39.237,63.054,39.237Z" fill="#f4cc90"/><polygon points="56.457 55.651 58.747 54.708 67.485 54.708 69.657 55.651 67.488 68.835 57.354 68.835 56.457 55.651" fill="#f4cc90"/><path d="M57.385,43.186c.291,1.455-.209,2.782-1.118,2.966s-1.886-.849-2.176-2.3.208-2.785,1.118-2.967S57.092,41.731,57.385,43.186Z" fill="#ffd997"/><path d="M68.859,43.186c-.293,1.455.209,2.782,1.119,2.966s1.885-.849,2.176-2.3-.209-2.785-1.118-2.967S69.151,41.731,68.859,43.186Z" fill="#ffd997"/><path d="M63.054,54.877c-3.974,0-8.212-4.807-8.212-10.737a12.377,12.377,0,0,1,.364-2.951c.31-1.08,1.8-2.428,1.97-3.507.734-4.589,3.381-9.641,10.1-1.713A7.361,7.361,0,0,1,70,38.694a12.364,12.364,0,0,1,1.27,5.446C71.267,50.07,67.027,54.877,63.054,54.877Z" fill="#ffd997"/><path d="M63.058,60.372a8.66,8.66,0,0,1-7.208-3.645H54.629V72.054h15.9V56.727h-.267A8.654,8.654,0,0,1,63.058,60.372Z" fill="#ff897f"/><path d="M83.977,74.22a117.052,117.052,0,0,0-3.6-11.691c-1.927-4.9-10.717-6.878-10.717-6.878a41.118,41.118,0,0,1-6.6,14.476,41.079,41.079,0,0,1-6.6-14.476s-8.792,1.978-10.716,6.878a115.783,115.783,0,0,0-3.6,11.691Z" fill="#ee5450"/><path d="M70.384,42.94c2.367-7.669-4.466-12.068-8.635-12.068-4.7,0-8.55,7.306-7.759,12.211,2.5-1.14,4.713-3.4,10.189-7.073-.8,1.08-2.349,3.044-7.627,6.6,2.84.356,8.131-2.35,10.95-5.18A15.635,15.635,0,0,0,70.384,42.94Z" fill="#634738" fill-rule="evenodd"/><g id="user_male" data-name="user male"><path d="M63.312,60.857c-.8-6.678-5.614-8.014-5.614-8.014L46.207,48.834c-2.671,2.4-7.213,1.871-7.213,1.871s-4.258.534-6.928-1.871L20.575,52.843s-4.81,1.336-5.612,8.014L12.023,74.22H66.251Z" fill="#ee5450"/><path d="M32.06,48.834s-.888,5.028,7.1,8.932c0,0-5.975.474-7.689,6.032C31.349,64.038,28.1,51.791,32.06,48.834Z" fill="#ff897f"/><path d="M46.259,48.834s.886,5.028-7.1,8.932c0,0,5.975.474,7.69,6.032C46.908,64.038,50.163,51.791,46.259,48.834Z" fill="#ff897f"/><path d="M39.142,42.977a7.4,7.4,0,1,1-7.277,7.393A7.336,7.336,0,0,1,39.142,42.977Z" fill="#f4cc90"/><path d="M31.973,39.1c.335,1.669-.239,3.191-1.284,3.4s-2.161-.973-2.494-2.64.238-3.192,1.283-3.4S31.639,37.426,31.973,39.1Z" fill="#ffd997"/><path d="M46.3,39.1c-.336,1.669.241,3.191,1.282,3.4s2.161-.973,2.495-2.64-.238-3.192-1.283-3.4S46.635,37.426,46.3,39.1Z" fill="#ffd997"/><path d="M48.479,40.189c0,6.8-4.862,12.316-9.419,12.316s-9.421-5.516-9.421-12.316S34.5,27.875,39.06,27.875,48.479,33.388,48.479,40.189Z" fill="#ffd997"/><path d="M48.471,39.787a16.959,16.959,0,0,0,.931-2.178c2.774-7.983-.487-12.071-4.579-12.222l-.014.008a7.665,7.665,0,0,0-7.139-3.607A10,10,0,0,0,27.855,32.4a20.082,20.082,0,0,0,1.788,7.455s-.053-5.264,2.672-5.653,9.98.386,11.585-3.384C43.9,30.818,48.566,33.109,48.471,39.787Z" fill="#414141"/></g></g></svg>