<svg id="Layer_1" data-name="Layer 1" xmlns="http://www.w3.org/2000/svg" width="96" height="96" viewBox="0 0 96 96"><title>Artboard 15_users</title><g id="user_group" data-name="user group"><g id="user_male" data-name="user male"><path d="M44.6,52.705c-.583-4.864-4.087-5.84-4.087-5.84l-8.369-2.919c-1.943,1.752-5.253,1.362-5.253,1.362s-3.308.39-5.253-1.362l-8.369,2.919s-3.5.976-4.088,5.84L7.042,62.434h39.7Z" fill="#536d79"/><path d="M26.883,39.637a5.441,5.441,0,1,1-5.353,5.44A5.4,5.4,0,0,1,26.883,39.637Z" fill="#f4cc90"/><path d="M21.66,43.946s-.652,3.7,5.223,6.571c0,0-4.395.35-5.658,4.441C21.138,55.132,18.746,46.122,21.66,43.946Z" fill="#ff897f"/><path d="M32.106,43.946s.653,3.7-5.223,6.571c0,0,4.4.35,5.658,4.441C32.586,55.132,34.978,46.122,32.106,43.946Z" fill="#ff897f"/><path d="M21.61,36.78c.246,1.23-.177,2.35-.943,2.5s-1.591-.716-1.837-1.944.176-2.347.943-2.5S21.363,35.553,21.61,36.78Z" fill="#ffd997"/><path d="M32.152,36.78c-.248,1.23.176,2.35.943,2.5s1.589-.716,1.836-1.944-.176-2.347-.943-2.5S32.4,35.553,32.152,36.78Z" fill="#ffd997"/><path d="M33.754,37.586c0,5.005-3.578,9.06-6.931,9.06s-6.929-4.055-6.929-9.06,3.576-9.06,6.929-9.06S33.754,32.582,33.754,37.586Z" fill="#ffd997"/><path d="M33.749,37.289a12.444,12.444,0,0,0,.683-1.6c2.041-5.873-.359-8.881-3.368-8.993l-.012,0A5.624,5.624,0,0,0,25.8,24.05a7.349,7.349,0,0,0-7.221,7.806A14.756,14.756,0,0,0,19.9,37.339s-.04-3.871,1.966-4.158,7.341.284,8.524-2.49C30.386,30.691,33.818,32.377,33.749,37.289Z" fill="#414141"/></g><path d="M75.353,25.717c-4.809-3.8-11.668.593-12.282,10.884l.046.017a25.566,25.566,0,0,0,.727,8.364c.009.04.021.082.034.122a11.559,11.559,0,0,0,.425,1.2,5.245,5.245,0,0,0,.916,1.54,2.457,2.457,0,0,0,.512.431,2.871,2.871,0,0,0,1.573.4h9.334a2.92,2.92,0,0,0,1.519-.364,2.427,2.427,0,0,0,.567-.464,5.265,5.265,0,0,0,.915-1.54,11.327,11.327,0,0,0,.426-1.2l.037-.125a19.313,19.313,0,0,0,.534-2.583C82.155,32.657,80.077,26.078,75.353,25.717Z" fill="#473128"/><path d="M72.12,34.278c1.974,0,3.623,6.329,3.623,10.926s-1.6,8.327-3.575,8.327S68.593,49.8,68.593,45.2,70.145,34.278,72.12,34.278Z" fill="#f4cc90"/><polygon points="66.809 47.489 68.653 46.73 75.685 46.73 77.431 47.489 75.688 58.099 67.531 58.099 66.809 47.489" fill="#f4cc90"/><path d="M67.555,37.459c.236,1.167-.167,2.238-.9,2.385s-1.517-.684-1.75-1.854.167-2.24.9-2.387S67.321,36.286,67.555,37.459Z" fill="#ffd997"/><path d="M76.79,37.459c-.234,1.167.167,2.238.9,2.385s1.517-.684,1.751-1.854-.167-2.24-.9-2.387S77.027,36.286,76.79,37.459Z" fill="#ffd997"/><path d="M72.12,46.868c-3.2,0-6.611-3.871-6.611-8.643A9.916,9.916,0,0,1,65.8,35.85c.25-.871,1.445-1.956,1.585-2.824.591-3.692,2.719-7.756,8.13-1.377a5.938,5.938,0,0,1,2.188,2.193,9.964,9.964,0,0,1,1.023,4.383C78.729,43,75.316,46.868,72.12,46.868Z" fill="#ffd997"/><path d="M72.12,51.291a6.975,6.975,0,0,1-5.8-2.934h-.981V60.693h12.8V48.357H77.92A6.972,6.972,0,0,1,72.12,51.291Z" fill="#ff897f"/><path d="M88.958,62.434a94.329,94.329,0,0,0-2.9-9.41c-1.551-3.944-8.628-5.535-8.628-5.535A33.074,33.074,0,0,1,72.12,59.141a33.074,33.074,0,0,1-5.311-11.652s-7.076,1.591-8.624,5.535a93.059,93.059,0,0,0-2.9,9.41Z" fill="#536d79"/><path d="M78.018,37.259c1.9-6.171-3.595-9.711-6.948-9.711-3.782,0-6.885,5.88-6.247,9.826,2.016-.918,3.792-2.731,8.2-5.693-.641.871-1.889,2.45-6.137,5.314,2.286.284,6.544-1.891,8.814-4.169A12.54,12.54,0,0,0,78.018,37.259Z" fill="#473128" fill-rule="evenodd"/><g id="female_user" data-name="female user"><path d="M52.672,24.142c-6.841-4.717-16.593.739-17.467,13.514h0a28,28,0,0,0,1.1,10.4c.013.052.032.1.05.152a13.149,13.149,0,0,0,.6,1.487,6.428,6.428,0,0,0,1.3,1.913,3.474,3.474,0,0,0,.728.534,4.574,4.574,0,0,0,2.237.494H54.5a4.59,4.59,0,0,0,2.16-.454,3.4,3.4,0,0,0,.8-.574,6.387,6.387,0,0,0,1.3-1.913,12.613,12.613,0,0,0,.606-1.487c.017-.052.035-.1.05-.157a21.141,21.141,0,0,0,.761-3.2C62.341,32.762,59.385,24.594,52.672,24.142Z" fill="#634738"/><path d="M48.04,35.76c2.649,0,4.861,8.486,4.861,14.65s-2.145,11.161-4.794,11.161-4.8-5-4.8-11.161S45.392,35.76,48.04,35.76Z" fill="#f4cc90"/><polygon points="40.921 53.474 43.393 52.456 52.822 52.456 55.164 53.474 52.827 67.703 41.889 67.703 40.921 53.474" fill="#f4cc90"/><path d="M41.921,40.021c.317,1.572-.224,3-1.2,3.2s-2.033-.917-2.347-2.486.225-3.006,1.206-3.2S41.607,38.452,41.921,40.021Z" fill="#ffd997"/><path d="M54.306,40.021c-.317,1.572.224,3,1.207,3.2s2.033-.917,2.348-2.486-.225-3.006-1.208-3.2S54.62,38.452,54.306,40.021Z" fill="#ffd997"/><path d="M48.04,52.64c-4.285,0-8.861-5.189-8.861-11.589a13.4,13.4,0,0,1,.393-3.185c.336-1.165,1.938-2.62,2.123-3.785.792-4.949,3.649-10.4,10.9-1.848a7.964,7.964,0,0,1,2.936,2.941,13.355,13.355,0,0,1,1.37,5.877C56.9,47.451,52.329,52.64,48.04,52.64Z" fill="#ffd997"/><path d="M55.82,37.509s-.731-.1-1.764-.225h0l-.4-1.823-.383,1.726-1.414-.162-.766-4.4-.539,4.254c-.8-.07-2.042-.155-2.521-.155h-.008l-.3-2.522-.483,2.55c-1.073.062-2.583.222-3.927.376l-.311-4.266L42.5,37.225c-1.274.154-2.239.284-2.239.284s-1.24-11.3,7.791-9.8C48.051,27.712,57.329,26.724,55.82,37.509Z" fill="#634738"/><path d="M66.561,60.955c-2.064-5.274-12.283-7.881-12.283-7.881h-.016c-.3,3.548-2.94,6.324-6.158,6.324s-5.871-2.786-6.162-6.341h0s-10.441,2.624-12.506,7.9a125.974,125.974,0,0,0-3.861,12.581h44.85A125.819,125.819,0,0,0,66.561,60.955Z" fill="#16bb9d"/></g></g></svg>