<svg id="Layer_1" data-name="Layer 1" xmlns="http://www.w3.org/2000/svg" width="96" height="96" viewBox="0 0 96 96"><title>Artboard 20_users</title><g id="user_male_group3" data-name="user male group3"><polygon points="34.112 61.801 34.112 48.038 26.278 43.73 18.402 48.083 18.402 61.801 34.112 61.801" fill="#d1d3d4"/><polygon points="28.412 50.824 24.105 50.824 24.965 53.244 27.55 53.244 28.412 50.824" fill="#445963"/><path d="M26.278,40.569A5.128,5.128,0,1,1,21.234,45.7,5.089,5.089,0,0,1,26.278,40.569Z" fill="#f4cc90"/><path d="M21.308,37.877c.233,1.158-.165,2.213-.889,2.36s-1.5-.676-1.73-1.834.165-2.212.888-2.355S21.075,36.722,21.308,37.877Z" fill="#ffd997"/><path d="M31.244,37.877c-.235,1.158.164,2.213.888,2.36s1.5-.676,1.729-1.834-.165-2.212-.889-2.355S31.473,36.722,31.244,37.877Z" fill="#ffd997"/><path d="M32.752,38.638c0,4.715-3.372,8.537-6.531,8.537s-6.53-3.822-6.53-8.537,3.37-8.539,6.53-8.539S32.752,33.923,32.752,38.638Z" fill="#ffd997"/><path d="M32.748,38.359a12.191,12.191,0,0,0,.644-1.51c1.923-5.535-.34-8.369-3.176-8.477l-.009.008a5.313,5.313,0,0,0-4.949-2.5,6.926,6.926,0,0,0-6.8,7.357A13.859,13.859,0,0,0,19.693,38.4s-.038-3.647,1.851-3.916,6.919.267,8.033-2.348C29.577,32.139,32.813,33.728,32.748,38.359Z" fill="#414141"/><path d="M21.355,44.63s-.614,3.488,4.923,6.194c0,0-4.142.327-5.331,4.184C20.863,55.173,18.607,46.681,21.355,44.63Z" fill="#f1f1f2"/><path d="M31.2,44.63s.613,3.488-4.923,6.194c0,0,4.145.327,5.332,4.184C31.652,55.173,33.905,46.681,31.2,44.63Z" fill="#f1f1f2"/><path d="M22.35,61.8a58.712,58.712,0,0,1-2.025-15.2L10.4,51.4,7.513,61.8Z" fill="#d1d3d4"/><path d="M45.037,61.8,42.152,51.4l-9.928-4.8A58.743,58.743,0,0,1,30.2,61.8Z" fill="#d1d3d4"/><polygon points="28.549 61.801 27.55 53.244 24.925 53.244 23.971 61.801 28.549 61.801" fill="#536d79"/><polygon points="77.563 61.801 77.563 48.038 69.729 43.73 61.853 48.083 61.853 61.801 77.563 61.801" fill="#d1d3d4"/><polygon points="71.862 50.824 67.555 50.824 68.415 53.244 71.001 53.244 71.862 50.824" fill="#445963"/><path d="M69.729,40.569A5.128,5.128,0,1,1,64.685,45.7,5.088,5.088,0,0,1,69.729,40.569Z" fill="#f4cc90"/><path d="M64.759,37.877c.232,1.158-.165,2.213-.89,2.36s-1.5-.676-1.73-1.834.166-2.212.889-2.355S64.526,36.722,64.759,37.877Z" fill="#ffd997"/><path d="M74.694,37.877c-.234,1.158.165,2.213.889,2.36s1.5-.676,1.728-1.834-.164-2.212-.888-2.355S74.924,36.722,74.694,37.877Z" fill="#ffd997"/><path d="M76.2,38.638c0,4.715-3.372,8.537-6.532,8.537s-6.528-3.822-6.528-8.537S66.512,30.1,69.671,30.1,76.2,33.923,76.2,38.638Z" fill="#ffd997"/><path d="M76.2,38.359a12.037,12.037,0,0,0,.643-1.51c1.924-5.535-.339-8.369-3.175-8.477l-.009.008a5.315,5.315,0,0,0-4.949-2.5,6.927,6.927,0,0,0-6.8,7.357A13.917,13.917,0,0,0,63.143,38.4S63.106,34.756,65,34.487s6.919.267,8.033-2.348C73.028,32.139,76.264,33.728,76.2,38.359Z" fill="#414141"/><path d="M64.806,44.63s-.614,3.488,4.923,6.194c0,0-4.143.327-5.331,4.184C64.313,55.173,62.058,46.681,64.806,44.63Z" fill="#f1f1f2"/><path d="M74.652,44.63s.613,3.488-4.923,6.194c0,0,4.145.327,5.332,4.184C75.1,55.173,77.356,46.681,74.652,44.63Z" fill="#f1f1f2"/><path d="M65.8,61.8a58.7,58.7,0,0,1-2.024-15.2l-9.929,4.8L50.963,61.8Z" fill="#d1d3d4"/><path d="M88.487,61.8,85.6,51.4l-9.927-4.8A58.712,58.712,0,0,1,73.65,61.8Z" fill="#d1d3d4"/><polygon points="72.001 61.801 71.001 53.244 68.374 53.244 67.421 61.801 72.001 61.801" fill="#536d79"/><polygon points="59.216 73.703 59.216 54.01 48.003 47.843 36.734 54.075 36.734 73.703 59.216 73.703" fill="#d1d3d4"/><polygon points="51.057 57.997 44.895 57.997 46.124 61.459 49.824 61.459 51.057 57.997" fill="#445963"/><path d="M48,43.323a7.338,7.338,0,1,1-7.217,7.337A7.28,7.28,0,0,1,48,43.323Z" fill="#f4cc90"/><path d="M40.893,39.471c.332,1.657-.237,3.166-1.275,3.375s-2.143-.965-2.474-2.622.236-3.165,1.272-3.372S40.559,37.817,40.893,39.471Z" fill="#ffd997"/><path d="M55.109,39.471c-.333,1.657.238,3.166,1.271,3.375s2.143-.965,2.475-2.622-.235-3.165-1.271-3.372S55.438,37.817,55.109,39.471Z" fill="#ffd997"/><path d="M57.268,40.559c0,6.745-4.825,12.216-9.345,12.216S38.579,47.3,38.579,40.559,43.4,28.34,47.923,28.34,57.268,33.811,57.268,40.559Z" fill="#ffd997"/><path d="M57.263,40.16A17.808,17.808,0,0,0,58.185,38c2.75-7.92-.485-11.977-4.546-12.126l-.012.007a7.6,7.6,0,0,0-7.082-3.575A9.91,9.91,0,0,0,36.808,32.83a19.869,19.869,0,0,0,1.774,7.394s-.055-5.218,2.648-5.6,9.9.382,11.5-3.358C52.725,31.261,57.355,33.534,57.263,40.16Z" fill="#414141"/><path d="M40.96,49.135S40.082,54.122,48,58c0,0-5.928.469-7.629,5.987C40.256,64.216,37.028,52.067,40.96,49.135Z" fill="#f1f1f2"/><path d="M55.048,49.135S55.926,54.122,48,58c0,0,5.932.469,7.633,5.987C55.694,64.216,58.919,52.067,55.048,49.135Z" fill="#f1f1f2"/><path d="M42.384,73.7a84,84,0,0,1-2.9-21.751l-14.2,6.865L21.152,73.7Z" fill="#d1d3d4"/><path d="M74.847,73.7,70.719,58.817l-14.2-6.865a84.055,84.055,0,0,1-2.9,21.751Z" fill="#d1d3d4"/><polygon points="51.255 73.703 49.824 61.459 46.067 61.459 44.702 73.703 51.255 73.703" fill="#536d79"/></g></svg>