<svg id="Layer_1" data-name="Layer 1" xmlns="http://www.w3.org/2000/svg" width="80" height="80" viewBox="0 0 80 80"><title>Artboard 22_users</title><g id="user_male_and_female2" data-name="user male and female2"><g id="female_user" data-name="female user"><polygon points="47.981 47.995 50.34 47.077 59.335 47.077 61.572 47.995 59.34 60.817 48.904 60.817 47.981 47.995" fill="#f4cc90"/><path d="M58.986,19.8c-6.154-4.36-14.929.681-15.714,12.489h0a26.554,26.554,0,0,0,.99,9.619c.012.045.028.093.044.14a12.293,12.293,0,0,0,.544,1.372,5.957,5.957,0,0,0,1.17,1.769,3.148,3.148,0,0,0,.658.494,4.014,4.014,0,0,0,2.013.456H60.63a4.063,4.063,0,0,0,1.946-.419,3.131,3.131,0,0,0,.722-.531,5.922,5.922,0,0,0,1.172-1.769,12.294,12.294,0,0,0,.543-1.372c.017-.047.032-.095.047-.145a20.255,20.255,0,0,0,.683-2.963C67.688,27.76,65.027,20.212,58.986,19.8Z" fill="#634738"/><path d="M54.7,30.031c2.527,0,4.636,8.1,4.636,13.977s-.525,10.65-4.571,10.65c-3.53,0-4.576-4.066-4.576-10.65C50.191,38.128,52.176,30.031,54.7,30.031Z" fill="#f4cc90"/><path d="M48.864,34.1c.3,1.5-.216,2.866-1.151,3.053s-1.941-.873-2.24-2.37.214-2.866,1.151-3.053S48.564,32.6,48.864,34.1Z" fill="#ffd997"/><path d="M60.679,34.1c-.3,1.5.216,2.866,1.152,3.053s1.94-.873,2.241-2.37-.215-2.866-1.153-3.053S60.979,32.6,60.679,34.1Z" fill="#ffd997"/><path d="M54.7,46.136c-4.091,0-8.457-4.952-8.457-11.056a12.819,12.819,0,0,1,.374-3.039c.321-1.112,1.85-2.5,2.027-3.609.757-4.725,3.483-9.927,10.4-1.767a7.612,7.612,0,0,1,2.8,2.807,12.756,12.756,0,0,1,1.308,5.608C63.159,41.184,58.793,46.136,54.7,46.136Z" fill="#ffd997"/><path d="M62.181,31.57c2.226-7.215-4.2-11.349-8.122-11.349-4.418,0-8.042,6.868-7.3,11.484,2.358-1.073,4.433-3.2,9.583-6.654-.749,1.016-2.209,2.862-7.174,6.209,2.672.335,7.648-2.212,10.3-4.874A14.662,14.662,0,0,0,62.181,31.57Z" fill="#634738" fill-rule="evenodd"/><path d="M54.767,52.725c-5.357.092-4.483-5.648-4.483-5.648s-11.47,2.863-13.453,7.628a107.888,107.888,0,0,0-3.708,11.369h43.32a107.99,107.99,0,0,0-3.71-11.369c-1.983-4.765-13.452-7.628-13.452-7.628S60.135,52.632,54.767,52.725Z" fill="#d1d3d4"/><path d="M50.264,45.962a7.264,7.264,0,0,0,4.5,6.763l-5.937,3.8S47.214,47.81,50.264,45.962Z" fill="#f1f1f2"/><path d="M59.266,45.962a7.262,7.262,0,0,1-4.5,6.763l5.935,3.8S62.317,47.81,59.266,45.962Z" fill="#f1f1f2"/></g><polygon points="42.167 66.074 42.167 46.096 30.794 39.842 19.363 46.164 19.363 66.074 42.167 66.074" fill="#d1d3d4"/><polygon points="33.892 50.14 27.641 50.14 28.889 53.653 32.641 53.653 33.892 50.14" fill="#445963"/><path d="M30.794,35.257A7.442,7.442,0,1,1,23.472,42.7,7.384,7.384,0,0,1,30.794,35.257Z" fill="#f4cc90"/><path d="M23.582,31.35c.337,1.679-.241,3.211-1.294,3.423s-2.172-.981-2.509-2.659.238-3.213,1.29-3.423S23.243,29.671,23.582,31.35Z" fill="#ffd997"/><path d="M38,31.35c-.338,1.679.242,3.211,1.29,3.423s2.174-.981,2.511-2.659-.24-3.213-1.29-3.423S38.335,29.671,38,31.35Z" fill="#ffd997"/><ellipse cx="30.713" cy="32.45" rx="9.478" ry="12.394" fill="#ffd997"/><path d="M40.188,32.049a17.726,17.726,0,0,0,.934-2.2c2.79-8.032-.493-12.146-4.611-12.3l-.013.007a7.7,7.7,0,0,0-7.183-3.627,10.056,10.056,0,0,0-9.877,10.677,20.149,20.149,0,0,0,1.8,7.5s-.056-5.3,2.687-5.688,10.043.389,11.66-3.4C35.584,23.021,40.28,25.326,40.188,32.049Z" fill="#414141"/><path d="M23.649,41.152s-.89,5.059,7.145,8.988c0,0-6.012.477-7.738,6.075C22.935,56.452,19.66,44.125,23.649,41.152Z" fill="#f1f1f2"/><path d="M37.94,41.152s.891,5.059-7.146,8.988c0,0,6.016.477,7.742,6.075C38.6,56.452,41.868,44.125,37.94,41.152Z" fill="#f1f1f2"/><path d="M25.094,66.074a85.181,85.181,0,0,1-2.94-22.066L7.745,50.976l-4.188,15.1Z" fill="#d1d3d4"/><path d="M58.025,66.074l-4.189-15.1L39.427,44.008a85.212,85.212,0,0,1-2.939,22.066Z" fill="#d1d3d4"/><polygon points="34.092 66.074 32.641 53.653 28.831 53.653 27.446 66.074 34.092 66.074" fill="#536d79"/></g></svg>