<svg id="Layer_1" data-name="Layer 1" xmlns="http://www.w3.org/2000/svg" width="96" height="96" viewBox="0 0 96 96"><title>Artboard 21_users</title><g id="user_female_group2" data-name="user female group2"><g id="female_user" data-name="female user"><polygon points="18.151 49.587 19.799 48.948 26.087 48.948 27.65 49.587 26.089 58.55 18.796 58.55 18.151 49.587" fill="#f4cc90"/><path d="M25.842,30.7c-4.3-3.4-10.435.529-10.982,9.729h0a22.956,22.956,0,0,0,.692,7.494c.009.035.02.07.03.11a10.034,10.034,0,0,0,.382,1.068,4.67,4.67,0,0,0,.816,1.379,2.179,2.179,0,0,0,.46.384,2.562,2.562,0,0,0,1.406.355h8.345a2.619,2.619,0,0,0,1.36-.325,2.272,2.272,0,0,0,.505-.414,4.693,4.693,0,0,0,.818-1.379,9.826,9.826,0,0,0,.379-1.068c.013-.04.023-.075.034-.115a17.212,17.212,0,0,0,.478-2.307C31.924,36.906,30.063,31.026,25.842,30.7Z" fill="#634738"/><path d="M22.849,37.033c1.763,0,3.239,5.658,3.239,9.77s-.368,7.441-3.2,7.441c-2.467,0-3.2-2.841-3.2-7.441C19.7,42.691,21.083,37.033,22.849,37.033Z" fill="#f4cc90"/><path d="M18.769,39.875c.208,1.048-.151,2-.806,2.135S16.607,41.4,16.4,40.351s.149-2,.8-2.133S18.558,38.827,18.769,39.875Z" fill="#ffd997"/><path d="M27.025,39.875c-.21,1.048.151,2,.806,2.135s1.354-.613,1.565-1.659-.151-2-.8-2.133S27.236,38.827,27.025,39.875Z" fill="#ffd997"/><path d="M22.849,48.289c-2.86,0-5.91-3.46-5.91-7.728a8.893,8.893,0,0,1,.262-2.123c.223-.778,1.292-1.746,1.417-2.522.527-3.3,2.432-6.94,7.268-1.235a5.3,5.3,0,0,1,1.958,1.961,8.909,8.909,0,0,1,.913,3.919C28.757,44.829,25.708,48.289,22.849,48.289Z" fill="#ffd997"/><path d="M28.074,38.109c1.557-5.042-2.935-7.933-5.676-7.933-3.087,0-5.621,4.8-5.1,8.027,1.647-.75,3.1-2.232,6.7-4.65-.524.711-1.544,2-5.014,4.339,1.867.234,5.345-1.547,7.2-3.406A10.224,10.224,0,0,0,28.074,38.109Z" fill="#634738" fill-rule="evenodd"/><path d="M22.892,52.9c-3.743.062-3.132-3.947-3.132-3.947s-8.015,2-9.4,5.329a75.651,75.651,0,0,0-2.592,7.945H38.043a76.374,76.374,0,0,0-2.592-7.945c-1.386-3.331-9.4-5.329-9.4-5.329S26.644,52.83,22.892,52.9Z" fill="#d1d3d4"/><path d="M19.745,48.167A5.081,5.081,0,0,0,22.892,52.9l-4.147,2.651S17.614,49.459,19.745,48.167Z" fill="#f1f1f2"/><path d="M26.038,48.167A5.081,5.081,0,0,1,22.891,52.9l4.148,2.651S28.17,49.459,26.038,48.167Z" fill="#f1f1f2"/></g><g id="female_user-2" data-name="female user"><polygon points="68.344 49.587 69.992 48.948 76.28 48.948 77.843 49.587 76.282 58.55 68.989 58.55 68.344 49.587" fill="#f4cc90"/><path d="M76.035,30.7c-4.3-3.4-10.435.529-10.983,9.729h0a22.984,22.984,0,0,0,.691,7.494l.031.11a9.821,9.821,0,0,0,.381,1.068,4.693,4.693,0,0,0,.818,1.379,2.2,2.2,0,0,0,.459.384,2.564,2.564,0,0,0,1.407.355h8.345a2.615,2.615,0,0,0,1.359-.325,2.2,2.2,0,0,0,.5-.414,4.674,4.674,0,0,0,.82-1.379,10.042,10.042,0,0,0,.379-1.068c.013-.04.023-.075.034-.115a17.53,17.53,0,0,0,.478-2.307C82.116,36.906,80.256,31.026,76.035,30.7Z" fill="#634738"/><path d="M73.042,37.033c1.763,0,3.239,5.658,3.239,9.77s-.368,7.441-3.2,7.441c-2.467,0-3.2-2.841-3.2-7.441C69.888,42.691,71.275,37.033,73.042,37.033Z" fill="#f4cc90"/><path d="M68.961,39.875c.209,1.048-.15,2-.8,2.135S66.8,41.4,66.59,40.351s.15-2,.8-2.133S68.751,38.827,68.961,39.875Z" fill="#ffd997"/><path d="M77.218,39.875c-.21,1.048.151,2,.8,2.135s1.355-.613,1.565-1.659-.15-2-.8-2.133S77.428,38.827,77.218,39.875Z" fill="#ffd997"/><path d="M73.042,48.289c-2.861,0-5.912-3.46-5.912-7.728a8.893,8.893,0,0,1,.262-2.123c.225-.778,1.292-1.746,1.417-2.522.529-3.3,2.433-6.94,7.27-1.235a5.307,5.307,0,0,1,1.957,1.961,8.9,8.9,0,0,1,.914,3.919C78.95,44.829,75.9,48.289,73.042,48.289Z" fill="#ffd997"/><path d="M78.267,38.109c1.556-5.042-2.935-7.933-5.676-7.933-3.087,0-5.622,4.8-5.1,8.027,1.646-.75,3.1-2.232,6.7-4.65-.524.711-1.544,2-5.013,4.339,1.867.234,5.345-1.547,7.2-3.406A10.259,10.259,0,0,0,78.267,38.109Z" fill="#634738" fill-rule="evenodd"/><path d="M73.085,52.9c-3.743.062-3.133-3.947-3.133-3.947s-8.016,2-9.4,5.329a75.651,75.651,0,0,0-2.592,7.945H88.234a75.651,75.651,0,0,0-2.592-7.945c-1.386-3.331-9.4-5.329-9.4-5.329S76.837,52.83,73.085,52.9Z" fill="#d1d3d4"/><path d="M69.938,48.167A5.081,5.081,0,0,0,73.085,52.9l-4.149,2.651S67.806,49.459,69.938,48.167Z" fill="#f1f1f2"/><path d="M76.231,48.167A5.081,5.081,0,0,1,73.084,52.9l4.147,2.651S78.361,49.459,76.231,48.167Z" fill="#f1f1f2"/></g><g id="female_user-3" data-name="female user"><polygon points="40.717 54.167 43.209 53.196 52.715 53.196 55.079 54.167 52.72 67.715 41.692 67.715 40.717 54.167" fill="#f4cc90"/><path d="M52.346,24.558c-6.5-5.139-15.777.8-16.606,14.711h0A34.684,34.684,0,0,0,36.785,50.6c.014.055.031.108.048.165a14.542,14.542,0,0,0,.575,1.617,7.13,7.13,0,0,0,1.236,2.085,3.369,3.369,0,0,0,.694.581,3.883,3.883,0,0,0,2.127.537H54.083a3.94,3.94,0,0,0,2.056-.492,3.384,3.384,0,0,0,.763-.626,7.11,7.11,0,0,0,1.238-2.085,15.4,15.4,0,0,0,.575-1.617c.017-.057.032-.11.048-.17a26.517,26.517,0,0,0,.724-3.49C61.541,33.94,58.73,25.047,52.346,24.558Z" fill="#634738"/><path d="M47.818,35.182c2.669,0,4.9,8.557,4.9,14.771s-.557,11.256-4.834,11.256c-3.729,0-4.834-4.3-4.834-11.256C43.051,43.739,45.147,35.182,47.818,35.182Z" fill="#f4cc90"/><path d="M41.65,39.481c.317,1.584-.228,3.028-1.218,3.228s-2.05-.926-2.367-2.507.227-3.029,1.217-3.228S41.332,37.9,41.65,39.481Z" fill="#ffd997"/><path d="M54.134,39.481c-.318,1.584.229,3.028,1.218,3.228s2.049-.926,2.367-2.507-.227-3.029-1.217-3.228S54.453,37.9,54.134,39.481Z" fill="#ffd997"/><path d="M47.819,52.2c-4.324,0-8.937-5.233-8.937-11.685a13.489,13.489,0,0,1,.4-3.21c.338-1.175,1.954-2.642,2.141-3.814.8-5,3.68-10.493,10.992-1.866a8.022,8.022,0,0,1,2.961,2.966,13.46,13.46,0,0,1,1.381,5.924C56.754,46.97,52.141,52.2,47.819,52.2Z" fill="#ffd997"/><path d="M55.721,36.809c2.352-7.624-4.438-11.994-8.583-11.994-4.667,0-8.5,7.262-7.711,12.136,2.49-1.132,4.684-3.375,10.127-7.03-.792,1.073-2.335,3.024-7.581,6.561,2.823.354,8.083-2.337,10.885-5.149A15.523,15.523,0,0,0,55.721,36.809Z" fill="#634738" fill-rule="evenodd"/><path d="M47.885,59.166c-5.659.1-4.736-5.97-4.736-5.97s-12.12,3.026-14.216,8.061a114.266,114.266,0,0,0-3.919,12.014H70.792a114.5,114.5,0,0,0-3.919-12.014c-2.1-5.035-14.217-8.061-14.217-8.061S53.559,59.066,47.885,59.166Z" fill="#d1d3d4"/><path d="M43.127,52.016a7.682,7.682,0,0,0,4.758,7.15l-6.271,4.012S39.905,53.972,43.127,52.016Z" fill="#f1f1f2"/><path d="M52.641,52.016a7.678,7.678,0,0,1-4.757,7.15l6.272,4.012S55.864,53.972,52.641,52.016Z" fill="#f1f1f2"/></g></g></svg>