<svg id="Layer_1" data-name="Layer 1" xmlns="http://www.w3.org/2000/svg" width="60" height="60" viewBox="0 0 60 60"><title>Artboard 4_users</title><g id="user_female" data-name="user female"><path d="M34.807,3.7c-7.154-5.652-17.355.883-18.267,16.187l.069.024a38.069,38.069,0,0,0,1.08,12.442c.016.061.034.119.053.182a16.963,16.963,0,0,0,.633,1.78,7.837,7.837,0,0,0,1.361,2.292,3.738,3.738,0,0,0,.762.64,4.276,4.276,0,0,0,2.34.591h13.88a4.336,4.336,0,0,0,2.263-.543,3.685,3.685,0,0,0,.84-.688,7.814,7.814,0,0,0,1.36-2.292,16.736,16.736,0,0,0,.634-1.78c.019-.063.036-.121.053-.189a28.485,28.485,0,0,0,.795-3.838C44.923,14.024,41.831,4.239,34.807,3.7Z" fill="#634738"/><path d="M30,16.436c2.937,0,5.392,9.413,5.392,16.25s-2.381,12.38-5.318,12.38-5.318-5.543-5.318-12.38S27.06,16.436,30,16.436Z" fill="#f4cc90"/><polygon points="22.1 36.084 24.842 34.955 35.299 34.955 37.899 36.084 35.304 51.865 23.173 51.865 22.1 36.084" fill="#f4cc90"/><path d="M23.211,21.164c.349,1.741-.251,3.329-1.339,3.549s-2.255-1.017-2.6-2.758.25-3.331,1.338-3.55S22.861,19.421,23.211,21.164Z" fill="#ffd997"/><path d="M36.947,21.164c-.351,1.741.249,3.329,1.338,3.549S40.54,23.7,40.89,21.955s-.251-3.331-1.339-3.55S37.3,19.421,36.947,21.164Z" fill="#ffd997"/><path d="M30,35.157c-4.755,0-9.829-5.754-9.829-12.853a14.8,14.8,0,0,1,.435-3.532c.372-1.293,2.15-2.907,2.357-4.2.879-5.493,4.047-11.54,12.09-2.051a8.839,8.839,0,0,1,3.258,3.262A14.812,14.812,0,0,1,39.827,22.3C39.827,29.4,34.753,35.157,30,35.157Z" fill="#ffd997"/><path d="M30,41.735a10.37,10.37,0,0,1-8.626-4.361H19.912V55.719H38.946V37.374h-.32A10.366,10.366,0,0,1,30,41.735Z" fill="#ff897f"/><path d="M55.04,58.31a139.407,139.407,0,0,0-4.312-14C48.422,38.451,37.9,36.084,37.9,36.084A49.177,49.177,0,0,1,30,53.41a49.19,49.19,0,0,1-7.9-17.326S11.577,38.451,9.273,44.315a138.934,138.934,0,0,0-4.313,14Z" fill="#ee5450"/><path d="M38.769,20.87C41.6,11.689,33.425,6.425,28.435,6.425c-5.622,0-10.235,8.744-9.287,14.615,3-1.366,5.64-4.065,12.2-8.465-.953,1.291-2.811,3.641-9.13,7.9,3.4.424,9.734-2.814,13.109-6.2A18.723,18.723,0,0,0,38.769,20.87Z" fill="#634738" fill-rule="evenodd"/></g></svg>