<svg id="Layer_1" data-name="Layer 1" xmlns="http://www.w3.org/2000/svg" width="96" height="96" viewBox="0 0 96 96"><title>Artboard 14_users</title><g id="user_male_group1" data-name="user male group1"><g id="user_male" data-name="user male"><path d="M43.071,53.224c-.555-4.639-3.877-5.567-3.877-5.567l-7.936-2.784c-1.846,1.669-4.983,1.3-4.983,1.3s-3.139.37-4.982-1.3l-7.938,2.784s-3.321.928-3.874,5.567L7.45,62.5H45.1Z" fill="#16bb9d"/><path d="M26.278,40.737a5.153,5.153,0,1,1-5.069,5.152A5.111,5.111,0,0,1,26.278,40.737Z" fill="#f4cc90"/><path d="M21.282,38.032c.233,1.163-.166,2.223-.894,2.37s-1.505-.678-1.737-1.841.166-2.222.895-2.37S21.05,36.87,21.282,38.032Z" fill="#ffd997"/><path d="M31.267,38.032c-.234,1.163.167,2.223.892,2.37s1.506-.678,1.741-1.841-.168-2.222-.9-2.37S31.5,36.87,31.267,38.032Z" fill="#ffd997"/><path d="M32.783,38.8c0,4.737-3.388,8.58-6.564,8.58s-6.562-3.843-6.562-8.58,3.388-8.579,6.562-8.579S32.783,34.056,32.783,38.8Z" fill="#ffd997"/><path d="M32.778,38.514A11.741,11.741,0,0,0,33.425,37c1.935-5.56-.337-8.409-3.189-8.514l-.009,0a5.332,5.332,0,0,0-4.975-2.512,6.96,6.96,0,0,0-6.837,7.391,13.954,13.954,0,0,0,1.245,5.194s-.037-3.667,1.861-3.936,6.953.267,8.072-2.36C29.593,32.265,32.844,33.864,32.778,38.514Z" fill="#414141"/></g><g id="user_male-2" data-name="user male"><path d="M86.521,53.224c-.555-4.639-3.876-5.567-3.876-5.567l-7.936-2.784c-1.847,1.669-4.984,1.3-4.984,1.3s-3.138.37-4.982-1.3l-7.938,2.784s-3.321.928-3.874,5.567L50.9,62.5H88.55Z" fill="#16bb9d"/><path d="M69.728,40.737a5.153,5.153,0,1,1-5.069,5.152A5.111,5.111,0,0,1,69.728,40.737Z" fill="#f4cc90"/><path d="M64.732,38.032c.233,1.163-.166,2.223-.893,2.37s-1.506-.678-1.737-1.841.165-2.222.894-2.37S64.5,36.87,64.732,38.032Z" fill="#ffd997"/><path d="M74.717,38.032c-.234,1.163.167,2.223.893,2.37s1.5-.678,1.739-1.841-.166-2.222-.9-2.37S74.949,36.87,74.717,38.032Z" fill="#ffd997"/><path d="M76.233,38.8c0,4.737-3.387,8.58-6.564,8.58s-6.562-3.843-6.562-8.58,3.388-8.579,6.562-8.579S76.233,34.056,76.233,38.8Z" fill="#ffd997"/><path d="M76.228,38.514A11.741,11.741,0,0,0,76.875,37c1.935-5.56-.338-8.409-3.189-8.514l-.009,0A5.331,5.331,0,0,0,68.7,25.976a6.961,6.961,0,0,0-6.837,7.391,13.993,13.993,0,0,0,1.245,5.194s-.037-3.667,1.861-3.936,6.953.267,8.072-2.36C73.043,32.265,76.3,33.864,76.228,38.514Z" fill="#414141"/></g><path d="M72.051,60.867C71.257,54.225,66.5,52.9,66.5,52.9L55.135,48.909C52.492,51.3,48,50.77,48,50.77s-4.495.53-7.135-1.861L29.5,52.9s-4.757,1.328-5.549,7.97L21.043,74.159H74.957Z" fill="#16bb9d"/><path d="M47.971,42.989a7.377,7.377,0,1,1-7.259,7.376A7.32,7.32,0,0,1,47.971,42.989Z" fill="#f4cc90"/><path d="M40.817,39.115c.334,1.664-.239,3.183-1.28,3.393s-2.156-.971-2.489-2.635.239-3.185,1.282-3.395S40.484,37.451,40.817,39.115Z" fill="#ffd997"/><path d="M55.114,39.115c-.335,1.664.24,3.183,1.279,3.393s2.154-.971,2.49-2.635-.239-3.185-1.282-3.395S55.444,37.451,55.114,39.115Z" fill="#ffd997"/><ellipse cx="47.887" cy="40.208" rx="9.398" ry="12.286" fill="#ffd997"/><path d="M57.278,39.806a17.036,17.036,0,0,0,.927-2.173c2.769-7.965-.485-12.044-4.568-12.194l-.013.008a7.644,7.644,0,0,0-7.123-3.6A9.97,9.97,0,0,0,36.71,32.434a20.039,20.039,0,0,0,1.783,7.439s-.052-5.251,2.665-5.64,9.957.384,11.559-3.375C52.717,30.858,57.373,33.145,57.278,39.806Z" fill="#414141"/></g></svg>