<svg id="Layer_1" data-name="Layer 1" xmlns="http://www.w3.org/2000/svg" width="60" height="60" viewBox="0 0 60 60"><title>Artboard 9_users</title><g id="user_female3" data-name="user female3"><g id="female_user" data-name="female user"><polygon points="22.042 36.83 24.801 35.757 35.329 35.757 37.947 36.83 35.334 51.835 23.122 51.835 22.042 36.83" fill="#f4cc90"/><path d="M34.92,4.053c-7.2-5.735-17.472.9-18.39,16.43h0a39.02,39.02,0,0,0,1.156,12.651c.017.062.035.122.054.183a17.1,17.1,0,0,0,.636,1.807,7.971,7.971,0,0,0,1.371,2.327,3.68,3.68,0,0,0,.768.65,4.278,4.278,0,0,0,2.355.6H36.843a4.311,4.311,0,0,0,2.278-.551,3.631,3.631,0,0,0,.846-.7,7.948,7.948,0,0,0,1.37-2.327,16.87,16.87,0,0,0,.637-1.807c.019-.061.037-.121.053-.191a29.008,29.008,0,0,0,.8-3.895C45.1,14.531,41.99,4.6,34.92,4.053Z" fill="#634738"/><path d="M29.906,15.806c2.957,0,5.427,9.477,5.427,16.359s-.616,12.464-5.352,12.464c-4.13,0-5.355-4.762-5.355-12.464C24.626,25.283,26.948,15.806,29.906,15.806Z" fill="#f4cc90"/><path d="M23.073,20.566c.353,1.752-.25,3.352-1.346,3.573s-2.271-1.024-2.622-2.775.251-3.355,1.347-3.575S22.722,18.812,23.073,20.566Z" fill="#ffd997"/><path d="M36.9,20.566c-.352,1.752.252,3.352,1.347,3.573s2.27-1.024,2.623-2.775-.253-3.355-1.349-3.575S37.252,18.812,36.9,20.566Z" fill="#ffd997"/><path d="M29.907,34.653c-4.789,0-9.9-5.793-9.9-12.937a14.95,14.95,0,0,1,.437-3.558c.375-1.3,2.165-2.926,2.373-4.226C23.708,8.4,26.9,2.316,34.994,11.868a8.9,8.9,0,0,1,3.278,3.284A14.9,14.9,0,0,1,39.8,21.716C39.8,28.86,34.693,34.653,29.907,34.653Z" fill="#ffd997"/><path d="M38.658,17.608c2.6-8.443-4.915-13.285-9.5-13.285-5.17,0-9.413,8.041-8.54,13.441,2.757-1.256,5.186-3.737,11.215-7.786-.877,1.188-2.587,3.351-8.4,7.267,3.126.391,8.952-2.588,12.056-5.705A17.214,17.214,0,0,0,38.658,17.608Z" fill="#634738" fill-rule="evenodd"/><path d="M29.981,42.365c-6.268.109-5.246-6.608-5.246-6.608S11.312,39.1,8.992,44.682A127.025,127.025,0,0,0,4.65,57.987h50.7a126.974,126.974,0,0,0-4.341-13.3c-2.32-5.577-15.745-8.925-15.745-8.925S36.263,42.257,29.981,42.365Z" fill="#d1d3d4"/><path d="M24.711,34.448s-.406,5.211,5.27,7.917l-6.947,4.444S21.141,36.614,24.711,34.448Z" fill="#f1f1f2"/><path d="M35.248,34.448s.407,5.211-5.268,7.917l6.945,4.444S38.817,36.614,35.248,34.448Z" fill="#f1f1f2"/></g></g></svg>