<svg id="Layer_1" data-name="Layer 1" xmlns="http://www.w3.org/2000/svg" width="60" height="60" viewBox="0 0 60 60"><title>Artboard 5_users</title><g id="user_female1" data-name="user female1"><path d="M35.084,4.038C27.64-1.1,17.026,4.84,16.078,18.744h0a30.444,30.444,0,0,0,1.2,11.322c.015.056.036.109.053.165a14.3,14.3,0,0,0,.659,1.618A6.965,6.965,0,0,0,19.4,33.931a3.738,3.738,0,0,0,.793.581,4.956,4.956,0,0,0,2.435.537H37.075a5.03,5.03,0,0,0,2.35-.492,3.757,3.757,0,0,0,.875-.626,6.982,6.982,0,0,0,1.416-2.082,13.593,13.593,0,0,0,.659-1.618c.02-.056.038-.109.054-.17a22.751,22.751,0,0,0,.829-3.487C45.611,13.416,42.393,4.526,35.084,4.038Z" fill="#634738"/><path d="M30.045,16.68c2.88,0,5.29,9.236,5.29,15.944S33,44.77,30.118,44.77,24.9,39.332,24.9,32.624,27.164,16.68,30.045,16.68Z" fill="#f4cc90"/><polygon points="22.297 35.956 24.986 34.849 35.249 34.849 37.797 35.956 35.253 51.442 23.35 51.442 22.297 35.956" fill="#f4cc90"/><path d="M23.387,21.318c.342,1.708-.246,3.268-1.315,3.483s-2.213-1-2.553-2.7.246-3.27,1.312-3.483S23.043,19.61,23.387,21.318Z" fill="#ffd997"/><path d="M36.863,21.318c-.344,1.708.247,3.268,1.315,3.483s2.213-1,2.554-2.7-.244-3.27-1.314-3.483S37.207,19.61,36.863,21.318Z" fill="#ffd997"/><path d="M30.045,35.049C25.38,35.049,20.4,29.4,20.4,22.44a14.574,14.574,0,0,1,.426-3.468c.367-1.268,2.111-2.852,2.313-4.118C24,9.465,27.112,3.531,35.005,12.841a8.688,8.688,0,0,1,3.2,3.2,14.536,14.536,0,0,1,1.491,6.4C39.691,29.4,34.713,35.049,30.045,35.049Z" fill="#ffd997"/><path d="M38.512,18.584s-.8-.107-1.918-.246h0l-.431-1.983-.418,1.878c-.488-.056-1.007-.118-1.539-.176l-.834-4.79-.586,4.63c-.87-.076-2.222-.17-2.741-.17h-.01L29.7,14.982l-.526,2.777c-1.167.067-2.811.24-4.276.41l-.337-4.644-.551,4.75c-1.386.167-2.436.309-2.436.309S20.227,6.291,30.055,7.923C30.055,7.923,40.154,6.848,38.512,18.584Z" fill="#634738"/><path d="M50.2,44.1c-2.248-5.738-13.369-8.576-13.369-8.576h-.017c-.325,3.861-3.2,6.882-6.7,6.882s-6.387-3.031-6.7-6.9h0S12.044,38.36,9.8,44.1A136.292,136.292,0,0,0,5.6,57.789H54.4A137.3,137.3,0,0,0,50.2,44.1Z" fill="#16bb9d"/></g></svg>