<svg id="Layer_1" data-name="Layer 1" xmlns="http://www.w3.org/2000/svg" width="60" height="60" viewBox="0 0 60 60"><title>Artboard 2_users</title><g id="user_male" data-name="user male"><path d="M55.825,43.736c-.858-7.135-6-8.563-6-8.563L37.554,30.891c-2.857,2.569-7.707,2-7.707,2s-4.548.57-7.4-2L10.171,35.173S5.033,36.6,4.176,43.736L1.036,58.009H58.964Z" fill="#ee5450"/><path d="M22.44,30.891s-.949,5.372,7.582,9.54c0,0-6.385.508-8.213,6.446C21.68,47.132,18.2,34.05,22.44,30.891Z" fill="#ff897f"/><path d="M37.609,30.891s.946,5.372-7.587,9.54c0,0,6.383.508,8.215,6.446C38.3,47.132,41.777,34.05,37.609,30.891Z" fill="#ff897f"/><path d="M30.005,24.633a7.9,7.9,0,1,1-7.772,7.9A7.838,7.838,0,0,1,30.005,24.633Z" fill="#f4cc90"/><path d="M22.346,20.487c.357,1.781-.255,3.408-1.372,3.632S18.665,23.08,18.311,21.3s.255-3.409,1.37-3.632S21.988,18.7,22.346,20.487Z" fill="#ffd997"/><path d="M37.655,20.487c-.361,1.781.254,3.408,1.368,3.632S41.332,23.08,41.69,21.3s-.256-3.409-1.371-3.632S38.009,18.7,37.655,20.487Z" fill="#ffd997"/><path d="M39.979,21.656c0,7.265-5.193,13.156-10.061,13.156S19.854,28.921,19.854,21.656,25.051,8.5,29.918,8.5,39.979,14.389,39.979,21.656Z" fill="#ffd997"/><path d="M39.971,21.228a18.676,18.676,0,0,0,.993-2.328c2.964-8.527-.52-12.895-4.889-13.057l-.018.009A8.179,8.179,0,0,0,28.433,2,10.678,10.678,0,0,0,17.947,13.334,21.466,21.466,0,0,0,19.858,21.3s-.056-5.622,2.854-6.037,10.662.412,12.376-3.616C35.088,11.644,40.074,14.093,39.971,21.228Z" fill="#414141"/></g></svg>