<svg id="Layer_1" data-name="Layer 1" xmlns="http://www.w3.org/2000/svg" width="80" height="80" viewBox="0 0 80 80"><title>Artboard 19_users</title><g id="user_male_and_female1" data-name="user male and female1"><path d="M59.209,20.1c-6.139-4.71-14.9.738-15.678,13.494h0a30.911,30.911,0,0,0,.986,10.387c.013.05.03.1.046.153a13.545,13.545,0,0,0,.542,1.481,6.5,6.5,0,0,0,1.168,1.911,3.191,3.191,0,0,0,.655.534,3.757,3.757,0,0,0,2.007.492H60.848a3.812,3.812,0,0,0,1.941-.452,3.116,3.116,0,0,0,.721-.574,6.5,6.5,0,0,0,1.17-1.911,13.975,13.975,0,0,0,.541-1.481c.018-.053.033-.1.046-.158a23.266,23.266,0,0,0,.683-3.2C67.89,28.7,65.235,20.546,59.209,20.1Z" fill="#634738"/><path d="M54.944,30.18c2.521,0,4.628,8.081,4.628,13.946S57.528,54.75,55.008,54.75,50.443,50,50.443,44.126,52.423,30.18,54.944,30.18Z" fill="#f4cc90"/><polygon points="48.166 47.042 50.519 46.074 59.496 46.074 61.727 47.042 59.499 60.585 49.088 60.585 48.166 47.042" fill="#f4cc90"/><path d="M49.121,34.239c.3,1.5-.214,2.857-1.149,3.046s-1.936-.873-2.236-2.367.215-2.859,1.149-3.046S48.819,32.742,49.121,34.239Z" fill="#ffd997"/><path d="M60.909,34.239c-.3,1.5.214,2.857,1.147,3.046s1.936-.873,2.235-2.367-.212-2.859-1.147-3.046S61.208,32.742,60.909,34.239Z" fill="#ffd997"/><path d="M54.946,46.249c-4.083,0-8.437-4.94-8.437-11.032a12.688,12.688,0,0,1,.374-3.031c.318-1.11,1.844-2.5,2.022-3.6.756-4.715,3.474-9.9,10.377-1.759a7.565,7.565,0,0,1,2.8,2.8,12.706,12.706,0,0,1,1.3,5.593C63.382,41.309,59.026,46.249,54.946,46.249Z" fill="#ffd997"/><path d="M62.413,31.849s-.7-.094-1.678-.214h0L60.358,29.9l-.365,1.646c-.428-.052-.884-.105-1.346-.155L57.919,27.2l-.514,4.049c-.761-.065-1.943-.147-2.4-.147H55l-.29-2.4-.459,2.427c-1.023.058-2.46.21-3.74.36l-.3-4.064-.481,4.156c-1.211.147-2.13.269-2.13.269S46.419,21.1,55.015,22.524C55.015,22.524,63.848,21.586,62.413,31.849Z" fill="#634738"/><path d="M61.581,49.5a5.253,5.253,0,0,1-1.528,1.549c-.38,1.228-2.484,2.168-5.027,2.168-2.4,0-4.409-.835-4.95-1.963a5.759,5.759,0,0,1-1.582-1.372c.035,1.075.723,4.627,4.16,15.938h4.8C61.54,52.378,61.74,49.893,61.581,49.5Z" fill="#e6e7e8"/><path d="M76.622,66.138a118.609,118.609,0,0,0-3.7-12.009C70.945,49.1,59.5,46.074,59.5,46.074a27.7,27.7,0,0,1-4.458,17.907h0a29.863,29.863,0,0,1-4.518-17.907S39.081,49.1,37.1,54.129a118.871,118.871,0,0,0-3.7,12.009Z" fill="#536d79"/><path d="M50.525,45.65s-.677,8.28,4.518,18.331A27.414,27.414,0,0,1,44.7,51.607l2.882-1.339-.847-1.615Z" fill="#f1f1f2"/><path d="M59.5,45.65s.74,8.28-4.458,18.331A27.484,27.484,0,0,0,65.327,51.607l-2.884-1.339.847-1.615Z" fill="#f1f1f2"/><polygon points="42.131 66.169 42.131 46.116 30.715 39.842 19.241 46.186 19.241 66.169 42.131 66.169" fill="#afbdc4"/><polygon points="33.824 50.175 27.55 50.175 28.803 53.703 32.568 53.703 33.824 50.175" fill="#445963"/><path d="M30.715,35.237a7.47,7.47,0,1,1-7.349,7.472A7.412,7.412,0,0,1,30.715,35.237Z" fill="#f4cc90"/><path d="M23.475,31.318c.338,1.684-.239,3.223-1.3,3.435S20,33.77,19.658,32.084s.242-3.223,1.295-3.435S23.136,29.632,23.475,31.318Z" fill="#ffd997"/><path d="M37.949,31.318c-.339,1.684.242,3.223,1.294,3.435s2.183-.983,2.521-2.669-.242-3.223-1.3-3.435S38.284,29.632,37.949,31.318Z" fill="#ffd997"/><path d="M40.147,32.423c0,6.87-4.912,12.438-9.514,12.438s-9.512-5.568-9.512-12.438,4.91-12.438,9.512-12.438S40.147,25.555,40.147,32.423Z" fill="#ffd997"/><path d="M40.142,32.019a17.627,17.627,0,0,0,.938-2.2c2.8-8.063-.493-12.194-4.626-12.349l-.013.01a7.736,7.736,0,0,0-7.211-3.64,10.09,10.09,0,0,0-9.913,10.715,20.206,20.206,0,0,0,1.806,7.529s-.056-5.314,2.7-5.708,10.08.389,11.7-3.418C35.521,22.958,40.236,25.271,40.142,32.019Z" fill="#414141"/><path d="M25,66.169a85.511,85.511,0,0,1-2.952-22.146L7.581,51.016l-4.2,15.153Z" fill="#536d79"/><path d="M58.045,66.169l-4.2-15.153L39.38,44.023a85.542,85.542,0,0,1-2.951,22.146Z" fill="#536d79"/><polygon points="34.025 66.169 32.568 53.703 28.745 53.703 27.355 66.169 34.025 66.169" fill="#536d79"/><path d="M23.545,41.154s-.9,5.08,7.17,9.021c0,0-6.034.482-7.766,6.1C22.827,56.509,19.541,44.141,23.545,41.154Z" fill="#ebeef0"/><path d="M37.886,41.154s.9,5.08-7.171,9.021c0,0,6.039.482,7.769,6.1C38.545,56.509,41.828,44.141,37.886,41.154Z" fill="#ebeef0"/></g></svg>